<svg width="200" height="151" viewBox="0 0 200 151" fill="none" xmlns="http://www.w3.org/2000/svg">
<path d="M118.35 51.6245C118.35 51.6245 123.805 51.8789 131.78 58.5627C139.755 65.2466 142.67 69.8555 142.67 69.8555V43.4193C142.67 43.4193 132.545 31.7125 119.17 27.2583L118.35 51.6245Z" fill="#E6E7E8"/>
<path d="M142.67 70.1055C142.628 70.1064 142.586 70.0963 142.549 70.0762C142.512 70.056 142.482 70.0266 142.46 69.9908C142.43 69.9459 139.46 65.3271 131.62 58.7529C123.78 52.1788 118.39 51.8745 118.335 51.8745C118.27 51.8695 118.209 51.8397 118.165 51.7915C118.122 51.7433 118.098 51.6802 118.1 51.6152L118.895 27.2689C118.896 27.2301 118.907 27.1922 118.926 27.1584C118.945 27.1246 118.972 27.0958 119.005 27.0744C119.036 27.0509 119.072 27.0354 119.11 27.0293C119.149 27.0232 119.188 27.0267 119.225 27.0395C132.535 31.4638 142.755 43.1606 142.86 43.2803C142.899 43.3241 142.92 43.3811 142.92 43.4399V69.8761C142.92 69.93 142.902 69.9826 142.87 70.0257C142.837 70.0689 142.792 70.1004 142.74 70.1155L142.67 70.1055ZM118.605 51.3957C119.77 51.5254 124.84 52.3933 131.94 58.3788C138.13 63.5663 141.315 67.5567 142.44 69.073V43.5347C141.585 42.572 131.895 31.8978 119.405 27.6181L118.605 51.3957Z" fill="#231F20"/>
<path d="M60.9497 60.8529V37.3197C70.1125 34.1452 79.8212 32.8391 89.4997 33.479V56.0545C89.4997 56.0545 72.0247 56.5333 60.9497 60.8529Z" fill="#E6E7E8"/>
<path d="M60.9546 61.1019C60.9037 61.1011 60.8538 61.0874 60.8096 61.062C60.7771 61.0375 60.7508 61.0058 60.7326 60.9695C60.7144 60.9332 60.7048 60.8931 60.7046 60.8525V37.3193C60.7042 37.2699 60.7188 37.2216 60.7464 37.1806C60.7741 37.1396 60.8135 37.108 60.8596 37.0899C70.0662 33.9166 79.8141 32.6042 89.5346 33.2292C89.5974 33.2342 89.6559 33.2627 89.6986 33.3089C89.7412 33.3552 89.7648 33.4157 89.7646 33.4786V56.0491C89.7659 56.0814 89.7607 56.1136 89.7493 56.1438C89.7378 56.174 89.7203 56.2016 89.6979 56.2249C89.6755 56.2482 89.6486 56.2667 89.6188 56.2794C89.589 56.292 89.557 56.2985 89.5246 56.2985C89.3496 56.2985 71.9496 56.8322 61.0246 61.0869C61.002 61.0949 60.9785 61.0999 60.9546 61.1019ZM61.2046 37.4939V60.4934C71.4896 56.5928 87.1296 55.8895 89.2646 55.8097V33.713C79.7536 33.1362 70.2214 34.4206 61.2046 37.4939Z" fill="#231F20"/>
<path d="M64.3497 56.9768C64.2954 56.978 64.2424 56.9604 64.1997 56.927C64.168 56.9043 64.1424 56.8743 64.1249 56.8395C64.1075 56.8048 64.0988 56.7663 64.0997 56.7274V40.0028C64.0997 39.9367 64.126 39.8732 64.1729 39.8265C64.2198 39.7797 64.2834 39.7534 64.3497 39.7534C64.4156 39.7547 64.4784 39.7814 64.525 39.8279C64.5716 39.8744 64.5984 39.9371 64.5997 40.0028V56.3883C66.8647 55.68 79.6596 51.7993 84.4346 52.787C84.4675 52.7935 84.4987 52.8064 84.5265 52.825C84.5543 52.8436 84.5782 52.8675 84.5968 52.8953C84.6153 52.9231 84.6282 52.9542 84.6347 52.987C84.6412 53.0198 84.6412 53.0535 84.6346 53.0862C84.6281 53.119 84.6151 53.1501 84.5965 53.1779C84.5778 53.2056 84.5539 53.2295 84.5261 53.248C84.4982 53.2665 84.467 53.2794 84.4341 53.2859C84.4013 53.2923 84.3675 53.2923 84.3346 53.2858C79.3346 52.2532 64.5747 56.927 64.4247 56.9768H64.3497Z" fill="#231F20"/>
<path d="M49.9998 73.9361C49.9998 73.9361 41.4998 77.4576 38.2848 87.8625V67.0527C38.2848 67.0527 38.0998 56.967 49.9998 50.5625V73.9361Z" fill="#E6E7E8"/>
<path d="M38.2598 88.1118H38.2248C38.1651 88.1045 38.1103 88.0755 38.0706 88.0305C38.031 87.9854 38.0093 87.9274 38.0098 87.8674V67.0526C38.0098 66.9529 38.0098 56.7425 49.8548 50.343C49.8931 50.322 49.9361 50.311 49.9798 50.311C50.0235 50.311 50.0665 50.322 50.1048 50.343C50.1416 50.3654 50.172 50.3969 50.1931 50.4345C50.2141 50.472 50.225 50.5144 50.2248 50.5575V73.931C50.2245 73.9803 50.2097 74.0283 50.1821 74.0692C50.1545 74.11 50.1154 74.1418 50.0698 74.1605C47.2998 75.5461 44.844 77.4835 42.854 79.8531C40.864 82.2226 39.3821 84.974 38.4998 87.9372C38.4837 87.9881 38.4518 88.0325 38.4086 88.0639C38.3654 88.0954 38.3132 88.1121 38.2598 88.1118ZM49.7248 50.9864C38.4998 57.2314 38.4998 66.9479 38.4998 67.0477V86.361C40.5237 80.9115 44.5266 76.4197 49.7148 73.7764L49.7248 50.9864Z" fill="#231F20"/>
<path d="M38.2598 67.0527C38.2598 67.0527 40.3448 76.1009 48.3698 79.0987V103.45C48.3698 103.45 39.2248 97.1351 38.2598 87.8625V67.0527Z" fill="white"/>
<path d="M48.3697 103.699C48.3194 103.7 48.2704 103.684 48.2297 103.654C48.1347 103.59 38.9747 97.1701 38.0147 87.8875V67.0528C38.0074 66.9866 38.0267 66.9203 38.0685 66.8684C38.1102 66.8165 38.1709 66.7832 38.2372 66.7759C38.3035 66.7686 38.37 66.7879 38.422 66.8296C38.4741 66.8712 38.5074 66.9317 38.5147 66.9979C38.5147 67.0827 40.6697 75.9513 48.4697 78.8692C48.5163 78.8872 48.5564 78.9186 48.585 78.9595C48.6135 79.0004 48.6291 79.0489 48.6297 79.0987V103.45C48.6293 103.495 48.6166 103.54 48.5928 103.578C48.569 103.617 48.5351 103.649 48.4947 103.669C48.4567 103.691 48.4134 103.701 48.3697 103.699ZM38.4997 68.6689V87.8625C39.3247 95.8034 46.3597 101.624 48.1097 102.956V79.2733C42.2197 76.9838 39.4997 71.4072 38.4997 68.6689Z" fill="#231F20"/>
<path d="M146.235 86.6102C145.295 86.7947 104.565 105.564 104.565 105.564C104.565 105.564 88.625 99.7634 88.255 99.948C87.885 100.133 128.405 83.2832 128.405 83.2832L146.235 86.6102Z" fill="white"/>
<path d="M104.565 105.809C104.537 105.814 104.508 105.814 104.48 105.809C98.3248 103.569 88.9298 100.227 88.2848 100.202V100.177C88.0948 100.217 88.0748 100.177 88.0248 100.063C87.999 100.004 87.997 99.9368 88.0194 99.8764C88.0418 99.8159 88.0867 99.7665 88.1448 99.7384H88.1748C88.7248 99.5388 127.91 83.2432 128.305 83.0786C128.352 83.0637 128.403 83.0637 128.45 83.0786L146.28 86.4055C146.336 86.4177 146.387 86.4484 146.424 86.4926C146.462 86.5369 146.483 86.5923 146.485 86.6499C146.486 86.7077 146.466 86.7639 146.43 86.8087C146.393 86.8534 146.342 86.8838 146.285 86.8944C145.38 87.1238 118.67 99.3643 104.67 105.849C104.632 105.843 104.596 105.829 104.565 105.809ZM89.0648 99.888C90.5048 100.292 94.2998 101.554 104.565 105.29C108.795 103.34 139.785 89.0691 145.355 86.6948L128.44 83.5375L108.44 91.8524L94.6398 97.5836L90.0898 99.469L89.0648 99.888Z" fill="#231F20"/>
<path d="M104.565 103.245H104.49L93.6548 99.9382C93.6058 99.9237 93.5626 99.8942 93.5312 99.854C93.4998 99.8137 93.4819 99.7647 93.4798 99.7137C93.4773 99.6627 93.4903 99.6121 93.517 99.5685C93.5438 99.5249 93.5831 99.4903 93.6298 99.4693L124.27 86.6603C124.326 86.6362 124.389 86.6336 124.447 86.6529C124.505 86.6722 124.554 86.7121 124.585 86.765L127.775 92.3815C127.788 92.413 127.795 92.4469 127.795 92.4812C127.795 92.5155 127.788 92.5494 127.775 92.581C127.765 92.6147 127.748 92.6458 127.725 92.6717C127.702 92.6977 127.672 92.7179 127.64 92.7306L104.64 103.25C104.615 103.252 104.589 103.25 104.565 103.245ZM94.4598 99.6539L104.55 102.731L127.205 92.3665L124.26 87.1591L94.4598 99.6539Z" fill="#D1D3D4"/>
<path d="M87.3099 22.1508C86.0343 22.4418 84.8391 23.0107 83.8099 23.8168C82.8099 24.5351 81.8099 25.6524 82.1449 26.8096C82.2799 27.2535 82.5949 27.7623 82.3149 28.1314C82.1249 28.3758 81.7699 28.3957 81.4649 28.4406C80.8751 28.5283 80.3209 28.7764 79.8631 29.1576C79.4054 29.5389 79.0618 30.0387 78.8702 30.602C78.6785 31.1653 78.6461 31.7705 78.7766 32.3509C78.9071 32.9314 79.1954 33.4648 79.6099 33.8925C79.0737 33.9226 78.5495 34.0622 78.0696 34.3026C77.5897 34.543 77.1643 34.8791 76.8199 35.2901C76.4754 35.7011 76.2191 36.1782 76.0669 36.6919C75.9147 37.2057 75.8697 37.7451 75.9349 38.2769C76.0472 38.8391 76.2374 39.383 76.4999 39.893C76.9149 40.7559 77.4149 41.6587 77.2699 42.6015C76.2699 42.397 75.3399 43.4494 75.3949 44.467C75.4611 44.9728 75.6501 45.4548 75.9455 45.8712C76.2409 46.2876 76.6337 46.6257 77.0899 46.8562C76.0899 47.0258 75.4849 48.188 75.6499 49.1856C75.8907 50.1826 76.5159 51.0447 77.3899 51.5848C78.4 52.2814 79.5629 52.726 80.7809 52.8814C81.999 53.0368 83.2366 52.8983 84.3899 52.4776C84.49 52.9463 84.7096 53.3813 85.0276 53.7404C85.3455 54.0996 85.7511 54.3707 86.2049 54.5277C87.1184 54.8266 88.0803 54.9501 89.0399 54.8918C90.8299 54.8918 92.7799 54.7322 94.1049 53.5301C94.4049 53.2607 94.6749 52.8268 94.4749 52.4776C94.2299 52.0487 93.4399 52.0437 93.3949 51.5549C94.7357 51.4703 96.0222 50.9951 97.0949 50.1881C97.485 49.9312 97.8169 49.5956 98.0692 49.203C98.3215 48.8105 98.4887 48.3695 98.5599 47.9086C98.5807 47.5377 98.5078 47.1676 98.3479 46.8321C98.1881 46.4965 97.9463 46.2064 97.6449 45.9883C98.3899 45.3349 99.2149 44.3871 98.8199 43.4943C98.4999 42.7661 97.4999 42.2673 97.7099 41.544C98.2522 41.3132 98.7286 40.9519 99.0968 40.4926C99.465 40.0332 99.7134 39.4901 99.8199 38.9116C99.9264 38.3331 99.8876 37.7373 99.707 37.1775C99.5264 36.6176 99.2096 36.1111 98.7849 35.7031C99.4776 35.4489 100.074 34.9864 100.492 34.3796C100.91 33.7727 101.129 33.0514 101.119 32.3151C101.108 31.5789 100.869 30.864 100.434 30.2692C99.999 29.6744 99.3896 29.2289 98.6899 28.9943C98.9315 28.5996 99.063 28.1476 99.0706 27.6852C99.0782 27.2227 98.9618 26.7667 98.7333 26.3642C98.5048 25.9618 98.1726 25.6276 97.7712 25.3963C97.3697 25.1651 96.9135 25.0451 96.4499 25.0488C96.6432 24.7252 96.7038 24.3396 96.619 23.9725C96.5343 23.6054 96.3107 23.2852 95.9949 23.0786C95.3378 22.6938 94.5598 22.5691 93.8149 22.7294C92.5749 22.909 91.7349 23.2581 90.6149 22.7294C89.4949 22.2007 88.5599 21.9164 87.3099 22.1508Z" fill="white"/>
<path d="M88.7998 55.1413C87.8869 55.1838 86.9742 55.0535 86.1098 54.7572C85.664 54.5981 85.2603 54.3397 84.9294 54.0018C84.5984 53.6639 84.349 53.2553 84.1998 52.8069C83.0421 53.188 81.8116 53.2962 80.6049 53.1231C79.3981 52.9501 78.2481 52.5004 77.2448 51.8093C76.3202 51.2287 75.6598 50.3104 75.4048 49.2505C75.3258 48.7769 75.3907 48.2905 75.5912 47.854C75.7917 47.4175 76.1186 47.0509 76.5298 46.8014C76.1439 46.5431 75.8197 46.2032 75.5804 45.8057C75.341 45.4083 75.1923 44.9632 75.1448 44.502C75.1316 44.1737 75.1936 43.8467 75.3262 43.5459C75.4587 43.2451 75.6584 42.9784 75.9098 42.7662C76.0607 42.622 76.2386 42.509 76.4334 42.4337C76.6282 42.3583 76.836 42.3222 77.0448 42.3272C76.9934 41.5906 76.769 40.8764 76.3898 40.2423L76.2748 40.0028C76.0024 39.4724 75.8055 38.9066 75.6898 38.3219C75.6072 37.7548 75.6489 37.1767 75.812 36.6272C75.9752 36.0778 76.2559 35.5703 76.6348 35.1396C77.2635 34.3704 78.1529 33.8576 79.1348 33.6981C78.7858 33.2125 78.5675 32.6456 78.5009 32.0518C78.4343 31.458 78.5215 30.857 78.7543 30.3065C78.9871 29.7559 79.3577 29.2741 79.8305 28.9073C80.3033 28.5405 80.8626 28.3008 81.4548 28.2113H81.5548C81.7998 28.1764 82.0548 28.1465 82.1398 28.0068C82.2248 27.8671 82.1848 27.5978 82.0448 27.2337C82.0048 27.1239 81.9648 27.0192 81.9298 26.9095C81.4998 25.4729 82.8448 24.2359 83.6898 23.6274C84.7444 22.7964 85.9732 22.2133 87.2848 21.9215C88.5498 21.6871 89.5098 21.9664 90.7398 22.535C91.5548 22.9041 92.2148 22.7844 93.0598 22.6248C93.2948 22.5799 93.5348 22.535 93.7948 22.4951C94.603 22.3192 95.4481 22.4603 96.1548 22.8892C96.359 23.0341 96.5322 23.2182 96.6644 23.4305C96.7966 23.6429 96.8851 23.8794 96.9248 24.1262C96.9533 24.3567 96.9276 24.5906 96.8498 24.8095C97.2943 24.8692 97.7183 25.0327 98.0874 25.2867C98.4566 25.5407 98.7605 25.878 98.9743 26.2712C99.1882 26.6644 99.3061 27.1024 99.3183 27.5496C99.3306 27.9968 99.2369 28.4405 99.0448 28.8448C99.7234 29.1282 100.305 29.6016 100.72 30.2077C101.135 30.8139 101.365 31.5268 101.382 32.2605C101.4 32.9942 101.204 33.7173 100.818 34.3424C100.433 34.9674 99.8742 35.4678 99.2098 35.783C99.5921 36.2291 99.8661 36.757 100.011 37.3259C100.155 37.8947 100.166 38.4892 100.043 39.0629C99.9192 39.6367 99.6649 40.1744 99.2993 40.6341C98.9338 41.0939 98.4668 41.4633 97.9348 41.7137C97.9348 41.9731 98.1248 42.2125 98.4348 42.5667C98.6765 42.8014 98.8776 43.0744 99.0298 43.3747C99.3698 44.1478 99.0298 45.0207 98.0298 45.9734C98.296 46.2201 98.5044 46.5224 98.6401 46.8586C98.7758 47.1949 98.8355 47.5569 98.8148 47.9187C98.7413 48.4158 98.564 48.892 98.2944 49.3164C98.0248 49.7409 97.669 50.1041 97.2498 50.3828C96.2623 51.1238 95.0998 51.5979 93.8748 51.7595L94.0498 51.8443C94.312 51.9413 94.5386 52.1151 94.6998 52.3431C94.7939 52.584 94.8036 52.8497 94.7274 53.0968C94.6512 53.344 94.4934 53.5582 94.2798 53.7048C92.9198 54.9368 90.9598 55.1164 89.0448 55.1313L88.7998 55.1413ZM84.3848 52.2433C84.4455 52.2427 84.5043 52.2641 84.5503 52.3036C84.5963 52.3431 84.6263 52.3979 84.6348 52.4578C84.7249 52.8834 84.9251 53.2782 85.2154 53.6028C85.5057 53.9274 85.8761 54.1707 86.2898 54.3083C87.173 54.5957 88.1026 54.7142 89.0298 54.6575C90.8448 54.6575 92.6948 54.4779 93.9348 53.3606C94.1698 53.1461 94.3748 52.8219 94.2548 52.6124C94.1381 52.477 93.9882 52.3739 93.8198 52.3131C93.5348 52.1785 93.1798 52.0039 93.1398 51.5949C93.1357 51.528 93.1571 51.462 93.1998 51.4103C93.2214 51.3843 93.248 51.363 93.2781 51.3475C93.3082 51.3321 93.3411 51.3229 93.3748 51.3205C94.6668 51.2396 95.9065 50.7817 96.9398 50.0037C97.4398 49.6396 98.2348 48.8864 98.3048 47.9038C98.3234 47.576 98.2589 47.2488 98.1174 46.9524C97.9758 46.656 97.7617 46.4 97.4948 46.2079C97.4639 46.1864 97.4383 46.1582 97.4201 46.1253C97.4019 46.0925 97.3916 46.0558 97.3898 46.0183C97.3873 45.9807 97.3936 45.9431 97.4084 45.9084C97.4232 45.8738 97.4459 45.8431 97.4748 45.8188C98.4748 44.9459 98.8498 44.1977 98.5848 43.5942C98.4527 43.3461 98.2842 43.1192 98.0848 42.9208C97.7248 42.5317 97.3148 42.0878 97.4748 41.4942C97.4848 41.4576 97.5031 41.4237 97.5282 41.3952C97.5534 41.3667 97.5847 41.3443 97.6198 41.3296C98.1241 41.115 98.5673 40.7791 98.9097 40.3519C99.2521 39.9247 99.4832 39.4196 99.5822 38.8816C99.6813 38.3437 99.6452 37.7896 99.4773 37.2689C99.3093 36.7483 99.0148 36.2772 98.6198 35.8978C98.5889 35.8679 98.5658 35.8309 98.5527 35.79C98.5396 35.7491 98.5369 35.7055 98.5448 35.6633C98.555 35.6227 98.5749 35.5852 98.6027 35.5539C98.6306 35.5227 98.6656 35.4986 98.7048 35.4838C99.3496 35.248 99.9051 34.8183 100.295 34.2541C100.684 33.6898 100.888 33.0188 100.879 32.3337C100.87 31.6487 100.647 30.9835 100.242 30.43C99.8378 29.8765 99.2708 29.462 98.6198 29.2438C98.5843 29.2323 98.5518 29.2129 98.5249 29.1869C98.4981 29.161 98.4775 29.1293 98.4648 29.0942C98.4477 29.061 98.4388 29.0242 98.4388 28.9869C98.4388 28.9496 98.4477 28.9129 98.4648 28.8797C98.6805 28.5244 98.798 28.1184 98.8051 27.7031C98.8123 27.2878 98.709 26.8781 98.5057 26.5156C98.3025 26.1531 98.0065 25.8508 97.648 25.6396C97.2894 25.4284 96.8812 25.3158 96.4648 25.3133C96.4181 25.3128 96.3724 25.2996 96.3327 25.2749C96.293 25.2503 96.2609 25.2153 96.2398 25.1736C96.2202 25.1313 96.2122 25.0845 96.2166 25.0381C96.221 24.9917 96.2377 24.9472 96.2648 24.9093C96.3386 24.8084 96.3909 24.6935 96.4185 24.5717C96.446 24.4499 96.4481 24.3237 96.4248 24.201C96.3641 23.8384 96.1629 23.5142 95.8648 23.2982C95.2617 22.9455 94.546 22.8366 93.8648 22.9939C93.6098 23.0288 93.3648 23.0737 93.1498 23.1136C92.2548 23.2832 91.4848 23.4279 90.5248 22.9839C89.3898 22.4602 88.5248 22.2008 87.3698 22.4103C86.1318 22.6933 84.9723 23.247 83.9748 24.0314C83.3848 24.4604 82.0498 25.5827 82.4048 26.7698C82.4348 26.8646 82.4698 26.9593 82.5098 27.0591C82.6171 27.2489 82.6726 27.4635 82.6709 27.6814C82.6691 27.8993 82.6101 28.113 82.4998 28.3011C82.3824 28.4243 82.2413 28.5227 82.085 28.5904C81.9286 28.6581 81.7602 28.6937 81.5898 28.6951H81.4898C80.9464 28.7779 80.4362 29.0079 80.0149 29.3603C79.5937 29.7126 79.2776 30.1736 79.1011 30.693C78.9246 31.2123 78.8946 31.7701 79.0143 32.3053C79.134 32.8406 79.3988 33.3327 79.7798 33.728C79.8142 33.7628 79.8373 33.807 79.8462 33.855C79.8551 33.903 79.8494 33.9526 79.8298 33.9973C79.8098 34.0416 79.7775 34.0792 79.7367 34.1057C79.696 34.1322 79.6485 34.1465 79.5998 34.147C79.101 34.177 78.6134 34.308 78.167 34.5321C77.7206 34.7562 77.3246 35.0687 77.0032 35.4505C76.6817 35.8323 76.4417 36.2753 76.2975 36.7527C76.1534 37.2301 76.1082 37.7318 76.1648 38.2271C76.2793 38.7658 76.4677 39.2861 76.7248 39.7734L76.8398 40.0078C77.2448 40.8358 77.6648 41.6938 77.5198 42.6265C77.5152 42.6599 77.5034 42.6918 77.4853 42.7202C77.4672 42.7486 77.4431 42.7728 77.4148 42.7911C77.3869 42.811 77.3552 42.8248 77.3216 42.8317C77.288 42.8386 77.2533 42.8384 77.2198 42.831C77.0417 42.8 76.8588 42.8104 76.6853 42.8615C76.5119 42.9125 76.3526 43.0028 76.2198 43.1253C76.0303 43.2868 75.8792 43.4883 75.7771 43.7151C75.6751 43.942 75.6248 44.1886 75.6298 44.4371C75.6914 44.902 75.8669 45.3445 76.1407 45.7255C76.4146 46.1066 76.7783 46.4144 77.1998 46.6219C77.2452 46.6473 77.2814 46.6863 77.3035 46.7333C77.3256 46.7803 77.3325 46.833 77.3231 46.884C77.3137 46.9351 77.2887 46.982 77.2513 47.0181C77.214 47.0543 77.1663 47.0779 77.1148 47.0858C76.2398 47.2354 75.7448 48.2878 75.8848 49.1308C76.1169 50.0599 76.7036 50.8617 77.5198 51.3654C78.4942 52.0464 79.6194 52.4819 80.7992 52.6348C81.979 52.7877 83.1784 52.6534 84.2948 52.2433C84.3246 52.2385 84.355 52.2385 84.3848 52.2433Z" fill="#231F20"/>
<path d="M100.9 53.5049C100.9 53.5049 115.285 71.9603 116.14 72.0651C116.14 72.0651 131.325 69.9352 132.27 68.4438C133.215 66.9524 134.27 67.3664 134.27 67.3664C134.27 67.3664 135.2 65.5708 136.37 65.3712C137.54 65.1717 141.2 67.3664 139.07 68.788C136.94 70.2096 118.04 82.0859 115.475 82.3552C107.35 83.1932 99.575 63.7551 100.475 61.1764L100.9 53.5049Z" fill="white"/>
<path d="M115 82.6099C112.58 82.6099 109.97 80.924 107.41 77.6968C102.98 72.1153 99.6447 63.0871 100.255 61.1118L100.66 53.4902C100.662 53.4393 100.68 53.3903 100.711 53.35C100.743 53.3098 100.786 53.2803 100.835 53.2658C100.883 53.251 100.935 53.2513 100.983 53.2664C101.031 53.2815 101.074 53.3109 101.105 53.3506C106.66 60.4784 115.185 71.1726 116.185 71.806C122.015 70.988 131.425 69.312 132.07 68.3145C132.865 67.0575 133.765 67.0176 134.17 67.0874C134.45 66.5886 135.295 65.3117 136.355 65.0922C137.315 64.9077 139.415 66.0399 139.895 67.2221C140.029 67.54 140.036 67.8974 139.915 68.2204C139.793 68.5434 139.551 68.8074 139.24 68.9579C137.61 70.0303 118.24 82.2857 115.53 82.5651C115.354 82.59 115.177 82.605 115 82.6099ZM101.125 54.1786L100.755 61.1617C100.759 61.1831 100.759 61.2052 100.755 61.2266C100.205 62.8028 103.255 71.6414 107.815 77.3776C109.655 79.692 112.48 82.3655 115.49 82.0762C117.935 81.8218 136.24 70.3545 138.99 68.5489C139.49 68.2247 139.635 67.8506 139.455 67.4116C139.05 66.414 137.175 65.4613 136.455 65.586C135.59 65.7506 134.77 67.0026 134.525 67.4715C134.497 67.527 134.449 67.5697 134.39 67.591C134.331 67.6123 134.267 67.6106 134.21 67.5862C134.18 67.5862 133.315 67.277 132.5 68.5838C131.5 70.1301 117.755 72.0754 116.19 72.3148C116.168 72.3197 116.146 72.3197 116.125 72.3148C115.275 72.1951 105.66 60.0095 101.115 54.1836L101.125 54.1786Z" fill="#231F20"/>
<path d="M90.24 48.5272C90.24 48.5272 83.74 45.9035 75.8 52.7021C72.225 55.7348 71.5 59.0518 70 62.4535C71.205 73.8261 75.375 93.4986 75.375 93.4986H102.575C102.575 93.4986 104.77 77.0034 105.575 67.0624C106.075 60.8774 103.24 56.2485 101.77 53.7944C99.25 49.5397 90.24 48.5272 90.24 48.5272Z" fill="#F97794"/>
<path d="M86 49.9937C86.5 50.9464 94.785 72.6041 94.785 72.6041V52.348L86 49.9937Z" fill="#231F20"/>
<path d="M94.7896 72.8537C94.7388 72.854 94.6892 72.8389 94.6472 72.8104C94.6052 72.7819 94.5729 72.7413 94.5546 72.6941C94.4746 72.4796 86.2646 51.0363 85.7796 50.1086C85.7574 50.0654 85.7482 50.0167 85.7533 49.9684C85.7584 49.9201 85.7776 49.8743 85.8083 49.8367C85.8391 49.7991 85.8803 49.7713 85.9267 49.7567C85.9731 49.7421 86.0228 49.7413 86.0696 49.7544L94.8546 52.1038C94.9083 52.1182 94.9557 52.15 94.9892 52.1943C95.0227 52.2386 95.0404 52.2927 95.0396 52.3482V72.6043C95.0404 72.6627 95.0202 72.7195 94.9825 72.7644C94.9449 72.8092 94.8925 72.8391 94.8346 72.8487L94.7896 72.8537ZM86.4396 50.3729C87.6196 53.226 92.8896 66.9529 94.5396 71.2525V52.5377L86.4396 50.3729Z" fill="#231F20"/>
<path d="M98.0448 31.9673L98.4548 33.3439C98.6348 33.9575 99.1648 34.1719 99.3898 34.6807C99.6148 35.1895 99.5348 36.2918 99.5648 36.9153C99.6816 38.4308 99.5738 39.9553 99.2448 41.4394C99.0175 42.4046 98.5128 43.2827 97.7925 43.9658C97.0721 44.6489 96.1676 45.1075 95.1898 45.2851L94.9998 51.4353C94.9998 51.4353 94.9298 54.5827 91.0798 53.9741C89.964 53.7948 88.9126 53.3342 88.0253 52.6358C87.138 51.9375 86.4443 51.0246 86.0098 49.9838L85.9548 42.003C85.9548 41.1501 85.6148 39.549 85.9548 38.7409C86.2948 37.9329 87.7698 37.4341 88.4198 36.6709C89.2871 35.664 89.7906 34.3959 89.8498 33.0696C90.548 33.1009 91.2411 32.9361 91.8501 32.594C92.4591 32.2518 92.9596 31.7461 93.2948 31.1343C93.8527 31.8124 94.6535 32.247 95.5273 32.3457C96.4011 32.4444 97.2791 32.1995 97.9748 31.663L98.0448 31.9673Z" fill="white"/>
<path d="M91.9997 54.3036C91.6646 54.3023 91.3302 54.2739 90.9997 54.2188C89.8396 54.0399 88.7454 53.5653 87.823 52.8409C86.9007 52.1165 86.1813 51.1668 85.7347 50.0838C85.7299 50.0558 85.7299 50.0271 85.7347 49.999L85.6797 41.9884C85.6797 41.739 85.6447 41.4098 85.6147 41.0606C85.5297 40.2126 85.4347 39.25 85.6747 38.6365C85.8897 38.1027 86.4997 37.7087 87.0897 37.3346C87.4925 37.1063 87.8612 36.8225 88.1847 36.4916C89.0183 35.5299 89.5011 34.3152 89.5547 33.045C89.5558 33.012 89.5634 32.9796 89.5772 32.9497C89.5909 32.9197 89.6105 32.8928 89.6347 32.8704C89.6582 32.8457 89.6872 32.827 89.7193 32.8157C89.7515 32.8044 89.7859 32.8009 89.8197 32.8055C90.4699 32.8347 91.1152 32.6809 91.6819 32.3616C92.2487 32.0423 92.714 31.5704 93.0247 30.9999C93.0446 30.9624 93.074 30.9307 93.1099 30.9079C93.1459 30.8852 93.1872 30.8722 93.2297 30.8702C93.2718 30.8674 93.3139 30.875 93.3523 30.8924C93.3907 30.9098 93.4241 30.9365 93.4497 30.97C93.9653 31.5943 94.7034 31.9951 95.5089 32.0881C96.3144 32.1811 97.1247 31.9591 97.7697 31.4688C97.8015 31.4414 97.8397 31.4225 97.8808 31.4138C97.9219 31.4051 97.9645 31.4068 98.0047 31.4189C98.0439 31.4317 98.0794 31.4539 98.1081 31.4834C98.1369 31.5129 98.158 31.549 98.1697 31.5885L98.2647 31.9027L98.6747 33.2794C98.7684 33.5352 98.9228 33.7645 99.1247 33.9478C99.3288 34.1286 99.4982 34.3449 99.6247 34.5862C99.8038 35.1566 99.8684 35.7567 99.8147 36.352C99.8147 36.5565 99.8147 36.746 99.8147 36.9106C99.936 38.4512 99.8264 40.0012 99.4897 41.5095C99.2525 42.4841 98.748 43.3737 98.0327 44.0784C97.3174 44.7832 96.4195 45.2754 95.4397 45.4999L95.2497 51.4505C95.227 51.862 95.1224 52.2648 94.9422 52.6356C94.7619 53.0064 94.5095 53.3377 94.1997 53.6103C93.5739 54.098 92.7927 54.3441 91.9997 54.3036ZM86.2547 49.9491C86.6833 50.934 87.3528 51.7958 88.2019 52.4555C89.051 53.1152 90.0526 53.5517 91.1147 53.725C92.3097 53.9196 93.2397 53.725 93.8697 53.2262C94.3846 52.7641 94.6985 52.1199 94.7447 51.4306L94.9397 45.2605C94.9424 45.2007 94.9659 45.1436 95.006 45.0991C95.0461 45.0545 95.1004 45.0252 95.1597 45.0161C96.0856 44.85 96.9426 44.4171 97.625 43.771C98.3073 43.1249 98.7852 42.2937 98.9997 41.3798C99.3249 39.9188 99.4294 38.4174 99.3097 36.9256C99.3097 36.756 99.3097 36.5565 99.3097 36.342C99.3563 35.8188 99.3071 35.2914 99.1647 34.7857C99.0667 34.5996 98.9383 34.431 98.7847 34.287C98.5257 34.0491 98.3299 33.7509 98.2147 33.419L97.8097 32.0623C97.1117 32.4931 96.2891 32.6781 95.4734 32.5877C94.6576 32.4973 93.8958 32.1367 93.3097 31.5635C92.944 32.0878 92.4586 32.5177 91.8935 32.8178C91.3284 33.1179 90.6998 33.2795 90.0597 33.2894C89.9392 34.5814 89.4144 35.8029 88.5597 36.7809C88.2177 37.1695 87.8201 37.5057 87.3797 37.7785C86.8797 38.1127 86.3147 38.4569 86.1597 38.8459C86.0121 39.5675 86.0019 40.3103 86.1297 41.0357C86.1647 41.3948 86.1997 41.739 86.1997 42.0333L86.2547 49.9491Z" fill="#231F20"/>
<path d="M88.0898 38.8304C88.0898 38.8304 86.3198 34.5008 84.0898 37.1245C81.8598 39.7482 84.8948 42.8008 86.8048 42.6113" fill="white"/>
<path d="M86.6246 42.866C85.4796 42.866 84.1246 41.9482 83.4596 40.6863C83.1281 40.0996 82.9922 39.423 83.0713 38.7542C83.1503 38.0853 83.4404 37.4589 83.8996 36.9652C84.5046 36.2569 85.1446 35.9676 85.8046 36.0524C87.3046 36.2919 88.2796 38.6362 88.3046 38.736C88.3209 38.7667 88.3306 38.8005 88.3331 38.8351C88.3356 38.8698 88.3307 38.9046 88.3189 38.9373C88.3071 38.9701 88.2886 38.9999 88.2645 39.0251C88.2404 39.0502 88.2114 39.0701 88.1792 39.0833C88.1469 39.0966 88.1123 39.103 88.0775 39.1022C88.0426 39.1013 88.0083 39.0932 87.9768 39.0783C87.9453 39.0634 87.9173 39.0422 87.8945 39.0159C87.8717 38.9895 87.8547 38.9588 87.8446 38.9255C87.8446 38.9255 86.9346 36.7408 85.7096 36.5462C85.2346 36.4714 84.7496 36.7208 84.2646 37.2894C83.8728 37.7091 83.6252 38.2424 83.5578 38.8119C83.4904 39.3815 83.6066 39.9576 83.8896 40.4568C84.4946 41.604 85.7796 42.452 86.7646 42.3622C86.8309 42.3556 86.8971 42.3755 86.9487 42.4176C87.0002 42.4597 87.0329 42.5205 87.0396 42.5867C87.0462 42.6528 87.0262 42.7189 86.984 42.7703C86.9418 42.8218 86.8809 42.8544 86.8146 42.861C86.7514 42.8669 86.6879 42.8686 86.6246 42.866Z" fill="#231F20"/>
<path d="M96.15 41.5342C95.7086 41.5244 95.2701 41.459 94.845 41.3397C94.7787 41.3205 94.7228 41.2758 94.6895 41.2155C94.6562 41.1551 94.6483 41.0841 94.6675 41.0179C94.6868 40.9518 94.7315 40.896 94.792 40.8628C94.8525 40.8296 94.9237 40.8217 94.99 40.8409C95.32 40.9406 96.285 41.1451 96.78 40.9057C96.895 40.6563 96.125 39.1649 95.11 37.7384C95.0726 37.6838 95.0579 37.6168 95.0691 37.5516C95.0803 37.4865 95.1165 37.4282 95.17 37.3892C95.1969 37.3701 95.2273 37.3564 95.2595 37.3491C95.2917 37.3417 95.325 37.3408 95.3575 37.3464C95.3901 37.3519 95.4212 37.3639 95.4491 37.3815C95.477 37.3991 95.5011 37.4221 95.52 37.449C95.975 38.0975 97.455 40.2623 97.25 41.0404C97.2324 41.1072 97.2011 41.1696 97.1581 41.2237C97.1151 41.2778 97.0612 41.3224 97 41.3546C96.7333 41.4759 96.4431 41.5372 96.15 41.5342Z" fill="#231F20"/>
<path d="M94.6198 43.3992C94.2602 43.3998 93.902 43.3528 93.5548 43.2596C92.5075 42.9613 91.6014 42.2998 90.9998 41.3941C90.9867 41.3637 90.9798 41.3309 90.9795 41.2978C90.9792 41.2647 90.9855 41.2319 90.9981 41.2012C91.0107 41.1706 91.0292 41.1428 91.0527 41.1193C91.0762 41.0959 91.1041 41.0774 91.1348 41.0649C91.1959 41.0414 91.2638 41.0422 91.3243 41.0673C91.3848 41.0924 91.4333 41.1397 91.4598 41.1995C92.0194 41.9865 92.8391 42.5516 93.7748 42.7957C94.9798 43.095 96.2398 42.7508 97.5148 41.7981C97.5674 41.7625 97.6318 41.7482 97.6946 41.7583C97.7574 41.7683 97.8141 41.8019 97.8529 41.8521C97.8918 41.9023 97.9101 41.9655 97.9039 42.0287C97.8977 42.0919 97.8676 42.1503 97.8198 42.1921C96.9177 42.939 95.7915 43.3638 94.6198 43.3992Z" fill="#231F20"/>
<path d="M95.1898 45.2847C95.1898 45.2847 91.8848 45.594 90.0098 45.0503C90.0098 45.0503 91.9198 49.9634 95.0498 50.0383L95.1898 45.2847Z" fill="#231F20"/>
<path d="M95.0497 50.2881C91.7897 50.2083 89.8597 45.35 89.7797 45.1405C89.7627 45.0978 89.7583 45.0511 89.7672 45.006C89.776 44.9609 89.7977 44.9193 89.8297 44.8861C89.8615 44.8519 89.902 44.8269 89.9469 44.8138C89.9917 44.8006 90.0394 44.7997 90.0847 44.8113C91.8897 45.3351 95.1397 45.0408 95.1747 45.0358C95.2095 45.0332 95.2445 45.0381 95.2773 45.0502C95.31 45.0622 95.3398 45.0811 95.3647 45.1056C95.3922 45.1286 95.4138 45.1577 95.4277 45.1907C95.4416 45.2237 95.4475 45.2595 95.4447 45.2951L95.3047 50.0437C95.304 50.0765 95.2969 50.1088 95.2838 50.1388C95.2706 50.1688 95.2516 50.1959 95.2279 50.2186C95.2043 50.2413 95.1763 50.2591 95.1457 50.271C95.1152 50.283 95.0825 50.2888 95.0497 50.2881ZM90.4397 45.4099C90.9747 46.5571 92.5597 49.515 94.8097 49.7694L94.9347 45.5545C93.4359 45.6861 91.9268 45.6375 90.4397 45.4099Z" fill="#231F20"/>
<path d="M93.1341 37.9886C93.4019 37.9833 93.6114 37.5994 93.602 37.1312C93.5926 36.663 93.3679 36.2877 93.1001 36.2931C92.8323 36.2984 92.6228 36.6823 92.6322 37.1505C92.6416 37.6187 92.8663 37.994 93.1341 37.9886Z" fill="#231F20"/>
<path d="M97.5921 37.8998C97.8599 37.8944 98.0694 37.5105 98.06 37.0423C98.0506 36.5741 97.8259 36.1988 97.5581 36.2042C97.2903 36.2095 97.0809 36.5934 97.0902 37.0616C97.0996 37.5299 97.3243 37.9051 97.5921 37.8998Z" fill="#231F20"/>
<path d="M91.9999 38.8157C90.5449 38.8157 90.4699 38.7159 90.4049 38.6361C90.3399 38.5563 90.2149 38.3867 90.1699 35.7181C90.1699 35.6537 90.1948 35.5917 90.2396 35.5452C90.2843 35.4987 90.3454 35.4713 90.4099 35.4687C95.2899 35.2293 95.4399 35.2742 95.4899 35.2892C95.543 35.3066 95.5889 35.3409 95.6205 35.3869C95.6521 35.4328 95.6677 35.4879 95.6649 35.5436L95.4649 38.5014C95.46 38.5624 95.4329 38.6194 95.3887 38.6617C95.3444 38.704 95.2861 38.7286 95.2249 38.7309C93.6999 38.7758 92.6749 38.8157 91.9999 38.8157ZM90.7799 38.277C91.2499 38.3368 93.1599 38.3069 94.9549 38.2371L95.1249 35.7431C94.3999 35.7431 92.1999 35.8478 90.6499 35.9227C90.6525 36.7091 90.6959 37.495 90.7799 38.277Z" fill="#231F20"/>
<path d="M101.17 38.7305H96.5597C96.5271 38.7312 96.4947 38.7253 96.4644 38.7134C96.4341 38.7014 96.4065 38.6835 96.3832 38.6607C96.3599 38.638 96.3414 38.6108 96.3288 38.5808C96.3162 38.5508 96.3097 38.5186 96.3097 38.4861L96.2847 35.5233C96.2847 35.458 96.3103 35.3953 96.3561 35.3486C96.4019 35.302 96.4642 35.2752 96.5297 35.2739C101.255 35.229 101.395 35.2739 101.445 35.2739C101.498 35.2913 101.544 35.3256 101.575 35.3716C101.607 35.4175 101.622 35.4726 101.62 35.5282L101.42 38.4861C101.42 38.5186 101.413 38.5508 101.401 38.5808C101.388 38.6108 101.369 38.638 101.346 38.6607C101.323 38.6835 101.295 38.7014 101.265 38.7134C101.235 38.7253 101.202 38.7312 101.17 38.7305ZM96.8097 38.2317H100.94L101.105 35.7377C100.405 35.7377 98.2847 35.7377 96.7847 35.7377L96.8097 38.2317Z" fill="#231F20"/>
<path d="M96.5346 37.0452H95.3896C95.3233 37.0452 95.2598 37.0189 95.2129 36.9721C95.166 36.9254 95.1396 36.8619 95.1396 36.7958C95.1396 36.7296 95.166 36.6662 95.2129 36.6194C95.2598 36.5727 95.3233 36.5464 95.3896 36.5464H96.5346C96.6009 36.5464 96.6645 36.5727 96.7114 36.6194C96.7583 36.6662 96.7846 36.7296 96.7846 36.7958C96.7846 36.8619 96.7583 36.9254 96.7114 36.9721C96.6645 37.0189 96.6009 37.0452 96.5346 37.0452Z" fill="#231F20"/>
<path d="M81.5249 67.0525C81.5249 67.0525 80.1499 80.6098 80.8199 83.8669L103.625 87.0692C103.625 87.0692 109.47 86.8398 112.285 87.8423C114.01 88.4559 117.14 91.1444 116.575 91.9873C116.01 92.8303 114.465 93.8828 113.075 93.4837C111.685 93.0847 107.775 91.8427 107.775 91.8427C107.775 91.8427 110.82 94.5911 108.99 94.4065C107.16 94.2219 105.135 92.94 105.135 92.94C105.135 92.94 92.4649 95.3393 84.3549 94.9352C74.3549 94.4364 70.0999 92.0721 68.9699 86.1714C67.8399 80.2706 69.0349 64.8728 70.0249 62.4536" fill="white"/>
<path d="M86.34 95.2348C85.645 95.2348 84.97 95.2348 84.34 95.1849C74.105 94.6562 69.875 92.227 68.725 86.2065C67.575 80.1861 68.82 64.7284 69.795 62.3441C69.8071 62.3137 69.8251 62.2859 69.8481 62.2626C69.8711 62.2392 69.8986 62.2207 69.9289 62.2082C69.9592 62.1956 69.9918 62.1892 70.0246 62.1895C70.0574 62.1897 70.0899 62.1965 70.12 62.2095C70.1506 62.2215 70.1783 62.2395 70.2018 62.2625C70.2252 62.2854 70.2437 62.3128 70.2563 62.3431C70.2689 62.3733 70.2753 62.4058 70.2751 62.4385C70.2749 62.4713 70.268 62.5036 70.255 62.5337C69.3 64.883 68.095 80.236 69.215 86.1118C70.31 91.8379 74.415 94.1574 84.365 94.6711C92.365 95.0801 104.965 92.7208 105.09 92.6759C105.152 92.6649 105.216 92.6773 105.27 92.7108C105.27 92.7108 107.27 93.9578 109.015 94.1374C109.12 94.1676 109.23 94.1676 109.335 94.1374C109.39 93.9129 108.575 92.9004 107.61 92.0325C107.566 91.9941 107.537 91.9417 107.528 91.8844C107.519 91.827 107.53 91.7682 107.56 91.7182C107.589 91.669 107.634 91.6312 107.688 91.6112C107.742 91.5913 107.801 91.5903 107.855 91.6085C107.89 91.6085 111.755 92.8605 113.14 93.2396C114.395 93.5837 115.855 92.626 116.385 91.833C116.403 91.7887 116.413 91.7412 116.413 91.6933C116.413 91.6454 116.403 91.5979 116.385 91.5536C116.06 90.556 113.69 88.5609 112.225 88.0621C109.485 87.0645 103.725 87.3039 103.66 87.3039L80.81 84.1016C80.7586 84.0943 80.7107 84.0711 80.673 84.0353C80.6354 83.9996 80.6099 83.953 80.6 83.9021C79.93 80.645 81.245 67.5665 81.3 67.0129C81.3033 66.9801 81.313 66.9483 81.3286 66.9193C81.3442 66.8903 81.3654 66.8647 81.3909 66.8438C81.4164 66.823 81.4458 66.8074 81.4774 66.7979C81.509 66.7883 81.5422 66.7851 81.575 66.7884C81.6078 66.7917 81.6397 66.8014 81.6688 66.8169C81.6979 66.8325 81.7236 66.8536 81.7445 66.8791C81.7654 66.9046 81.781 66.9339 81.7905 66.9654C81.8001 66.9969 81.8033 67.03 81.8 67.0628C81.8 67.1924 80.485 80.1661 81.06 83.6328L103.69 86.8101C103.885 86.8101 109.57 86.5856 112.4 87.5932C113.9 88.1269 116.46 90.1869 116.865 91.399C116.913 91.5127 116.934 91.636 116.925 91.7591C116.916 91.8822 116.879 92.0015 116.815 92.1073C116.185 93.05 114.52 94.1374 113.02 93.7234C112.075 93.459 109.985 92.8056 108.73 92.4066C109.36 93.07 110 93.903 109.795 94.3519C109.685 94.5963 109.41 94.6961 108.98 94.6512C107.606 94.4268 106.289 93.9354 105.105 93.2047C104 93.4191 93.925 95.2348 86.34 95.2348Z" fill="#231F20"/>
<path d="M81.5246 67.3021H81.4996C81.4344 67.2899 81.3765 67.2529 81.3383 67.1989C81.3 67.1449 81.2843 67.0782 81.2946 67.0128L83.0796 57.1167C83.0915 57.0506 83.1293 56.9919 83.1846 56.9535C83.2399 56.9152 83.3082 56.9003 83.3746 56.9122C83.4409 56.9241 83.4997 56.9618 83.5381 57.017C83.5766 57.0722 83.5915 57.1404 83.5796 57.2065L81.7996 67.1026C81.7864 67.1638 81.751 67.218 81.7003 67.2548C81.6495 67.2916 81.587 67.3084 81.5246 67.3021Z" fill="#231F20"/>
<path d="M117.75 102.492V66.5436C117.75 66.5436 148.87 65.3515 161.75 52.4976V89.6528C161.75 89.6528 148.87 100.128 117.75 102.492Z" fill="#F97794"/>
<path d="M117.75 102.741C117.687 102.74 117.627 102.717 117.58 102.676C117.555 102.652 117.535 102.624 117.521 102.592C117.508 102.56 117.5 102.526 117.5 102.492V66.5434C117.5 66.4789 117.525 66.417 117.57 66.3705C117.614 66.324 117.675 66.2966 117.74 66.294C118.05 66.294 148.91 64.9572 161.56 52.3277C161.596 52.2938 161.641 52.2707 161.69 52.261C161.738 52.2513 161.789 52.2554 161.835 52.2728C161.881 52.2919 161.921 52.3244 161.949 52.3662C161.976 52.408 161.991 52.4572 161.99 52.5073V89.6526C161.991 89.6902 161.982 89.7274 161.966 89.7612C161.949 89.795 161.925 89.8244 161.895 89.8471C161.77 89.9519 148.61 100.402 117.77 102.761L117.75 102.741ZM118 66.7778V102.222C147.15 99.9378 160.275 90.4357 161.5 89.5129V53.1008C149.065 64.8924 120.9 66.6332 118 66.7778Z" fill="#231F20"/>
<path d="M53.395 115.8V91.1494C53.395 91.1494 67.22 100.262 87.895 98.2323V122.284C87.895 122.284 74.355 126.369 53.395 115.8Z" fill="white"/>
<path d="M80.6845 123.277C74.6245 123.277 65.0945 121.98 53.2795 116.024C53.2391 116.002 53.2053 115.97 53.1816 115.93C53.1578 115.891 53.1451 115.846 53.1445 115.8V91.1492C53.1449 91.1045 53.1572 91.0606 53.18 91.0221C53.2028 90.9835 53.2354 90.9517 53.2745 90.9297C53.3129 90.9064 53.3571 90.894 53.402 90.894C53.447 90.894 53.4911 90.9064 53.5295 90.9297C53.6695 91.0195 67.5295 99.9729 87.8645 97.9727C87.8986 97.9695 87.933 97.9731 87.9656 97.9834C87.9983 97.9937 88.0285 98.0104 88.0545 98.0326C88.0795 98.0565 88.0995 98.0851 88.1132 98.1168C88.1269 98.1485 88.1342 98.1826 88.1345 98.2172V122.269C88.1349 122.322 88.118 122.374 88.0865 122.418C88.055 122.461 88.0105 122.493 87.9595 122.509C87.8995 122.528 85.2995 123.277 80.6845 123.277ZM53.6445 115.65C72.9095 125.317 85.9795 122.499 87.6445 122.08V98.4915C69.1745 100.222 56.0345 93.0047 53.6445 91.5832V115.65Z" fill="#231F20"/>
<path d="M125 95.863C124.937 95.863 124.877 95.8399 124.83 95.7981C124.805 95.7742 124.785 95.7456 124.771 95.7139C124.758 95.6822 124.75 95.6481 124.75 95.6136V70.0054C124.75 69.9434 124.773 69.8834 124.814 69.8373C124.856 69.7912 124.913 69.7622 124.975 69.756C126.58 69.6014 132.785 68.8582 132.85 68.8532C132.885 68.8492 132.92 68.8525 132.954 68.8628C132.987 68.8731 133.018 68.8902 133.045 68.913C133.072 68.9357 133.093 68.964 133.108 68.9959C133.123 69.0278 133.13 69.0625 133.13 69.0976V94.217C133.13 94.2662 133.115 94.3143 133.087 94.3551C133.06 94.3959 133.021 94.4277 132.975 94.4464C130.665 95.444 125.245 95.848 125.015 95.863H125ZM125.25 70.2299V95.3442C126.36 95.2495 130.61 94.8454 132.63 94.0524V69.3819C131.435 69.5216 126.885 70.0603 125.235 70.2299H125.25Z" fill="#231F20"/>
<path d="M137.745 93.2442C137.686 93.244 137.629 93.2228 137.585 93.1843C137.557 93.1605 137.535 93.1314 137.52 93.0988C137.505 93.0662 137.496 93.0308 137.495 92.9948V73.1177C137.495 73.0588 137.516 73.0019 137.555 72.9572C137.593 72.9125 137.646 72.8828 137.705 72.8733C140.381 72.3924 143.002 71.6455 145.53 70.6437C145.566 70.6241 145.606 70.6138 145.647 70.6138C145.688 70.6138 145.729 70.6241 145.765 70.6437C145.799 70.6671 145.826 70.6984 145.846 70.7349C145.865 70.7714 145.875 70.812 145.875 70.8532V90.3063C145.874 90.3516 145.861 90.396 145.838 90.4347C145.814 90.4734 145.78 90.5049 145.74 90.5257C143.232 91.8062 140.553 92.7216 137.785 93.2442H137.745ZM137.995 73.3272V92.6955C140.557 92.1786 143.039 91.3231 145.375 90.1516V71.2473C142.986 72.167 140.517 72.8633 138 73.3272H137.995Z" fill="#231F20"/>
<path d="M150.13 88.78C150.074 88.7811 150.02 88.7636 149.975 88.7301C149.945 88.7061 149.921 88.6757 149.905 88.6412C149.888 88.6067 149.88 88.5689 149.88 88.5306V74.4147C149.88 74.3594 149.899 74.3059 149.934 74.2626C149.968 74.2192 150.016 74.1885 150.07 74.1753C152.554 73.5513 154.919 72.5252 157.07 71.1376C157.109 71.1143 157.154 71.1021 157.2 71.1021C157.246 71.1021 157.291 71.1143 157.33 71.1376C157.371 71.1589 157.405 71.1911 157.429 71.2307C157.453 71.2704 157.465 71.3158 157.465 71.3621V85.6376C157.465 85.6793 157.454 85.7204 157.434 85.757C157.414 85.7936 157.385 85.8246 157.35 85.8471C155.116 87.1654 152.705 88.1581 150.19 88.795L150.13 88.78ZM150.38 74.6092V88.2114C152.687 87.5988 154.902 86.6812 156.965 85.483V71.801C154.919 73.053 152.701 73.9991 150.38 74.6092Z" fill="#231F20"/>
<path d="M147.66 65.2769C147.593 65.2848 147.527 65.2661 147.474 65.225C147.422 65.1838 147.388 65.1235 147.38 65.0574C147.372 64.9912 147.39 64.9247 147.432 64.8723C147.473 64.8199 147.533 64.786 147.6 64.7781C147.655 64.7781 153.335 63.2817 157.6 60.0694C157.653 60.031 157.72 60.0147 157.785 60.024C157.85 60.0333 157.909 60.0675 157.95 60.1193C157.99 60.1722 158.007 60.2387 157.997 60.3042C157.988 60.3697 157.953 60.4288 157.9 60.4685C153.54 63.7605 147.77 65.2469 147.715 65.2619L147.66 65.2769Z" fill="white"/>
<path d="M151.965 66.5783C151.898 66.5915 151.829 66.5779 151.773 66.5405C151.717 66.5031 151.678 66.4449 151.665 66.3788C151.651 66.3126 151.665 66.2439 151.702 66.1878C151.74 66.1317 151.798 66.0927 151.865 66.0795L152.74 65.6904C154.488 65.0203 156.125 64.094 157.6 62.9421C157.651 62.9082 157.713 62.8942 157.773 62.9029C157.834 62.9116 157.89 62.9423 157.929 62.9891C157.969 63.036 157.99 63.0957 157.988 63.157C157.986 63.2182 157.962 63.2766 157.92 63.3212C156.409 64.5024 154.733 65.4554 152.945 66.1493L152.07 66.5334C152.038 66.5557 152.002 66.571 151.965 66.5783Z" fill="white"/>
<path d="M46.19 83.5278C46.1405 83.5275 46.0921 83.5137 46.05 83.4879C43.5423 81.7359 41.3311 79.5958 39.5 77.1482C39.4623 77.095 39.4469 77.0292 39.4572 76.9649C39.4675 76.9006 39.5026 76.8429 39.555 76.804C39.6091 76.7661 39.6758 76.7507 39.7411 76.7609C39.8064 76.7711 39.8651 76.8063 39.905 76.8589C41.7004 79.2562 43.8676 81.3526 46.325 83.0689C46.3801 83.1064 46.4183 83.1639 46.4314 83.2292C46.4445 83.2945 46.4314 83.3623 46.395 83.418C46.3723 83.4515 46.3418 83.479 46.3061 83.4981C46.2703 83.5172 46.2305 83.5274 46.19 83.5278Z" fill="#D1D3D4"/>
<path d="M46.19 88.1118C46.1405 88.1115 46.0921 88.0977 46.05 88.0719C43.5423 86.3199 41.3311 84.1798 39.5 81.7322C39.4623 81.679 39.4469 81.6132 39.4572 81.5489C39.4675 81.4846 39.5026 81.4268 39.555 81.388C39.6091 81.3501 39.6758 81.3346 39.7411 81.3449C39.8064 81.3551 39.8651 81.3902 39.905 81.4429C41.7 83.842 43.8672 85.94 46.325 87.6579C46.3801 87.6953 46.4183 87.7529 46.4314 87.8182C46.4445 87.8835 46.4314 87.9512 46.395 88.007C46.3717 88.0396 46.341 88.0661 46.3053 88.0843C46.2696 88.1026 46.2301 88.112 46.19 88.1118Z" fill="#D1D3D4"/>
<path d="M46.19 92.6957C46.1405 92.6955 46.0921 92.6817 46.05 92.6558C43.5423 90.9039 41.3311 88.7637 39.5 86.3161C39.4623 86.263 39.4469 86.1972 39.4572 86.1329C39.4675 86.0686 39.5026 86.0108 39.555 85.972C39.6091 85.9341 39.6758 85.9186 39.7411 85.9289C39.8064 85.9391 39.8651 85.9742 39.905 86.0268C41.6974 88.4234 43.8612 90.5197 46.315 92.2368C46.3701 92.2743 46.4083 92.3319 46.4214 92.3972C46.4345 92.4625 46.4214 92.5302 46.385 92.586C46.3633 92.6182 46.3343 92.6448 46.3005 92.6639C46.2666 92.6829 46.2288 92.6938 46.19 92.6957Z" fill="#D1D3D4"/>
<path d="M138.54 61.1019C138.504 61.1029 138.468 61.0958 138.435 61.0811C138.402 61.0664 138.373 61.0445 138.35 61.0171C133.09 54.9866 122.885 48.8414 122.785 48.7816C122.748 48.7589 122.718 48.7273 122.697 48.6898C122.676 48.6522 122.665 48.6101 122.665 48.5671V32.2914C122.665 32.2252 122.691 32.1618 122.738 32.115C122.785 32.0683 122.848 32.042 122.915 32.042C122.98 32.0433 123.043 32.07 123.09 32.1165C123.137 32.163 123.163 32.2256 123.165 32.2914V48.4274C124.34 49.1457 133.725 54.9567 138.73 60.6928C138.775 60.7395 138.801 60.8021 138.801 60.8674C138.801 60.9327 138.775 60.9954 138.73 61.042C138.676 61.0854 138.608 61.1068 138.54 61.1019Z" fill="#231F20"/>
<path d="M133.03 50.4574C132.856 50.4578 132.684 50.4168 132.53 50.3377C131.64 49.8938 131.39 48.2727 131.125 46.5568C130.935 45.3148 130.735 44.0329 130.295 43.2747C130.257 43.1869 130.196 43.1115 130.117 43.0576C130.038 43.0037 129.945 42.9734 129.85 42.9705C128.46 42.9206 125.545 46.7065 124.53 48.1679C124.489 48.2139 124.434 48.2436 124.373 48.2513C124.312 48.259 124.251 48.2443 124.2 48.2099C124.15 48.1754 124.114 48.1237 124.099 48.0645C124.084 48.0053 124.091 47.9427 124.12 47.8886C124.505 47.3299 127.93 42.4717 129.825 42.4717H129.87C130.049 42.4776 130.224 42.5317 130.375 42.6283C130.526 42.7248 130.649 42.8603 130.73 43.0204C131.23 43.8583 131.42 45.1901 131.62 46.477C131.855 47.9734 132.095 49.5546 132.755 49.8888C132.901 49.9423 133.058 49.9593 133.212 49.9385C133.366 49.9176 133.513 49.8595 133.64 49.7691C134.712 49.1777 135.665 48.3929 136.45 47.4547C137.347 46.4003 138.423 45.5122 139.63 44.831C139.687 44.7987 139.755 44.7905 139.819 44.8083C139.883 44.826 139.937 44.8683 139.97 44.9258C140 44.9842 140.007 45.0522 139.988 45.1155C139.97 45.1788 139.927 45.2324 139.87 45.2649C138.712 45.923 137.68 46.779 136.82 47.7938C135.994 48.7721 134.996 49.5919 133.875 50.213C133.617 50.3618 133.327 50.4457 133.03 50.4574Z" fill="#231F20"/>
<path d="M68.9546 55.6305C68.8883 55.6305 68.8247 55.6042 68.7778 55.5575C68.7309 55.5107 68.7046 55.4473 68.7046 55.3811V41.3001C68.7043 41.2468 68.7211 41.1947 68.7526 41.1517C68.7841 41.1086 68.8286 41.0767 68.8796 41.0607C69.8286 40.7647 70.8001 40.5461 71.7846 40.4073C71.8191 40.4026 71.8543 40.4061 71.8873 40.4174C71.9202 40.4286 71.9501 40.4474 71.9746 40.4721C72.0017 40.4945 72.0235 40.5228 72.0382 40.5547C72.0529 40.5867 72.0602 40.6215 72.0596 40.6567V54.4533C72.0583 54.5191 72.0316 54.5818 71.985 54.6283C71.9384 54.6748 71.8755 54.7015 71.8096 54.7027C71.7433 54.7027 71.6797 54.6765 71.6328 54.6297C71.5859 54.5829 71.5596 54.5195 71.5596 54.4533V40.936C70.7633 41.0669 69.9766 41.2502 69.2046 41.4847V55.3811C69.2046 55.4473 69.1783 55.5107 69.1314 55.5575C69.0845 55.6042 69.0209 55.6305 68.9546 55.6305Z" fill="#231F20"/>
<path d="M80.7849 118.583C80.7354 118.581 80.6878 118.564 80.6478 118.534C80.6079 118.505 80.5773 118.465 80.5599 118.419L75.0599 103.116L68.9999 114.887C68.98 114.924 68.9513 114.956 68.9165 114.979C68.8817 115.003 68.8417 115.017 68.7999 115.022C68.7577 115.026 68.7153 115.018 68.6767 115.001C68.6382 114.983 68.6048 114.956 68.5799 114.922L62.5799 107.096L58.7899 113.097C58.7548 113.151 58.7001 113.191 58.6368 113.206C58.5736 113.222 58.5067 113.213 58.4499 113.181L55.2249 111.241C55.1967 111.225 55.1721 111.203 55.1525 111.177C55.1329 111.151 55.1188 111.121 55.1108 111.089C55.1029 111.058 55.1014 111.025 55.1064 110.993C55.1114 110.96 55.1228 110.93 55.1399 110.902C55.1569 110.874 55.1793 110.849 55.2058 110.829C55.2324 110.81 55.2626 110.796 55.2947 110.788C55.3268 110.78 55.3601 110.778 55.3927 110.783C55.4254 110.788 55.4567 110.8 55.4849 110.817L58.4849 112.623L62.3099 106.507C62.3316 106.473 62.361 106.445 62.3957 106.424C62.4304 106.403 62.4695 106.391 62.5099 106.388C62.5505 106.385 62.5911 106.393 62.6278 106.411C62.6646 106.428 62.6962 106.454 62.7199 106.487L68.7199 114.289L74.8699 102.357C74.8925 102.315 74.9269 102.28 74.969 102.257C75.0111 102.233 75.059 102.222 75.1071 102.226C75.1552 102.229 75.2013 102.246 75.2399 102.274C75.2786 102.303 75.3081 102.342 75.3249 102.387L80.8249 117.665L83.4699 112.079C83.4825 112.047 83.5015 112.018 83.5257 111.994C83.55 111.97 83.579 111.951 83.6109 111.938C83.6429 111.926 83.6771 111.92 83.7114 111.921C83.7457 111.922 83.7794 111.93 83.8104 111.945C83.8414 111.96 83.869 111.981 83.8915 112.007C83.914 112.033 83.9309 112.063 83.9411 112.095C83.9514 112.128 83.9548 112.163 83.9512 112.197C83.9475 112.231 83.9369 112.264 83.9199 112.293L80.9999 118.444C80.9792 118.483 80.9486 118.517 80.9109 118.542C80.8732 118.566 80.8298 118.581 80.7849 118.583Z" fill="#D1D3D4"/>
<path d="M58.5799 113.735C59.0024 113.735 59.3449 113.394 59.3449 112.972C59.3449 112.551 59.0024 112.209 58.5799 112.209C58.1574 112.209 57.8149 112.551 57.8149 112.972C57.8149 113.394 58.1574 113.735 58.5799 113.735Z" fill="white"/>
<path d="M58.5796 113.984C58.3818 113.984 58.1885 113.926 58.024 113.816C57.8596 113.707 57.7314 113.551 57.6557 113.369C57.58 113.186 57.5602 112.986 57.5988 112.792C57.6374 112.599 57.7326 112.421 57.8725 112.281C58.0123 112.142 58.1905 112.047 58.3845 112.008C58.5785 111.97 58.7795 111.99 58.9623 112.065C59.145 112.141 59.3012 112.269 59.411 112.433C59.5209 112.597 59.5796 112.79 59.5796 112.987C59.5796 113.251 59.4742 113.505 59.2867 113.692C59.0991 113.879 58.8448 113.984 58.5796 113.984ZM58.5796 112.458C58.4807 112.458 58.384 112.487 58.3018 112.542C58.2196 112.597 58.1555 112.675 58.1176 112.766C58.0798 112.857 58.0699 112.957 58.0892 113.054C58.1085 113.151 58.1561 113.24 58.226 113.31C58.296 113.379 58.385 113.427 58.482 113.446C58.579 113.465 58.6796 113.455 58.7709 113.418C58.8623 113.38 58.9404 113.316 58.9953 113.234C59.0503 113.152 59.0796 113.056 59.0796 112.957C59.0796 112.825 59.0269 112.698 58.9331 112.604C58.8394 112.511 58.7122 112.458 58.5796 112.458Z" fill="#D1D3D4"/>
<path d="M62.535 107.42C62.9575 107.42 63.3 107.078 63.3 106.657C63.3 106.235 62.9575 105.894 62.535 105.894C62.1125 105.894 61.77 106.235 61.77 106.657C61.77 107.078 62.1125 107.42 62.535 107.42Z" fill="white"/>
<path d="M62.5347 107.67C62.3369 107.67 62.1435 107.611 61.9791 107.501C61.8146 107.392 61.6865 107.236 61.6108 107.054C61.5351 106.871 61.5153 106.671 61.5539 106.477C61.5925 106.284 61.6877 106.106 61.8276 105.967C61.9674 105.827 62.1456 105.732 62.3396 105.693C62.5336 105.655 62.7346 105.675 62.9173 105.75C63.1001 105.826 63.2563 105.954 63.3661 106.118C63.476 106.282 63.5347 106.475 63.5347 106.672C63.5347 106.937 63.4293 107.19 63.2418 107.377C63.0542 107.564 62.7999 107.67 62.5347 107.67ZM62.5347 106.143C62.4358 106.143 62.3391 106.172 62.2569 106.227C62.1747 106.282 62.1106 106.36 62.0727 106.451C62.0349 106.542 62.025 106.643 62.0443 106.739C62.0636 106.836 62.1112 106.925 62.1811 106.995C62.251 107.064 62.3401 107.112 62.4371 107.131C62.5341 107.15 62.6346 107.141 62.726 107.103C62.8174 107.065 62.8955 107.001 62.9504 106.919C63.0053 106.837 63.0347 106.741 63.0347 106.642C63.0347 106.51 62.982 106.383 62.8882 106.289C62.7944 106.196 62.6673 106.143 62.5347 106.143Z" fill="#D1D3D4"/>
<path d="M75.0848 103.255C75.5073 103.255 75.8498 102.913 75.8498 102.492C75.8498 102.07 75.5073 101.729 75.0848 101.729C74.6623 101.729 74.3198 102.07 74.3198 102.492C74.3198 102.913 74.6623 103.255 75.0848 103.255Z" fill="white"/>
<path d="M75.085 103.504C74.8872 103.504 74.6938 103.446 74.5294 103.336C74.3649 103.227 74.2368 103.071 74.1611 102.889C74.0854 102.706 74.0656 102.506 74.1042 102.312C74.1428 102.119 74.238 101.941 74.3779 101.801C74.5177 101.662 74.6959 101.567 74.8899 101.528C75.0838 101.49 75.2849 101.51 75.4676 101.585C75.6504 101.661 75.8066 101.789 75.9164 101.953C76.0263 102.117 76.085 102.31 76.085 102.507C76.085 102.771 75.9796 103.025 75.7921 103.212C75.6045 103.399 75.3502 103.504 75.085 103.504ZM75.085 101.978C74.9861 101.978 74.8894 102.007 74.8072 102.062C74.7249 102.117 74.6609 102.195 74.623 102.286C74.5852 102.377 74.5753 102.477 74.5946 102.574C74.6139 102.671 74.6615 102.76 74.7314 102.83C74.8013 102.899 74.8904 102.947 74.9874 102.966C75.0844 102.985 75.1849 102.976 75.2763 102.938C75.3677 102.9 75.4458 102.836 75.5007 102.754C75.5556 102.672 75.585 102.576 75.585 102.477C75.585 102.345 75.5323 102.218 75.4385 102.124C75.3447 102.031 75.2176 101.978 75.085 101.978Z" fill="#D1D3D4"/>
<path d="M80.785 119.097C81.2075 119.097 81.55 118.755 81.55 118.333C81.55 117.912 81.2075 117.57 80.785 117.57C80.3625 117.57 80.02 117.912 80.02 118.333C80.02 118.755 80.3625 119.097 80.785 119.097Z" fill="white"/>
<path d="M80.7847 119.346C80.5869 119.346 80.3935 119.288 80.2291 119.178C80.0646 119.069 79.9365 118.913 79.8608 118.73C79.7851 118.548 79.7653 118.348 79.8039 118.154C79.8425 117.961 79.9377 117.783 80.0776 117.643C80.2174 117.504 80.3956 117.409 80.5896 117.37C80.7836 117.332 80.9846 117.352 81.1674 117.427C81.3501 117.503 81.5063 117.63 81.6161 117.794C81.726 117.958 81.7847 118.151 81.7847 118.349C81.7847 118.613 81.6793 118.867 81.4918 119.054C81.3042 119.241 81.0499 119.346 80.7847 119.346ZM80.7847 117.82C80.6481 117.82 80.5171 117.874 80.4205 117.97C80.3239 118.067 80.2697 118.197 80.2697 118.334C80.2697 118.47 80.3239 118.601 80.4205 118.697C80.5171 118.793 80.6481 118.847 80.7847 118.847C80.9213 118.847 81.0522 118.793 81.1488 118.697C81.2454 118.601 81.2997 118.47 81.2997 118.334C81.2997 118.197 81.2454 118.067 81.1488 117.97C81.0522 117.874 80.9213 117.82 80.7847 117.82Z" fill="#D1D3D4"/>
<path d="M68.7548 115.535C69.1773 115.535 69.5198 115.193 69.5198 114.772C69.5198 114.35 69.1773 114.009 68.7548 114.009C68.3323 114.009 67.9897 114.35 67.9897 114.772C67.9897 115.193 68.3323 115.535 68.7548 115.535Z" fill="white"/>
<path d="M68.7549 115.785C68.5571 115.785 68.3638 115.726 68.1993 115.617C68.0349 115.507 67.9067 115.351 67.831 115.169C67.7553 114.987 67.7355 114.786 67.7741 114.593C67.8127 114.399 67.9079 114.221 68.0478 114.082C68.1876 113.942 68.3658 113.847 68.5598 113.809C68.7538 113.77 68.9548 113.79 69.1376 113.865C69.3203 113.941 69.4765 114.069 69.5864 114.233C69.6963 114.397 69.7549 114.59 69.7549 114.787C69.7549 115.052 69.6495 115.305 69.462 115.493C69.2745 115.68 69.0201 115.785 68.7549 115.785ZM68.7549 114.258C68.656 114.258 68.5593 114.288 68.4771 114.342C68.3949 114.397 68.3308 114.475 68.2929 114.566C68.2551 114.657 68.2452 114.758 68.2645 114.855C68.2838 114.951 68.3314 115.04 68.4013 115.11C68.4713 115.18 68.5604 115.227 68.6573 115.246C68.7543 115.266 68.8549 115.256 68.9462 115.218C69.0376 115.18 69.1157 115.116 69.1706 115.034C69.2256 114.952 69.2549 114.856 69.2549 114.757C69.2549 114.625 69.2022 114.498 69.1084 114.405C69.0147 114.311 68.8875 114.258 68.7549 114.258Z" fill="#D1D3D4"/>
<path d="M121.355 106.841C111.14 111.884 100 111.969 100 111.969V128.285C107.392 128.517 114.727 126.927 121.355 123.656V106.841Z" fill="white"/>
<path d="M101.315 128.559C100.875 128.559 100.44 128.559 99.995 128.559C99.93 128.556 99.8684 128.529 99.8228 128.483C99.7773 128.436 99.7512 128.374 99.75 128.31V111.969C99.75 111.903 99.7763 111.839 99.8232 111.793C99.8701 111.746 99.9337 111.72 100 111.72C100.11 111.72 111.2 111.575 121.245 106.617C121.283 106.597 121.325 106.587 121.368 106.587C121.41 106.587 121.452 106.597 121.49 106.617C121.525 106.639 121.554 106.67 121.574 106.707C121.594 106.744 121.605 106.785 121.605 106.826V123.641C121.606 123.687 121.594 123.733 121.57 123.773C121.546 123.812 121.512 123.844 121.47 123.865C115.206 126.963 108.307 128.57 101.315 128.559ZM100.25 128.06C107.466 128.248 114.621 126.693 121.105 123.526V107.24C111.895 111.675 101.935 112.158 100.25 112.228V128.06Z" fill="#231F20"/>
<path d="M105 118.843C104.976 119.647 105.115 120.447 105.408 121.197C105.7 121.947 106.14 122.631 106.702 123.208C107.264 123.785 107.937 124.243 108.679 124.557C109.422 124.87 110.221 125.031 111.027 125.031C111.834 125.031 112.632 124.87 113.375 124.557C114.118 124.243 114.79 123.785 115.352 123.208C115.914 122.631 116.354 121.947 116.647 121.197C116.939 120.447 117.078 119.647 117.055 118.843H111V112.832C109.406 112.84 107.881 113.477 106.757 114.603C105.633 115.729 105.001 117.253 105 118.843Z" fill="#F97794"/>
<path d="M112 111.944V117.959H118C118 116.369 117.369 114.844 116.244 113.716C115.12 112.589 113.594 111.952 112 111.944Z" fill="#E6E7E8"/>
<path d="M131.5 107.345C131.441 107.346 131.384 107.326 131.339 107.288C131.295 107.251 131.265 107.199 131.255 107.141C131.243 107.075 131.258 107.008 131.295 106.953C131.332 106.898 131.39 106.86 131.455 106.847C131.575 106.847 143.32 104.652 150.01 100.926C150.039 100.906 150.071 100.892 150.106 100.885C150.141 100.878 150.176 100.878 150.21 100.886C150.245 100.894 150.277 100.909 150.305 100.93C150.333 100.951 150.357 100.978 150.374 101.009C150.391 101.04 150.401 101.074 150.404 101.109C150.407 101.144 150.402 101.179 150.391 101.212C150.379 101.245 150.36 101.275 150.336 101.301C150.312 101.326 150.283 101.346 150.25 101.36C143.49 105.126 131.665 107.32 131.545 107.345H131.5Z" fill="#D1D3D4"/>
<path d="M131.5 111.764C131.433 111.77 131.367 111.75 131.316 111.707C131.265 111.665 131.233 111.604 131.227 111.537C131.221 111.471 131.242 111.406 131.284 111.355C131.327 111.304 131.388 111.272 131.455 111.266C131.575 111.241 143.32 109.066 150.01 105.34C150.038 105.32 150.071 105.306 150.106 105.299C150.14 105.292 150.176 105.292 150.21 105.3C150.244 105.308 150.277 105.323 150.305 105.344C150.333 105.365 150.356 105.392 150.373 105.423C150.39 105.454 150.4 105.488 150.403 105.523C150.406 105.558 150.402 105.593 150.39 105.626C150.378 105.659 150.36 105.689 150.336 105.715C150.311 105.74 150.282 105.761 150.25 105.774C143.49 109.545 131.665 111.735 131.545 111.759L131.5 111.764Z" fill="#D1D3D4"/>
<path d="M131.5 116.184C131.433 116.19 131.367 116.17 131.316 116.127C131.265 116.084 131.233 116.023 131.227 115.957C131.221 115.891 131.242 115.825 131.284 115.774C131.327 115.723 131.388 115.691 131.455 115.685C131.575 115.685 143.32 113.486 150.01 109.76C150.068 109.729 150.135 109.721 150.199 109.739C150.262 109.757 150.316 109.798 150.35 109.854C150.365 109.883 150.375 109.915 150.379 109.948C150.383 109.98 150.38 110.013 150.37 110.045C150.361 110.076 150.346 110.106 150.325 110.131C150.304 110.157 150.279 110.178 150.25 110.194C143.49 113.965 131.665 116.154 131.545 116.179L131.5 116.184Z" fill="#D1D3D4"/>
<path d="M131.5 120.603C131.433 120.609 131.367 120.589 131.316 120.546C131.265 120.504 131.233 120.443 131.227 120.377C131.221 120.31 131.242 120.245 131.284 120.194C131.327 120.143 131.388 120.111 131.455 120.105C134.869 119.444 138.245 118.603 141.57 117.586C141.633 117.567 141.702 117.573 141.761 117.604C141.819 117.635 141.864 117.687 141.885 117.75C141.903 117.813 141.897 117.881 141.866 117.939C141.835 117.997 141.782 118.04 141.72 118.06C138.375 119.079 134.979 119.919 131.545 120.579L131.5 120.603Z" fill="#D1D3D4"/>
<path d="M55.3545 69.3469C55.3113 69.3477 55.2686 69.337 55.2309 69.316C55.1931 69.295 55.1616 69.2643 55.1395 69.2272C55.1065 69.1695 55.0974 69.1012 55.1142 69.0369C55.131 68.9725 55.1724 68.9173 55.2295 68.8831C58.6195 66.8879 65.5495 65.4264 65.8445 65.3666C65.8764 65.3593 65.9094 65.3584 65.9416 65.364C65.9738 65.3696 66.0046 65.3816 66.0321 65.3993C66.0596 65.417 66.0833 65.4399 66.1017 65.4669C66.1202 65.4938 66.133 65.5241 66.1395 65.5561C66.1469 65.5882 66.1478 65.6215 66.1422 65.6539C66.1367 65.6864 66.1247 65.7174 66.107 65.7452C66.0894 65.7731 66.0664 65.7971 66.0393 65.816C66.0123 65.8349 65.9818 65.8483 65.9495 65.8554C65.8745 65.8554 58.7995 67.3518 55.4795 69.317C55.4407 69.3364 55.3979 69.3466 55.3545 69.3469Z" fill="#D1D3D4"/>
<path d="M55.3549 71.851C55.3003 71.8505 55.2474 71.8321 55.2043 71.7988C55.1612 71.7655 55.1302 71.719 55.116 71.6664C55.1018 71.6138 55.1053 71.5581 55.1259 71.5077C55.1464 71.4573 55.1829 71.4149 55.2299 71.3872C58.6199 69.392 65.5499 67.9305 65.8449 67.8956C65.9112 67.8817 65.9803 67.8946 66.037 67.9316C66.0937 67.9685 66.1334 68.0265 66.1474 68.0926C66.1613 68.1587 66.1483 68.2277 66.1113 68.2843C66.0742 68.3409 66.0162 68.3805 65.9499 68.3944C65.8749 68.3944 58.7999 69.8908 55.4799 71.856C55.4385 71.8657 55.3953 71.8639 55.3549 71.851Z" fill="#D1D3D4"/>
<path d="M55.3545 74.3548C55.3109 74.3545 55.2681 74.3429 55.2304 74.321C55.1927 74.2991 55.1613 74.2678 55.1395 74.2301C55.1065 74.1724 55.0974 74.104 55.1142 74.0397C55.131 73.9754 55.1724 73.9202 55.2295 73.8859C58.6195 71.8907 65.5495 70.4293 65.8445 70.3943C65.9094 70.3824 65.9763 70.396 66.0313 70.4323C66.0863 70.4686 66.1251 70.5247 66.1395 70.5889C66.1469 70.6207 66.1477 70.6536 66.1421 70.6857C66.1365 70.7179 66.1244 70.7486 66.1067 70.776C66.089 70.8034 66.066 70.827 66.039 70.8454C66.012 70.8638 65.9816 70.8767 65.9495 70.8832C65.8745 70.8832 58.7995 72.3796 55.4795 74.3448C55.4391 74.357 55.3964 74.3604 55.3545 74.3548Z" fill="#D1D3D4"/>
<path d="M55.3549 76.8543C55.3003 76.8537 55.2474 76.8354 55.2043 76.802C55.1612 76.7687 55.1302 76.7222 55.116 76.6696C55.1018 76.6171 55.1053 76.5613 55.1259 76.5109C55.1464 76.4605 55.1829 76.4182 55.2299 76.3904C57.2187 75.3415 59.3227 74.5264 61.4999 73.9613C61.5662 73.9427 61.6371 73.9512 61.6971 73.9849C61.7572 74.0186 61.8013 74.0747 61.8199 74.1408C61.8384 74.207 61.8299 74.2778 61.7961 74.3376C61.7624 74.3975 61.7062 74.4415 61.6399 74.46C59.5099 75.0111 57.45 75.8026 55.4999 76.8194C55.4566 76.8464 55.4057 76.8586 55.3549 76.8543Z" fill="#D1D3D4"/>
</svg>
