<svg width="200" height="151" viewBox="0 0 200 151" fill="none" xmlns="http://www.w3.org/2000/svg">
<path d="M189.4 107.774H10.6001C10.5391 107.774 10.4806 107.75 10.4375 107.707C10.3943 107.664 10.3701 107.605 10.3701 107.544C10.3714 107.484 10.396 107.426 10.4389 107.383C10.4818 107.34 10.5395 107.316 10.6001 107.314H189.4C189.461 107.316 189.518 107.34 189.561 107.383C189.604 107.426 189.629 107.484 189.63 107.544C189.63 107.605 189.606 107.664 189.563 107.707C189.52 107.75 189.461 107.774 189.4 107.774Z" fill="#D1D3D4"/>
<path d="M156.065 45.5748H70.3601C69.8741 45.5622 69.3913 45.6573 68.9464 45.8532C68.5015 46.0492 68.1055 46.3411 67.7867 46.7081C67.468 47.0752 67.2344 47.5082 67.1027 47.9762C66.971 48.4441 66.9445 48.9354 67.0251 49.4148L75.2251 111.915C75.3804 112.964 75.9016 113.925 76.6966 114.628C77.4916 115.331 78.5093 115.73 79.5701 115.755H165.275C165.761 115.767 166.244 115.672 166.689 115.476C167.134 115.281 167.53 114.989 167.848 114.622C168.167 114.255 168.401 113.821 168.532 113.354C168.664 112.886 168.691 112.394 168.61 111.915L160.41 49.4148C160.255 48.3653 159.734 47.4043 158.939 46.7017C158.143 45.9991 157.126 45.6 156.065 45.5748Z" fill="#231F20"/>
<path d="M165.275 115.98H79.5702C78.457 115.949 77.39 115.528 76.5556 114.79C75.7212 114.053 75.1724 113.046 75.0052 111.945L66.8052 49.4447C66.7259 48.93 66.7591 48.4043 66.9023 47.9037C67.0456 47.4031 67.2957 46.9394 67.6352 46.5447C67.9778 46.1638 68.3987 45.8616 68.8691 45.6588C69.3394 45.456 69.8481 45.3573 70.3602 45.3697H156.065C157.173 45.399 158.236 45.815 159.07 46.5455C159.904 47.276 160.456 48.2751 160.63 49.3697L168.83 111.87C168.91 112.384 168.876 112.91 168.733 113.411C168.59 113.911 168.34 114.375 168 114.77C167.661 115.157 167.241 115.466 166.771 115.675C166.3 115.884 165.79 115.988 165.275 115.98ZM70.3602 45.7947C69.9104 45.7851 69.4638 45.8732 69.0512 46.0527C68.6387 46.2322 68.2699 46.499 67.9702 46.8347C67.6748 47.1807 67.4568 47.586 67.3309 48.0232C67.205 48.4604 67.1741 48.9195 67.2402 49.3697L75.4402 111.87C75.5921 112.865 76.0887 113.776 76.8435 114.443C77.5983 115.11 78.5633 115.491 79.5702 115.52H165.275C165.725 115.529 166.172 115.441 166.584 115.262C166.997 115.082 167.366 114.815 167.665 114.48C167.965 114.132 168.185 113.723 168.311 113.282C168.437 112.841 168.466 112.378 168.395 111.925L160.195 49.4247C160.043 48.4289 159.547 47.518 158.792 46.851C158.037 46.1839 157.072 45.803 156.065 45.7747L70.3602 45.7947Z" fill="#231F20"/>
<path d="M62.825 55.5298H157.325L147.895 111.92C147.693 112.976 147.137 113.932 146.319 114.63C145.501 115.328 144.47 115.727 143.395 115.76H56.605C56.123 115.776 55.6437 115.682 55.2035 115.485C54.7634 115.288 54.3741 114.993 54.0654 114.623C53.7566 114.252 53.5367 113.816 53.4222 113.348C53.3078 112.879 53.3019 112.391 53.405 111.92L62.825 55.5298Z" fill="white"/>
<path d="M143.41 115.99H56.605C56.0974 116.002 55.5934 115.901 55.1291 115.696C54.6649 115.49 54.252 115.184 53.92 114.8C53.5889 114.398 53.3509 113.927 53.2229 113.423C53.095 112.918 53.0803 112.391 53.18 111.88L62.6 55.4947C62.6094 55.4417 62.637 55.3937 62.6781 55.359C62.7192 55.3242 62.7712 55.305 62.825 55.3047H157.325C157.358 55.3052 157.391 55.3126 157.421 55.3264C157.451 55.3401 157.478 55.36 157.5 55.3847C157.52 55.4106 157.535 55.4403 157.544 55.4721C157.552 55.5039 157.555 55.5371 157.55 55.5697L148.12 111.955C147.904 113.059 147.321 114.058 146.466 114.791C145.611 115.523 144.535 115.945 143.41 115.99ZM63 55.7597L53.63 111.955C53.5423 112.4 53.5537 112.86 53.6634 113.3C53.7732 113.741 53.9786 114.152 54.265 114.505C54.5579 114.833 54.9194 115.092 55.3237 115.265C55.7281 115.438 56.1655 115.52 56.605 115.505H143.41C144.428 115.469 145.404 115.088 146.178 114.425C146.952 113.762 147.478 112.856 147.67 111.855L157.045 55.7347L63 55.7597Z" fill="#231F20"/>
<path d="M68.3302 45.5746H155.135C155.617 45.5581 156.097 45.652 156.537 45.849C156.977 46.0461 157.366 46.3411 157.675 46.7116C157.984 47.082 158.204 47.5182 158.318 47.9866C158.432 48.4551 158.438 48.9435 158.335 49.4146L157.335 55.5246H62.8352L63.8352 49.4146C64.036 48.3587 64.5908 47.4029 65.408 46.7048C66.2252 46.0066 67.2559 45.608 68.3302 45.5746Z" fill="#F97794"/>
<path d="M157.315 55.7546H62.815C62.7812 55.7552 62.7478 55.7478 62.7173 55.733C62.6869 55.7182 62.6604 55.6965 62.64 55.6696C62.6172 55.6451 62.6008 55.6155 62.5921 55.5833C62.5833 55.551 62.5826 55.5172 62.59 55.4846L63.59 49.3796C63.8067 48.272 64.3943 47.2712 65.2559 46.5423C66.1175 45.8134 67.2018 45.3997 68.33 45.3696H155.135C155.643 45.3578 156.148 45.4583 156.613 45.664C157.078 45.8697 157.492 46.1755 157.825 46.5596C158.155 46.962 158.392 47.4325 158.519 47.9373C158.647 48.4421 158.66 48.9688 158.56 49.4796L157.56 55.5846C157.547 55.6379 157.515 55.6847 157.47 55.716C157.425 55.7473 157.37 55.761 157.315 55.7546ZM63.095 55.2946H157.125L158.125 49.3796C158.214 48.934 158.203 48.4743 158.093 48.0335C157.983 47.5926 157.777 47.1815 157.49 46.8296C157.197 46.5016 156.836 46.242 156.431 46.0692C156.027 45.8964 155.589 45.8146 155.15 45.8296H68.33C67.3124 45.8668 66.3376 46.2481 65.5647 46.9111C64.7918 47.574 64.2667 48.4795 64.075 49.4796L63.095 55.2946Z" fill="#231F20"/>
<path d="M70.9602 107.369H70.9202C70.8909 107.365 70.8629 107.354 70.8377 107.338C70.8126 107.323 70.7908 107.302 70.7736 107.278C70.7564 107.254 70.7442 107.226 70.7376 107.198C70.731 107.169 70.7302 107.139 70.7352 107.109L78.3052 61.7945C78.3162 61.7347 78.3499 61.6815 78.3993 61.6461C78.4488 61.6106 78.51 61.5957 78.5702 61.6045C78.6296 61.6155 78.6824 61.6494 78.717 61.699C78.7517 61.7486 78.7654 61.8099 78.7552 61.8695L71.1852 107.185C71.1748 107.237 71.1467 107.283 71.1057 107.317C71.0647 107.351 71.0133 107.369 70.9602 107.369Z" fill="#231F20"/>
<path d="M83.6201 107.369H83.5801C83.5504 107.365 83.5218 107.355 83.4961 107.339C83.4704 107.324 83.448 107.304 83.4303 107.279C83.4126 107.255 83.3999 107.228 83.393 107.198C83.3861 107.169 83.3851 107.139 83.3901 107.109L90.9651 61.7943C90.9663 61.7617 90.9744 61.7296 90.989 61.7003C91.0035 61.6711 91.0242 61.6452 91.0495 61.6246C91.0748 61.6039 91.1043 61.5889 91.1359 61.5805C91.1675 61.5721 91.2005 61.5705 91.2327 61.5759C91.265 61.5813 91.2957 61.5934 91.3229 61.6116C91.35 61.6298 91.373 61.6536 91.3903 61.6814C91.4075 61.7091 91.4187 61.7403 91.4229 61.7727C91.4272 61.8051 91.4245 61.838 91.4151 61.8693L83.8401 107.184C83.8307 107.236 83.8036 107.283 83.7635 107.317C83.7233 107.35 83.6726 107.369 83.6201 107.369Z" fill="#231F20"/>
<path d="M96.2752 107.369H96.2402C96.2105 107.365 96.182 107.355 96.1562 107.34C96.1305 107.324 96.1082 107.304 96.0904 107.28C96.0727 107.255 96.0601 107.228 96.0532 107.199C96.0463 107.169 96.0453 107.139 96.0502 107.109L103.62 61.7945C103.631 61.7347 103.665 61.6815 103.714 61.6461C103.764 61.6106 103.825 61.5957 103.885 61.6045C103.915 61.6093 103.943 61.6201 103.969 61.6361C103.995 61.6521 104.017 61.6731 104.034 61.6978C104.051 61.7226 104.063 61.7505 104.069 61.78C104.076 61.8095 104.076 61.8399 104.07 61.8695L96.5002 107.185C96.4898 107.237 96.4618 107.283 96.4207 107.317C96.3797 107.351 96.3283 107.369 96.2752 107.369Z" fill="#231F20"/>
<path d="M108.935 107.369H108.895C108.866 107.365 108.837 107.355 108.812 107.339C108.786 107.324 108.764 107.303 108.747 107.279C108.729 107.255 108.717 107.227 108.711 107.198C108.705 107.169 108.704 107.139 108.71 107.109L116.28 61.7943C116.281 61.7617 116.289 61.7296 116.304 61.7003C116.319 61.6711 116.339 61.6452 116.365 61.6246C116.39 61.6039 116.419 61.5889 116.451 61.5805C116.483 61.5721 116.516 61.5705 116.548 61.5759C116.58 61.5813 116.611 61.5934 116.638 61.6116C116.665 61.6298 116.688 61.6536 116.705 61.6814C116.723 61.7091 116.734 61.7403 116.738 61.7727C116.742 61.8051 116.74 61.838 116.73 61.8693L109.16 107.184C109.15 107.236 109.122 107.283 109.081 107.317C109.04 107.351 108.988 107.369 108.935 107.369Z" fill="#231F20"/>
<path d="M121.59 107.369H121.555C121.525 107.365 121.497 107.355 121.471 107.339C121.445 107.324 121.423 107.304 121.405 107.279C121.388 107.255 121.375 107.228 121.368 107.198C121.361 107.169 121.36 107.139 121.365 107.109L128.94 61.7943C128.941 61.7617 128.95 61.7296 128.964 61.7003C128.979 61.6711 128.999 61.6452 129.025 61.6246C129.05 61.6039 129.079 61.5889 129.111 61.5805C129.143 61.5721 129.176 61.5705 129.208 61.5759C129.24 61.5813 129.271 61.5934 129.298 61.6116C129.325 61.6298 129.348 61.6536 129.365 61.6814C129.383 61.7091 129.394 61.7403 129.398 61.7727C129.402 61.8051 129.4 61.838 129.39 61.8693L121.815 107.184C121.805 107.236 121.777 107.283 121.736 107.317C121.695 107.351 121.643 107.369 121.59 107.369Z" fill="#231F20"/>
<path d="M134.25 107.369H134.21C134.181 107.364 134.153 107.354 134.128 107.338C134.103 107.322 134.081 107.302 134.064 107.278C134.046 107.254 134.034 107.226 134.028 107.197C134.021 107.168 134.02 107.139 134.025 107.109L141.595 61.7943C141.596 61.7617 141.605 61.7296 141.619 61.7003C141.634 61.6711 141.654 61.6452 141.68 61.6246C141.705 61.6039 141.734 61.5889 141.766 61.5805C141.798 61.5721 141.831 61.5705 141.863 61.5759C141.895 61.5813 141.926 61.5934 141.953 61.6116C141.98 61.6298 142.003 61.6536 142.02 61.6814C142.038 61.7091 142.049 61.7403 142.053 61.7727C142.057 61.8051 142.055 61.838 142.045 61.8693L134.5 107.184C134.489 107.241 134.458 107.291 134.411 107.325C134.365 107.36 134.307 107.375 134.25 107.369Z" fill="#231F20"/>
<path d="M70.9602 107.369H70.9202C70.8909 107.365 70.8629 107.354 70.8377 107.338C70.8126 107.323 70.7908 107.302 70.7736 107.278C70.7564 107.254 70.7442 107.226 70.7376 107.198C70.731 107.169 70.7302 107.139 70.7352 107.109L78.3052 61.7945C78.3162 61.7347 78.3499 61.6815 78.3993 61.6461C78.4488 61.6106 78.51 61.5957 78.5702 61.6045C78.6296 61.6155 78.6824 61.6494 78.717 61.699C78.7517 61.7486 78.7654 61.8099 78.7552 61.8695L71.1852 107.185C71.1748 107.237 71.1467 107.283 71.1057 107.317C71.0647 107.351 71.0133 107.369 70.9602 107.369Z" stroke="#D1D3D4" stroke-width="0.9338" stroke-linecap="round" stroke-linejoin="round"/>
<path d="M83.6201 107.369H83.5801C83.5504 107.365 83.5218 107.355 83.4961 107.339C83.4704 107.324 83.448 107.304 83.4303 107.279C83.4126 107.255 83.3999 107.228 83.393 107.198C83.3861 107.169 83.3851 107.139 83.3901 107.109L90.9651 61.7943C90.9663 61.7617 90.9744 61.7296 90.989 61.7003C91.0035 61.6711 91.0242 61.6452 91.0495 61.6246C91.0748 61.6039 91.1043 61.5889 91.1359 61.5805C91.1675 61.5721 91.2005 61.5705 91.2327 61.5759C91.265 61.5813 91.2957 61.5934 91.3229 61.6116C91.35 61.6298 91.373 61.6536 91.3903 61.6814C91.4075 61.7091 91.4187 61.7403 91.4229 61.7727C91.4272 61.8051 91.4245 61.838 91.4151 61.8693L83.8401 107.184C83.8307 107.236 83.8036 107.283 83.7635 107.317C83.7233 107.35 83.6726 107.369 83.6201 107.369V107.369Z" stroke="#D1D3D4" stroke-width="0.9338" stroke-linecap="round" stroke-linejoin="round"/>
<path d="M96.2752 107.369H96.2402C96.2105 107.365 96.182 107.355 96.1562 107.34C96.1305 107.324 96.1082 107.304 96.0904 107.28C96.0727 107.255 96.0601 107.228 96.0532 107.199C96.0463 107.169 96.0453 107.139 96.0502 107.109L103.62 61.7945C103.631 61.7347 103.665 61.6815 103.714 61.6461C103.764 61.6106 103.825 61.5957 103.885 61.6045C103.915 61.6093 103.943 61.6201 103.969 61.6361C103.995 61.6521 104.017 61.6731 104.034 61.6978C104.051 61.7226 104.063 61.7505 104.069 61.78C104.076 61.8095 104.076 61.8399 104.07 61.8695L96.5002 107.185C96.4898 107.237 96.4618 107.283 96.4207 107.317C96.3797 107.351 96.3283 107.369 96.2752 107.369V107.369Z" stroke="#D1D3D4" stroke-width="0.9338" stroke-linecap="round" stroke-linejoin="round"/>
<path d="M108.935 107.369H108.895C108.866 107.365 108.837 107.355 108.812 107.339C108.786 107.324 108.764 107.303 108.747 107.279C108.729 107.255 108.717 107.227 108.711 107.198C108.705 107.169 108.704 107.139 108.71 107.109L116.28 61.7943C116.281 61.7617 116.289 61.7296 116.304 61.7003C116.319 61.6711 116.339 61.6452 116.365 61.6246C116.39 61.6039 116.419 61.5889 116.451 61.5805C116.483 61.5721 116.516 61.5705 116.548 61.5759C116.58 61.5813 116.611 61.5934 116.638 61.6116C116.665 61.6298 116.688 61.6536 116.705 61.6814C116.723 61.7091 116.734 61.7403 116.738 61.7727C116.742 61.8051 116.74 61.838 116.73 61.8693L109.16 107.184C109.15 107.236 109.122 107.283 109.081 107.317C109.04 107.351 108.988 107.369 108.935 107.369V107.369Z" stroke="#D1D3D4" stroke-width="0.9338" stroke-linecap="round" stroke-linejoin="round"/>
<path d="M121.59 107.369H121.555C121.525 107.365 121.497 107.355 121.471 107.339C121.445 107.324 121.423 107.304 121.405 107.279C121.388 107.255 121.375 107.228 121.368 107.198C121.361 107.169 121.36 107.139 121.365 107.109L128.94 61.7943C128.941 61.7617 128.95 61.7296 128.964 61.7003C128.979 61.6711 128.999 61.6452 129.025 61.6246C129.05 61.6039 129.079 61.5889 129.111 61.5805C129.143 61.5721 129.176 61.5705 129.208 61.5759C129.24 61.5813 129.271 61.5934 129.298 61.6116C129.325 61.6298 129.348 61.6536 129.365 61.6814C129.383 61.7091 129.394 61.7403 129.398 61.7727C129.402 61.8051 129.4 61.838 129.39 61.8693L121.815 107.184C121.805 107.236 121.777 107.283 121.736 107.317C121.695 107.351 121.643 107.369 121.59 107.369Z" stroke="#D1D3D4" stroke-width="0.9338" stroke-linecap="round" stroke-linejoin="round"/>
<path d="M134.25 107.369H134.21C134.181 107.364 134.153 107.354 134.128 107.338C134.103 107.322 134.081 107.302 134.064 107.278C134.046 107.254 134.034 107.226 134.028 107.197C134.021 107.168 134.02 107.139 134.025 107.109L141.595 61.7943C141.596 61.7617 141.605 61.7296 141.619 61.7003C141.634 61.6711 141.654 61.6452 141.68 61.6246C141.705 61.6039 141.734 61.5889 141.766 61.5805C141.798 61.5721 141.831 61.5705 141.863 61.5759C141.895 61.5813 141.926 61.5934 141.953 61.6116C141.98 61.6298 142.003 61.6536 142.02 61.6814C142.038 61.7091 142.049 61.7403 142.053 61.7727C142.057 61.8051 142.055 61.838 142.045 61.8693L134.5 107.184C134.489 107.241 134.458 107.291 134.411 107.325C134.365 107.36 134.307 107.375 134.25 107.369V107.369Z" stroke="#D1D3D4" stroke-width="0.9338" stroke-linecap="round" stroke-linejoin="round"/>
<path d="M149.685 72.5644H67.1552C67.1225 72.5693 67.0891 72.567 67.0574 72.5578C67.0256 72.5486 66.9962 72.5327 66.9712 72.5111C66.9461 72.4895 66.926 72.4628 66.9123 72.4327C66.8985 72.4027 66.8914 72.37 66.8914 72.3369C66.8914 72.3039 66.8985 72.2712 66.9123 72.2411C66.926 72.2111 66.9461 72.1843 66.9712 72.1628C66.9962 72.1412 67.0256 72.1252 67.0574 72.116C67.0891 72.1068 67.1225 72.1046 67.1552 72.1094H149.685C149.718 72.1046 149.751 72.1068 149.783 72.116C149.815 72.1252 149.844 72.1412 149.869 72.1628C149.894 72.1843 149.914 72.2111 149.928 72.2411C149.942 72.2712 149.949 72.3039 149.949 72.3369C149.949 72.37 149.942 72.4027 149.928 72.4327C149.914 72.4628 149.894 72.4895 149.869 72.5111C149.844 72.5327 149.815 72.5486 149.783 72.5578C149.751 72.567 149.718 72.5693 149.685 72.5644Z" fill="#231F20"/>
<path d="M147.655 84.7148H65.1251C65.0924 84.7197 65.0591 84.7174 65.0273 84.7082C64.9956 84.699 64.9662 84.6831 64.9411 84.6615C64.9161 84.6399 64.896 84.6132 64.8822 84.5831C64.8685 84.5531 64.8613 84.5204 64.8613 84.4873C64.8613 84.4543 64.8685 84.4216 64.8822 84.3915C64.896 84.3615 64.9161 84.3347 64.9411 84.3131C64.9662 84.2916 64.9956 84.2756 65.0273 84.2664C65.0591 84.2572 65.0924 84.255 65.1251 84.2598H147.655C147.688 84.255 147.721 84.2572 147.753 84.2664C147.785 84.2756 147.814 84.2916 147.839 84.3131C147.864 84.3347 147.884 84.3615 147.898 84.3915C147.912 84.4216 147.919 84.4543 147.919 84.4873C147.919 84.5204 147.912 84.5531 147.898 84.5831C147.884 84.6132 147.864 84.6399 147.839 84.6615C147.814 84.6831 147.785 84.699 147.753 84.7082C147.721 84.7174 147.688 84.7197 147.655 84.7148Z" fill="#231F20"/>
<path d="M145.625 96.8697H63.0952C63.0342 96.8697 62.9757 96.8454 62.9326 96.8023C62.8895 96.7592 62.8652 96.7007 62.8652 96.6397C62.8652 96.5787 62.8895 96.5202 62.9326 96.477C62.9757 96.4339 63.0342 96.4097 63.0952 96.4097H145.625C145.686 96.4097 145.745 96.4339 145.788 96.477C145.831 96.5202 145.855 96.5787 145.855 96.6397C145.855 96.7007 145.831 96.7592 145.788 96.8023C145.745 96.8454 145.686 96.8697 145.625 96.8697Z" fill="#231F20"/>
<path d="M67.155 72.3345H149.685" stroke="#D1D3D4" stroke-width="0.9338" stroke-linecap="round" stroke-linejoin="round"/>
<path d="M149.685 72.5644H67.1552C67.1225 72.5693 67.0891 72.567 67.0574 72.5578C67.0256 72.5486 66.9962 72.5327 66.9712 72.5111C66.9461 72.4895 66.926 72.4628 66.9123 72.4327C66.8985 72.4027 66.8914 72.37 66.8914 72.3369C66.8914 72.3039 66.8985 72.2712 66.9123 72.2411C66.926 72.2111 66.9461 72.1843 66.9712 72.1628C66.9962 72.1412 67.0256 72.1252 67.0574 72.116C67.0891 72.1068 67.1225 72.1046 67.1552 72.1094H149.685C149.718 72.1046 149.751 72.1068 149.783 72.116C149.815 72.1252 149.844 72.1412 149.869 72.1628C149.894 72.1843 149.914 72.2111 149.928 72.2411C149.942 72.2712 149.949 72.3039 149.949 72.3369C149.949 72.37 149.942 72.4027 149.928 72.4327C149.914 72.4628 149.894 72.4895 149.869 72.5111C149.844 72.5327 149.815 72.5486 149.783 72.5578C149.751 72.567 149.718 72.5693 149.685 72.5644V72.5644Z" stroke="#D1D3D4" stroke-width="0.9338" stroke-linecap="round" stroke-linejoin="round"/>
<path d="M65.125 84.4893H147.655" stroke="#D1D3D4" stroke-width="0.9338" stroke-linecap="round" stroke-linejoin="round"/>
<path d="M147.655 84.7148H65.1251C65.0924 84.7197 65.0591 84.7174 65.0273 84.7082C64.9956 84.699 64.9662 84.6831 64.9411 84.6615C64.9161 84.6399 64.896 84.6132 64.8822 84.5831C64.8685 84.5531 64.8613 84.5204 64.8613 84.4873C64.8613 84.4543 64.8685 84.4216 64.8822 84.3915C64.896 84.3615 64.9161 84.3347 64.9411 84.3131C64.9662 84.2916 64.9956 84.2756 65.0273 84.2664C65.0591 84.2572 65.0924 84.255 65.1251 84.2598H147.655C147.688 84.255 147.721 84.2572 147.753 84.2664C147.785 84.2756 147.814 84.2916 147.839 84.3131C147.864 84.3347 147.884 84.3615 147.898 84.3915C147.912 84.4216 147.919 84.4543 147.919 84.4873C147.919 84.5204 147.912 84.5531 147.898 84.5831C147.884 84.6132 147.864 84.6399 147.839 84.6615C147.814 84.6831 147.785 84.699 147.753 84.7082C147.721 84.7174 147.688 84.7197 147.655 84.7148V84.7148Z" stroke="#D1D3D4" stroke-width="0.9338" stroke-linecap="round" stroke-linejoin="round"/>
<path d="M63.0952 96.6396H145.625" stroke="#D1D3D4" stroke-width="0.9338" stroke-linecap="round" stroke-linejoin="round"/>
<path d="M145.625 96.8697H63.0952C63.0342 96.8697 62.9757 96.8454 62.9326 96.8023C62.8895 96.7592 62.8652 96.7007 62.8652 96.6397C62.8652 96.5787 62.8895 96.5202 62.9326 96.477C62.9757 96.4339 63.0342 96.4097 63.0952 96.4097H145.625C145.686 96.4097 145.745 96.4339 145.788 96.477C145.831 96.5202 145.855 96.5787 145.855 96.6397C145.855 96.7007 145.831 96.7592 145.788 96.8023C145.745 96.8454 145.686 96.8697 145.625 96.8697V96.8697Z" stroke="#D1D3D4" stroke-width="0.9338" stroke-linecap="round" stroke-linejoin="round"/>
<path d="M90.6752 82.1795C90.6418 82.1803 90.6088 82.1735 90.5784 82.1596C90.5481 82.1458 90.5214 82.1252 90.5002 82.0995C90.4624 82.0528 90.4444 81.9932 90.45 81.9334C90.4556 81.8736 90.4844 81.8183 90.5301 81.7795L99.3552 74.4345C99.4019 74.3967 99.4615 74.3787 99.5213 74.3843C99.5811 74.3899 99.6363 74.4187 99.6752 74.4645C99.7132 74.512 99.7314 74.5724 99.7258 74.633C99.7202 74.6937 99.6913 74.7497 99.6452 74.7895L90.8251 82.1295C90.7824 82.163 90.7294 82.1806 90.6752 82.1795Z" fill="#F97794"/>
<path d="M98.2701 82.1793C98.2381 82.1793 98.2064 82.1727 98.1771 82.1597C98.1479 82.1468 98.1216 82.1279 98.1001 82.1043L91.7301 74.7593C91.6885 74.7164 91.6653 74.659 91.6653 74.5993C91.6653 74.5396 91.6885 74.4822 91.7301 74.4393C91.7523 74.419 91.7784 74.4035 91.8069 74.3938C91.8353 74.384 91.8655 74.3802 91.8955 74.3825C91.9255 74.3848 91.9547 74.3933 91.9812 74.4074C92.0078 74.4215 92.0313 74.4408 92.0501 74.4643L98.4201 81.8043C98.4616 81.8472 98.4848 81.9046 98.4848 81.9643C98.4848 82.024 98.4616 82.0814 98.4201 82.1243C98.4 82.143 98.3764 82.1576 98.3506 82.167C98.3249 82.1765 98.2975 82.1806 98.2701 82.1793Z" fill="#F97794"/>
<path d="M126.845 95.0095C126.812 95.009 126.778 95.0011 126.748 94.9864C126.718 94.9718 126.691 94.9506 126.67 94.9245C126.651 94.9017 126.636 94.8752 126.627 94.8466C126.618 94.8181 126.615 94.788 126.618 94.7582C126.621 94.7284 126.629 94.6995 126.644 94.6731C126.658 94.6467 126.677 94.6234 126.7 94.6045L135.5 87.2645C135.523 87.2415 135.55 87.2234 135.579 87.2114C135.609 87.1994 135.641 87.1938 135.673 87.195C135.705 87.1961 135.737 87.204 135.766 87.218C135.795 87.2321 135.82 87.252 135.841 87.2766C135.862 87.3012 135.877 87.3298 135.886 87.3606C135.895 87.3915 135.897 87.4239 135.893 87.4557C135.889 87.4875 135.878 87.5181 135.861 87.5455C135.844 87.5728 135.822 87.5963 135.795 87.6145L127 94.9545C126.957 94.9913 126.902 95.0109 126.845 95.0095Z" fill="#F97794"/>
<path d="M134.44 95.0096C134.408 95.0097 134.376 95.0025 134.346 94.9887C134.317 94.9748 134.291 94.9547 134.27 94.9296L127.9 87.5896C127.857 87.5465 127.833 87.4881 127.833 87.4271C127.833 87.3662 127.857 87.3078 127.9 87.2646C127.947 87.226 128.007 87.207 128.068 87.2116C128.128 87.2163 128.185 87.2442 128.225 87.2896L134.59 94.6296C134.633 94.6727 134.657 94.7312 134.657 94.7921C134.657 94.853 134.633 94.9115 134.59 94.9546C134.548 94.9895 134.495 95.0089 134.44 95.0096Z" fill="#F97794"/>
<path d="M136.44 115.579L148.705 105.984H141.61C140.615 106.019 139.66 106.392 138.904 107.04C138.149 107.689 137.636 108.576 137.45 109.554L136.44 115.579Z" fill="white"/>
<path d="M136.44 115.81C136.4 115.81 136.36 115.8 136.325 115.78C136.286 115.756 136.254 115.721 136.235 115.679C136.215 115.637 136.208 115.59 136.215 115.545L137.215 109.515C137.413 108.485 137.954 107.552 138.751 106.87C139.547 106.188 140.552 105.797 141.6 105.76H148.695C148.743 105.759 148.79 105.773 148.829 105.801C148.867 105.829 148.896 105.869 148.91 105.915C148.927 105.959 148.928 106.007 148.915 106.053C148.901 106.098 148.873 106.137 148.835 106.165L136.575 115.76C136.537 115.79 136.489 115.808 136.44 115.81ZM141.61 106.215C140.669 106.248 139.767 106.6 139.052 107.213C138.337 107.827 137.851 108.665 137.675 109.59L136.765 115.04L148.045 106.215H141.61Z" fill="#231F20"/>
<path d="M130.385 52.8294C130.21 52.8291 130.037 52.7825 129.885 52.6944C129.042 52.2034 128.325 51.5217 127.792 50.7038C127.26 49.886 126.926 48.9548 126.818 47.9848C126.71 47.0149 126.831 46.0331 127.17 45.1181C127.51 44.2031 128.059 43.3804 128.774 42.7158C129.488 42.0512 130.349 41.5633 131.286 41.291C132.223 41.0188 133.211 40.9698 134.171 41.1481C135.13 41.3263 136.035 41.7268 136.812 42.3174C137.589 42.9081 138.217 43.6725 138.645 44.5494C138.762 44.7881 138.779 45.0634 138.693 45.3147C138.606 45.566 138.424 45.7727 138.185 45.8894C137.946 46.0061 137.671 46.0232 137.42 45.9369C137.169 45.8507 136.962 45.6681 136.845 45.4294C136.424 44.5658 135.723 43.8704 134.856 43.4566C133.989 43.0428 133.007 42.935 132.071 43.1508C131.134 43.3666 130.299 43.8932 129.7 44.6448C129.102 45.3964 128.776 46.3286 128.775 47.2894C128.776 48.034 128.972 48.7653 129.343 49.4108C129.714 50.0563 130.247 50.5936 130.89 50.9694C131.078 51.0808 131.224 51.2505 131.306 51.4526C131.388 51.6548 131.402 51.8783 131.346 52.0891C131.289 52.2998 131.165 52.4863 130.992 52.6199C130.82 52.7536 130.608 52.8272 130.39 52.8294H130.385Z" fill="#231F20"/>
<path d="M107.89 52.8296C107.714 52.8293 107.542 52.7827 107.39 52.6946C106.201 52.0044 105.273 50.9414 104.75 49.6704C104.226 48.3993 104.136 46.9911 104.493 45.6638C104.851 44.3364 105.636 43.164 106.728 42.328C107.819 41.4921 109.155 41.0392 110.53 41.0396C111.701 41.0341 112.851 41.3597 113.845 41.979C114.839 42.5982 115.638 43.4859 116.15 44.5396C116.267 44.7783 116.284 45.0536 116.198 45.3049C116.111 45.5562 115.929 45.7629 115.69 45.8796C115.451 45.9963 115.176 46.0134 114.925 45.9271C114.674 45.8409 114.467 45.6583 114.35 45.4196C113.929 44.5561 113.228 43.8607 112.361 43.4468C111.494 43.033 110.512 42.9252 109.576 43.141C108.639 43.3568 107.804 43.8834 107.205 44.635C106.607 45.3866 106.281 46.3188 106.28 47.2796C106.281 48.0248 106.478 48.7566 106.849 49.4023C107.221 50.0479 107.756 50.5849 108.4 50.9596C108.588 51.071 108.734 51.2407 108.816 51.4428C108.898 51.645 108.912 51.8685 108.856 52.0793C108.799 52.29 108.675 52.4765 108.502 52.6102C108.33 52.7438 108.118 52.8174 107.9 52.8196L107.89 52.8296Z" fill="#231F20"/>
<path d="M85.3951 52.8295C85.2192 52.8315 85.0461 52.7847 84.8951 52.6945C84.0505 52.2044 83.3326 51.5231 82.7988 50.7054C82.265 49.8877 81.9303 48.9562 81.8214 47.9858C81.7126 47.0154 81.8326 46.033 82.1719 45.1173C82.5112 44.2017 83.0604 43.3782 83.7753 42.7131C84.4903 42.048 85.3512 41.5596 86.2889 41.2872C87.2266 41.0148 88.2152 40.9659 89.1752 41.1444C90.1353 41.323 91.0401 41.724 91.8172 42.3153C92.5943 42.9066 93.2221 43.6718 93.6501 44.5496C93.7126 44.6679 93.7506 44.7976 93.7621 44.931C93.7735 45.0643 93.7581 45.1986 93.7167 45.3259C93.6752 45.4531 93.6087 45.5708 93.521 45.6719C93.4332 45.7729 93.3261 45.8554 93.2059 45.9143C93.0858 45.9732 92.955 46.0074 92.8214 46.0148C92.6877 46.0223 92.554 46.0028 92.428 45.9576C92.302 45.9124 92.1864 45.8424 92.088 45.7517C91.9896 45.661 91.9104 45.5514 91.8551 45.4296C91.4355 44.5632 90.7342 43.8649 89.866 43.4491C88.9978 43.0332 88.0142 42.9244 87.0761 43.1405C86.138 43.3566 85.3011 43.8847 84.7023 44.6385C84.1035 45.3922 83.7784 46.3269 83.7801 47.2895C83.7822 48.0345 83.9789 48.7659 84.3508 49.4114C84.7226 50.0569 85.2567 50.594 85.9001 50.9695C86.0878 51.0809 86.2339 51.2506 86.3162 51.4528C86.3984 51.6549 86.4122 51.8784 86.3556 52.0892C86.2989 52.3 86.1749 52.4864 86.0024 52.6201C85.8298 52.7538 85.6183 52.8273 85.4001 52.8295H85.3951Z" fill="#231F20"/>
<path d="M83.5001 44.1098C83.4567 44.11 83.4138 44.0997 83.3751 44.0798C83.3172 44.0463 83.2747 43.9913 83.257 43.9267C83.2392 43.8622 83.2475 43.7932 83.2801 43.7348C83.7573 43.0066 84.4224 42.421 85.2051 42.0398C85.2351 42.0212 85.2688 42.0092 85.3037 42.0046C85.3387 42 85.3743 42.0028 85.4081 42.0129C85.4419 42.023 85.4732 42.0402 85.4999 42.0632C85.5266 42.0863 85.5482 42.1147 85.5631 42.1467C85.578 42.1787 85.586 42.2135 85.5865 42.2488C85.587 42.2841 85.5801 42.3191 85.5661 42.3515C85.5521 42.3839 85.5314 42.4129 85.5054 42.4368C85.4794 42.4606 85.4486 42.4787 85.4151 42.4898C84.7287 42.835 84.1431 43.3517 83.7151 43.9898C83.6927 44.0266 83.6611 44.0571 83.6234 44.0781C83.5858 44.0991 83.5433 44.11 83.5001 44.1098Z" fill="white"/>
<path d="M106.285 44.1093C106.241 44.1091 106.198 44.0973 106.161 44.0753C106.123 44.0532 106.091 44.0217 106.07 43.9837C106.048 43.9457 106.037 43.9027 106.037 43.859C106.037 43.8152 106.048 43.7722 106.07 43.7343C106.548 43.0045 107.215 42.4185 108 42.0393C108.06 42.012 108.128 42.0092 108.19 42.0317C108.251 42.0541 108.302 42.1 108.33 42.1593C108.344 42.1888 108.353 42.2208 108.354 42.2535C108.356 42.2862 108.351 42.3189 108.34 42.3497C108.329 42.3804 108.311 42.4086 108.289 42.4326C108.267 42.4566 108.24 42.4759 108.21 42.4893C107.524 42.8346 106.938 43.3513 106.51 43.9893C106.487 44.0277 106.454 44.0591 106.414 44.0802C106.374 44.1013 106.33 44.1114 106.285 44.1093Z" fill="white"/>
<path d="M128.54 44.1093C128.497 44.109 128.454 44.0987 128.415 44.0793C128.358 44.045 128.317 43.9896 128.3 43.9252C128.283 43.8607 128.292 43.7922 128.325 43.7343C128.801 43.0068 129.464 42.4212 130.245 42.0393C130.275 42.025 130.307 42.0167 130.34 42.015C130.373 42.0133 130.406 42.0181 130.438 42.0293C130.469 42.0405 130.497 42.0577 130.522 42.08C130.546 42.1023 130.566 42.1293 130.58 42.1593C130.594 42.1888 130.603 42.2208 130.604 42.2535C130.606 42.2862 130.601 42.3189 130.59 42.3496C130.579 42.3804 130.561 42.4086 130.539 42.4326C130.517 42.4566 130.49 42.4759 130.46 42.4893C129.774 42.8345 129.188 43.3512 128.76 43.9893C128.736 44.0262 128.704 44.0566 128.665 44.0776C128.627 44.0985 128.584 44.1095 128.54 44.1093Z" fill="white"/>
<path d="M29.4998 51.2744L17.9849 51.8638L20.9072 108.959L32.4221 108.37L29.4998 51.2744Z" fill="white"/>
<path d="M20.9151 109.19C20.8558 109.19 20.7987 109.167 20.7559 109.126C20.713 109.085 20.6876 109.029 20.6851 108.97L17.7601 51.8697C17.7575 51.8399 17.7611 51.8099 17.7706 51.7816C17.78 51.7532 17.7952 51.7271 17.8151 51.7047C17.8558 51.658 17.9133 51.6293 17.9751 51.6247L29.4751 51.0347C29.5363 51.0333 29.5957 51.0552 29.6412 51.0961C29.6868 51.137 29.715 51.1937 29.7201 51.2547L32.6601 108.37C32.6629 108.4 32.659 108.43 32.6486 108.459C32.6382 108.488 32.6217 108.513 32.6001 108.535C32.5807 108.559 32.5564 108.578 32.5288 108.592C32.5012 108.606 32.4709 108.614 32.4401 108.615L20.9401 109.205L20.9151 109.19ZM18.2301 52.0797L21.1351 108.715L32.1901 108.15L29.2851 51.5147L18.2301 52.0797Z" fill="#D1D3D4"/>
<path d="M19.4153 108.948L20.9553 108.871L18.0968 51.7006L16.5568 51.7776L19.4153 108.948Z" fill="white"/>
<path d="M19.3801 109.264C19.3238 109.264 19.2693 109.244 19.2251 109.209C19.1815 109.167 19.1548 109.11 19.1501 109.049L16.2251 51.9545C16.2222 51.9239 16.2256 51.893 16.235 51.8638C16.2445 51.8345 16.2599 51.8075 16.2801 51.7845C16.3226 51.7408 16.3795 51.7142 16.4401 51.7095L17.9751 51.6295C18.0363 51.628 18.0958 51.6499 18.1413 51.6908C18.1869 51.7317 18.2151 51.7885 18.2201 51.8495L21.1451 108.944C21.1479 109.006 21.1264 109.066 21.0852 109.112C21.0441 109.158 20.9866 109.186 20.9251 109.189L19.3901 109.264H19.3801ZM16.6951 52.1595L19.6001 108.794L20.6751 108.739L17.7701 52.1045L16.6951 52.1595Z" fill="#D1D3D4"/>
<path d="M18.5 55.1446C18.439 55.1446 18.3805 55.1203 18.3374 55.0772C18.2943 55.0341 18.27 54.9756 18.27 54.9146C18.27 54.8536 18.2943 54.7951 18.3374 54.7519C18.3805 54.7088 18.439 54.6846 18.5 54.6846L20.67 54.5696C20.7002 54.5682 20.7304 54.5729 20.7588 54.5832C20.7872 54.5935 20.8134 54.6094 20.8356 54.6298C20.8579 54.6502 20.876 54.6749 20.8887 54.7023C20.9015 54.7297 20.9087 54.7593 20.91 54.7896C20.912 54.8195 20.9081 54.8496 20.8983 54.878C20.8885 54.9064 20.8732 54.9325 20.8531 54.9549C20.8331 54.9773 20.8088 54.9954 20.7816 55.0082C20.7545 55.021 20.725 55.0283 20.695 55.0296L18.525 55.1446H18.5Z" fill="#D1D3D4"/>
<path d="M18.6751 58.9795C18.6161 58.9783 18.5598 58.9551 18.5172 58.9143C18.4746 58.8736 18.4488 58.8183 18.4451 58.7595C18.443 58.7291 18.4472 58.6987 18.4573 58.6699C18.4674 58.6412 18.4832 58.6148 18.5037 58.5924C18.5243 58.57 18.5492 58.5519 18.5769 58.5394C18.6047 58.5269 18.6347 58.5201 18.6651 58.5195L20.9101 58.3995C20.9713 58.398 21.0307 58.4199 21.0763 58.4608C21.1218 58.5017 21.15 58.5585 21.1551 58.6195C21.1564 58.6497 21.1518 58.6799 21.1415 58.7083C21.1311 58.7367 21.1153 58.7628 21.0949 58.7851C21.0744 58.8074 21.0498 58.8254 21.0224 58.8382C20.995 58.851 20.9653 58.8582 20.9351 58.8595L18.6851 58.9795H18.6751Z" fill="#D1D3D4"/>
<path d="M18.87 62.8144C18.8142 62.8062 18.7632 62.7782 18.7263 62.7355C18.6895 62.6928 18.6692 62.6383 18.6692 62.5819C18.6692 62.5255 18.6895 62.471 18.7263 62.4283C18.7632 62.3856 18.8142 62.3576 18.87 62.3494L22.65 62.1594C22.7102 62.1567 22.7691 62.1777 22.8139 62.2179C22.8588 62.2581 22.8861 62.3143 22.89 62.3744C22.8928 62.4351 22.872 62.4946 22.8319 62.5403C22.7918 62.5859 22.7356 62.6143 22.675 62.6194L18.895 62.8094L18.87 62.8144Z" fill="#D1D3D4"/>
<path d="M19.0701 66.6444C19.0113 66.6458 18.9542 66.6241 18.9113 66.5839C18.8683 66.5437 18.8427 66.4882 18.8401 66.4294C18.8381 66.3992 18.842 66.3689 18.8518 66.3402C18.8615 66.3115 18.8767 66.285 18.8967 66.2623C18.9167 66.2395 18.941 66.2209 18.9682 66.2076C18.9953 66.1942 19.0249 66.1864 19.0551 66.1844L21.2251 66.0744C21.2553 66.0731 21.2855 66.0777 21.3139 66.0881C21.3423 66.0984 21.3685 66.1142 21.3907 66.1347C21.413 66.1551 21.4311 66.1797 21.4438 66.2072C21.4566 66.2346 21.4638 66.2642 21.4651 66.2944C21.4671 66.3244 21.4632 66.3545 21.4534 66.3829C21.4436 66.4113 21.4283 66.4374 21.4082 66.4598C21.3882 66.4821 21.3639 66.5003 21.3367 66.5131C21.3096 66.5259 21.2801 66.5332 21.2501 66.5344L19.0801 66.6444H19.0701Z" fill="#D1D3D4"/>
<path d="M19.2651 70.4793C19.2067 70.4794 19.1503 70.4572 19.1076 70.4173C19.0649 70.3774 19.039 70.3226 19.0351 70.2643C19.0324 70.2028 19.0539 70.1426 19.0951 70.0968C19.1362 70.051 19.1937 70.0232 19.2551 70.0193L21.5501 69.9043C21.6111 69.9043 21.6696 69.9285 21.7128 69.9717C21.7559 70.0148 21.7801 70.0733 21.7801 70.1343C21.7801 70.1953 21.7559 70.2538 21.7128 70.2969C21.6696 70.34 21.6111 70.3643 21.5501 70.3643L19.2501 70.4793H19.2651Z" fill="#D1D3D4"/>
<path d="M19.4602 74.3146C19.4021 74.3136 19.3464 74.291 19.3039 74.2513C19.2614 74.2116 19.2352 74.1575 19.2302 74.0996C19.2275 74.0381 19.249 73.9779 19.2901 73.9321C19.3313 73.8863 19.3888 73.8585 19.4502 73.8546L23.2302 73.6646C23.2602 73.6625 23.2902 73.6665 23.3186 73.6763C23.347 73.6861 23.3732 73.7014 23.3955 73.7215C23.4179 73.7415 23.436 73.7658 23.4489 73.793C23.4617 73.8201 23.4689 73.8496 23.4702 73.8796C23.473 73.9411 23.4514 74.0012 23.4103 74.0471C23.3692 74.0929 23.3117 74.1207 23.2502 74.1246L19.4752 74.3146H19.4602Z" fill="#D1D3D4"/>
<path d="M44.6276 66.3247L39.8408 65.9067L35.7457 112.808L40.5325 113.226L44.6276 66.3247Z" fill="white"/>
<path d="M40.5251 113.464L35.7401 113.049C35.7102 113.047 35.6812 113.039 35.6545 113.025C35.6279 113.011 35.6043 112.992 35.5851 112.969C35.5456 112.922 35.5259 112.861 35.5301 112.799L39.6051 65.8695C39.6126 65.8094 39.6425 65.7544 39.6889 65.7154C39.7353 65.6765 39.7946 65.6565 39.8551 65.6595L44.6451 66.0795C44.6752 66.082 44.7044 66.0905 44.7311 66.1045C44.7578 66.1185 44.7814 66.1377 44.8006 66.161C44.8197 66.1844 44.8339 66.2113 44.8424 66.2402C44.851 66.2692 44.8536 66.2995 44.8501 66.3295L40.7551 113.234C40.7551 113.295 40.7309 113.354 40.6877 113.397C40.6446 113.44 40.5861 113.464 40.5251 113.464ZM36.0001 112.604L40.3251 112.984L44.3851 66.5395L40.0551 66.1595L36.0001 112.604Z" fill="#D1D3D4"/>
<path d="M44.6252 66.3294C43.9052 66.8033 43.0504 67.0298 42.1902 66.9744C41.7411 66.9979 41.293 66.9134 40.8833 66.7281C40.4735 66.5428 40.1141 66.2621 39.8352 65.9094L41.6302 61.3244L42.9402 57.9844L43.6502 61.4844L44.6252 66.3294Z" fill="white"/>
<path d="M42.19 67.2097C41.7022 67.2358 41.2154 67.1425 40.7718 66.9377C40.3283 66.7329 39.9415 66.4229 39.645 66.0347C39.624 66.0044 39.6107 65.9694 39.6063 65.9328C39.602 65.8962 39.6067 65.859 39.62 65.8247L42.725 57.8997C42.7418 57.8523 42.7742 57.8121 42.8169 57.7857C42.8597 57.7593 42.9102 57.7484 42.96 57.7547C43.0093 57.7599 43.0557 57.7806 43.0926 57.8139C43.1294 57.8471 43.1547 57.8911 43.165 57.9397L44.85 66.2797C44.8575 66.3209 44.854 66.3633 44.84 66.4028C44.826 66.4423 44.8018 66.4774 44.77 66.5047C44.74 66.5347 43.915 67.2097 42.19 67.2097ZM40.095 65.8697C40.3592 66.1593 40.6837 66.3874 41.0457 66.5377C41.4078 66.6881 41.7984 66.757 42.19 66.7397C42.9488 66.7759 43.7029 66.6029 44.37 66.2397L42.87 58.8097L40.095 65.8697Z" fill="#D1D3D4"/>
<path d="M43.6501 61.4994L41.6301 61.3244L42.9401 57.9844L43.6501 61.4994Z" fill="#F97794"/>
<path d="M43.6501 61.7297L41.6501 61.5547C41.6154 61.5502 41.5821 61.538 41.5526 61.519C41.5232 61.4999 41.4984 61.4746 41.4801 61.4447C41.4643 61.4138 41.4561 61.3795 41.4561 61.3447C41.4561 61.31 41.4643 61.2757 41.4801 61.2447L42.7851 57.8997C42.8026 57.8529 42.8352 57.8132 42.8777 57.7869C42.9203 57.7607 42.9704 57.7493 43.0201 57.7547C43.0688 57.7602 43.1145 57.7812 43.1504 57.8144C43.1864 57.8477 43.2108 57.8916 43.2201 57.9397L43.9351 61.4397C43.9417 61.473 43.9409 61.5074 43.9327 61.5404C43.9245 61.5733 43.9091 61.6041 43.8876 61.6304C43.866 61.6567 43.839 61.6779 43.8083 61.6925C43.7776 61.707 43.7441 61.7146 43.7101 61.7147L43.6501 61.7297ZM41.9551 61.1247L43.3651 61.2497L42.8651 58.7897L41.9551 61.1247Z" fill="#F97794"/>
<path d="M38.2859 65.1603L34.5203 64.8315L31.2976 101.741L35.0633 102.07L38.2859 65.1603Z" fill="white"/>
<path d="M35.0651 102.3L31.2951 101.97C31.265 101.967 31.2358 101.959 31.2091 101.945C31.1824 101.931 31.1588 101.911 31.1396 101.888C31.1205 101.865 31.1063 101.838 31.0978 101.809C31.0893 101.78 31.0866 101.75 31.0901 101.72L34.3101 64.8097C34.3164 64.7491 34.346 64.6934 34.3927 64.6542C34.4393 64.615 34.4993 64.5955 34.5601 64.5997L38.3301 64.9297C38.3901 64.9355 38.4456 64.9641 38.4851 65.0097C38.5054 65.0328 38.5207 65.0598 38.5302 65.089C38.5397 65.1182 38.543 65.1491 38.5401 65.1797L35.3151 102.09C35.3124 102.12 35.3035 102.149 35.2889 102.176C35.2742 102.203 35.2542 102.226 35.2301 102.245C35.2078 102.265 35.1816 102.28 35.1533 102.289C35.1249 102.299 35.0949 102.302 35.0651 102.3ZM31.5651 101.53L34.8751 101.82L38.0401 65.3697L34.7301 65.0847L31.5651 101.53Z" fill="#D1D3D4"/>
<path d="M38.29 65.1544C38.0636 65.4155 37.7794 65.6202 37.46 65.7522C37.1405 65.8841 36.7947 65.9397 36.45 65.9144C36.067 65.8786 35.6956 65.7632 35.3598 65.5755C35.024 65.3878 34.7311 65.1319 34.5 64.8244L35.915 61.2194L36.915 58.5894L37.525 61.3694L38.29 65.1544Z" fill="white"/>
<path d="M36.5951 66.1496H36.4401C36.0262 66.1087 35.6254 65.9823 35.263 65.7783C34.9007 65.5743 34.5847 65.2972 34.3351 64.9646C34.3132 64.9338 34.299 64.8982 34.2938 64.8607C34.2885 64.8233 34.2924 64.7852 34.3051 64.7496L36.7501 58.5096C36.7682 58.4602 36.8033 58.419 36.8492 58.3933C36.895 58.3676 36.9486 58.3592 37.0001 58.3696C37.0503 58.3738 37.0978 58.3941 37.1356 58.4274C37.1734 58.4607 37.1995 58.5053 37.2101 58.5546L38.5001 65.1096C38.5076 65.1414 38.5079 65.1746 38.501 65.2066C38.4941 65.2386 38.4801 65.2687 38.4601 65.2946C38.2297 65.5637 37.9436 65.7795 37.6216 65.9272C37.2996 66.0748 36.9493 66.1507 36.5951 66.1496ZM34.7851 64.7846C35.2043 65.2946 35.8082 65.6182 36.4651 65.6846C36.7553 65.7083 37.0471 65.6672 37.3195 65.5643C37.5919 65.4614 37.838 65.2992 38.0401 65.0896L36.8901 59.4046L34.7851 64.7846Z" fill="#D1D3D4"/>
<path d="M37.5251 61.3594L35.9351 61.2194L36.9601 58.5894L37.5251 61.3594Z" fill="white"/>
<path d="M37.5002 61.5898L35.9152 61.4498C35.879 61.4481 35.8439 61.4371 35.8132 61.4178C35.7825 61.3985 35.7574 61.3716 35.7402 61.3398C35.7243 61.3079 35.7161 61.2728 35.7161 61.2373C35.7161 61.2017 35.7243 61.1666 35.7402 61.1348L36.7702 58.5048C36.7884 58.4602 36.8208 58.4228 36.8624 58.3984C36.9039 58.374 36.9523 58.364 37.0002 58.3698C37.0504 58.374 37.0979 58.3943 37.1357 58.4276C37.1735 58.4609 37.1996 58.5055 37.2102 58.5548L37.7702 61.3248C37.7773 61.3601 37.7761 61.3966 37.7665 61.4313C37.7569 61.4661 37.7394 61.4981 37.7152 61.5248C37.6871 61.5519 37.653 61.572 37.6156 61.5833C37.5782 61.5947 37.5386 61.5969 37.5002 61.5898ZM36.2402 61.0198L37.2402 61.1048L36.8952 59.4048L36.2402 61.0198Z" fill="#D1D3D4"/>
<path d="M33.2002 102.18C33.1697 102.178 33.1399 102.17 33.1126 102.156C33.0853 102.142 33.0611 102.123 33.0415 102.1C33.0218 102.076 33.0072 102.049 32.9983 102.02C32.9895 101.991 32.9868 101.96 32.9902 101.93L36.2402 65.8946C36.2498 65.8354 36.2803 65.7817 36.3262 65.7431C36.3721 65.7046 36.4303 65.6838 36.4902 65.6846C36.5517 65.6909 36.6083 65.7212 36.6476 65.769C36.6869 65.8167 36.7058 65.878 36.7002 65.9396L33.4502 101.975C33.4477 102.005 33.4392 102.034 33.4252 102.061C33.4112 102.087 33.392 102.111 33.3686 102.13C33.3453 102.149 33.3184 102.163 33.2895 102.172C33.2605 102.18 33.2302 102.183 33.2002 102.18Z" fill="#D1D3D4"/>
<path d="M31.6803 75.0553L27.6833 74.8989L27.1324 88.9832L31.1294 89.1395L31.6803 75.0553Z" fill="white"/>
<path d="M31.1252 89.3694L27.1252 89.2094C27.0951 89.2099 27.0652 89.2039 27.0376 89.1918C27.01 89.1798 26.9853 89.1619 26.9652 89.1394C26.944 89.1176 26.9273 89.0918 26.9162 89.0634C26.905 89.0351 26.8996 89.0049 26.9002 88.9744L27.4552 74.8694C27.459 74.8097 27.4854 74.7537 27.5291 74.7129C27.5728 74.672 27.6304 74.6493 27.6902 74.6494L31.6902 74.8044C31.7512 74.8082 31.8085 74.8352 31.8503 74.8798C31.8921 74.9244 31.9153 74.9833 31.9152 75.0444L31.3602 89.1244C31.3623 89.1563 31.3577 89.1882 31.3468 89.2182C31.3358 89.2482 31.3188 89.2756 31.2967 89.2987C31.2746 89.3217 31.2479 89.3399 31.2184 89.3521C31.1889 89.3643 31.1571 89.3702 31.1252 89.3694ZM27.3702 88.7594L30.9052 88.8994L31.4402 75.2794L27.9052 75.1394L27.3702 88.7594Z" fill="#D1D3D4"/>
<path d="M33.0348 60.9989L27.4341 60.7798L26.8832 74.864L32.4839 75.0831L33.0348 60.9989Z" fill="white"/>
<path d="M32.5002 75.3143L26.9002 75.0943C26.8393 75.0906 26.7821 75.0638 26.7402 75.0193C26.7197 74.9972 26.7038 74.9712 26.6935 74.9429C26.6832 74.9146 26.6787 74.8844 26.6802 74.8543L27.2302 60.7743C27.2352 60.7137 27.2625 60.6571 27.3069 60.6155C27.3512 60.574 27.4094 60.5504 27.4702 60.5493L33.0702 60.7693C33.1312 60.7731 33.1884 60.7999 33.2302 60.8443C33.2508 60.8664 33.2667 60.8924 33.277 60.9207C33.2873 60.9491 33.2918 60.9792 33.2902 61.0093L32.7402 75.0893C32.7396 75.12 32.7328 75.1502 32.7204 75.1781C32.7079 75.2061 32.6899 75.2314 32.6676 75.2523C32.6452 75.2733 32.6189 75.2896 32.5902 75.3002C32.5614 75.3109 32.5309 75.3156 32.5002 75.3143ZM27.1402 74.6443L32.2802 74.8443L32.8102 61.2193L27.6702 61.0193L27.1402 74.6443Z" fill="#D1D3D4"/>
<path d="M25.1002 73.4996C25.0401 73.497 24.9834 73.471 24.9422 73.4271C24.9011 73.3831 24.8788 73.3248 24.8802 73.2646L25.2602 63.4696C25.2797 63.0138 25.479 62.5842 25.8145 62.275C26.1499 61.9658 26.5943 61.802 27.0502 61.8196H27.3202C27.3812 61.8196 27.4397 61.8439 27.4828 61.887C27.526 61.9301 27.5502 61.9886 27.5502 62.0496C27.5502 62.1106 27.526 62.1691 27.4828 62.2123C27.4397 62.2554 27.3812 62.2796 27.3202 62.2796H27.0502C26.8849 62.2723 26.7199 62.2976 26.5644 62.3543C26.409 62.4109 26.2664 62.4977 26.1446 62.6097C26.0229 62.7217 25.9245 62.8567 25.8551 63.0068C25.7857 63.157 25.7466 63.3194 25.7402 63.4846L25.3602 73.2797C25.3591 73.3117 25.3513 73.3432 25.3373 73.372C25.3233 73.4009 25.3034 73.4265 25.2789 73.4472C25.2544 73.4679 25.2259 73.4833 25.1951 73.4923C25.1643 73.5014 25.132 73.5039 25.1002 73.4996Z" fill="#D1D3D4"/>
<path d="M14.9651 76.2847H46.5001L44.6751 113.87C44.6738 114.861 44.2791 115.811 43.5779 116.511C42.8767 117.211 41.9261 117.605 40.9351 117.605H20.5451C19.5545 117.605 18.6045 117.211 17.904 116.511C17.2036 115.81 16.8101 114.86 16.8101 113.87L14.9651 76.2847Z" fill="white"/>
<path d="M40.9352 117.835H20.5452C19.494 117.833 18.4862 117.415 17.7429 116.672C16.9997 115.929 16.5815 114.921 16.5802 113.87L14.7352 76.2997C14.7338 76.2369 14.7571 76.176 14.8001 76.1302C14.8431 76.0844 14.9024 76.0573 14.9652 76.0547H46.5002C46.5314 76.0551 46.5621 76.0619 46.5906 76.0748C46.619 76.0878 46.6444 76.1064 46.6652 76.1297C46.6878 76.1516 46.7053 76.1781 46.7165 76.2075C46.7278 76.2368 46.7324 76.2683 46.7302 76.2997L44.9052 113.87C44.9038 114.922 44.485 115.93 43.7406 116.674C42.9962 117.417 41.9872 117.835 40.9352 117.835ZM15.2102 76.5147L17.0402 113.87C17.0402 114.798 17.4089 115.688 18.0653 116.345C18.7217 117.001 19.6119 117.37 20.5402 117.37H40.9352C41.8634 117.37 42.7537 117.001 43.41 116.345C44.0664 115.688 44.4352 114.798 44.4352 113.87L46.2702 76.5147H15.2102Z" fill="#D1D3D4"/>
<path d="M45.9251 83.3697H15.6301C15.5691 83.3697 15.5106 83.3454 15.4675 83.3023C15.4244 83.2592 15.4001 83.2007 15.4001 83.1397C15.4014 83.0791 15.4261 83.0213 15.4689 82.9784C15.5118 82.9356 15.5695 82.9109 15.6301 82.9097H45.9251C45.9861 82.9097 46.0446 82.9339 46.0878 82.977C46.1309 83.0202 46.1551 83.0787 46.1551 83.1397C46.1558 83.1701 46.1503 83.2003 46.139 83.2285C46.1277 83.2567 46.1108 83.2823 46.0893 83.3038C46.0678 83.3253 46.0422 83.3422 46.014 83.3536C45.9858 83.3649 45.9555 83.3703 45.9251 83.3697Z" fill="#D1D3D4"/>
<path d="M190.24 58.3145H168.91V79.4544H190.24V58.3145Z" fill="white"/>
<path d="M190.245 79.6845H168.91C168.85 79.6832 168.792 79.6586 168.749 79.6157C168.706 79.5729 168.681 79.5151 168.68 79.4545V58.3145C168.681 58.2539 168.706 58.1961 168.749 58.1533C168.792 58.1104 168.85 58.0857 168.91 58.0845H190.245C190.306 58.0857 190.364 58.1104 190.406 58.1533C190.449 58.1961 190.474 58.2539 190.475 58.3145V79.4545C190.474 79.5151 190.449 79.5729 190.406 79.6157C190.364 79.6586 190.306 79.6832 190.245 79.6845ZM169.145 79.2245H190V58.5445H169.145V79.2245Z" fill="#D1D3D4"/>
<path d="M181.715 54.8643H177.835V60.8543H181.715V54.8643Z" fill="#D1D3D4"/>
<path d="M186.795 63.4292H175.38C175.319 63.4292 175.261 63.405 175.218 63.3619C175.174 63.3187 175.15 63.2602 175.15 63.1992C175.15 63.1382 175.174 63.0797 175.218 63.0366C175.261 62.9935 175.319 62.9692 175.38 62.9692H186.795C186.856 62.9692 186.915 62.9935 186.958 63.0366C187.001 63.0797 187.025 63.1382 187.025 63.1992C187.025 63.2602 187.001 63.3187 186.958 63.3619C186.915 63.405 186.856 63.4292 186.795 63.4292Z" fill="#D1D3D4"/>
<path d="M186.795 67.4346H172.145C172.084 67.4346 172.026 67.4104 171.982 67.3672C171.939 67.3241 171.915 67.2656 171.915 67.2046C171.915 67.1436 171.939 67.0851 171.982 67.042C172.026 66.9988 172.084 66.9746 172.145 66.9746H186.795C186.856 66.9746 186.915 66.9988 186.958 67.042C187.001 67.0851 187.025 67.1436 187.025 67.2046C187.025 67.2656 187.001 67.3241 186.958 67.3672C186.915 67.4104 186.856 67.4346 186.795 67.4346Z" fill="#D1D3D4"/>
<path d="M186.905 71.4395H172.145C172.084 71.4395 172.026 71.4152 171.982 71.3721C171.939 71.329 171.915 71.2705 171.915 71.2095C171.915 71.1485 171.939 71.09 171.982 71.0469C172.026 71.0037 172.084 70.9795 172.145 70.9795H186.905C186.935 70.9795 186.965 70.9854 186.993 70.997C187.021 71.0086 187.046 71.0255 187.068 71.0469C187.089 71.0682 187.106 71.0936 187.118 71.1215C187.129 71.1494 187.135 71.1793 187.135 71.2095C187.135 71.2397 187.129 71.2696 187.118 71.2975C187.106 71.3254 187.089 71.3508 187.068 71.3721C187.046 71.3935 187.021 71.4104 186.993 71.422C186.965 71.4335 186.935 71.4395 186.905 71.4395Z" fill="#D1D3D4"/>
<path d="M181.185 75.4449H172.145C172.084 75.4449 172.026 75.4206 171.982 75.3775C171.939 75.3344 171.915 75.2759 171.915 75.2149C171.915 75.1539 171.939 75.0954 171.982 75.0522C172.026 75.0091 172.084 74.9849 172.145 74.9849H181.185C181.246 74.9849 181.305 75.0091 181.348 75.0522C181.391 75.0954 181.415 75.1539 181.415 75.2149C181.415 75.2759 181.391 75.3344 181.348 75.3775C181.305 75.4206 181.246 75.4449 181.185 75.4449Z" fill="#D1D3D4"/>
</svg>
