<svg width="200" height="151" viewBox="0 0 200 151" fill="none" xmlns="http://www.w3.org/2000/svg">
<path d="M137.39 116.63V120.523H125.225C125.225 120.523 129.965 118.394 130.855 118.114L130.26 114.831L137.39 116.63Z" fill="white"/>
<path d="M137.39 120.752H125.225C125.172 120.754 125.121 120.736 125.08 120.703C125.039 120.67 125.01 120.624 125 120.573C124.987 120.522 124.994 120.468 125.018 120.421C125.041 120.374 125.081 120.338 125.13 120.318C125.31 120.233 129.375 118.409 130.595 117.959L130.035 114.871C130.027 114.833 130.03 114.794 130.042 114.757C130.054 114.72 130.076 114.687 130.105 114.661C130.133 114.636 130.167 114.619 130.203 114.609C130.24 114.6 130.278 114.599 130.315 114.606L137.445 116.405C137.495 116.417 137.54 116.446 137.571 116.487C137.603 116.528 137.62 116.578 137.62 116.63V120.523C137.62 120.553 137.614 120.583 137.602 120.611C137.591 120.638 137.574 120.664 137.552 120.685C137.531 120.706 137.506 120.723 137.478 120.735C137.45 120.746 137.42 120.752 137.39 120.752ZM126.295 120.298H137.165V116.8L130.545 115.131L131.08 118.069C131.09 118.123 131.079 118.179 131.051 118.226C131.022 118.273 130.977 118.308 130.925 118.324C130.3 118.529 127.73 119.658 126.295 120.298Z" fill="#231F20"/>
<path d="M130.26 120.647H76.105L103.18 99.9697L130.26 120.647Z" fill="white"/>
<path d="M130.26 120.897H76.105C76.0525 120.897 76.0014 120.881 75.9588 120.85C75.9162 120.82 75.8844 120.776 75.8678 120.727C75.8512 120.677 75.8507 120.623 75.8664 120.573C75.882 120.523 75.913 120.479 75.955 120.448L103.03 99.7699C103.075 99.7385 103.128 99.7217 103.182 99.7217C103.237 99.7217 103.29 99.7385 103.335 99.7699L130.41 120.448C130.452 120.479 130.482 120.524 130.498 120.574C130.513 120.624 130.512 120.678 130.495 120.727C130.478 120.776 130.446 120.819 130.404 120.849C130.362 120.879 130.312 120.896 130.26 120.897ZM76.845 120.398H129.5L103.18 100.31L76.845 120.398Z" fill="#D1D3D4"/>
<path d="M182.145 120.798H17.855C17.7887 120.798 17.7251 120.771 17.6782 120.724C17.6313 120.678 17.605 120.614 17.605 120.548C17.605 120.481 17.6313 120.418 17.6782 120.371C17.7251 120.324 17.7887 120.298 17.855 120.298H182.145C182.211 120.298 182.275 120.324 182.322 120.371C182.369 120.418 182.395 120.481 182.395 120.548C182.395 120.614 182.369 120.678 182.322 120.724C182.275 120.771 182.211 120.798 182.145 120.798Z" fill="#D1D3D4"/>
<path d="M169.245 113.142L173.05 118.039L171.175 120.563H181.495L177.22 113.657L169.245 113.142Z" fill="white"/>
<path d="M181.5 120.798H171.175C171.133 120.797 171.091 120.785 171.055 120.763C171.019 120.741 170.99 120.709 170.971 120.672C170.952 120.634 170.944 120.592 170.947 120.549C170.95 120.507 170.965 120.467 170.99 120.433L172.76 118.054L169.065 113.302C169.038 113.267 169.022 113.225 169.017 113.181C169.013 113.136 169.021 113.092 169.04 113.052C169.063 113.015 169.096 112.984 169.134 112.963C169.173 112.942 169.216 112.932 169.26 112.932L177.23 113.432C177.266 113.434 177.302 113.444 177.333 113.462C177.364 113.481 177.391 113.506 177.41 113.537L181.69 120.443C181.711 120.477 181.722 120.517 181.722 120.558C181.722 120.598 181.711 120.638 181.69 120.673C181.672 120.708 181.645 120.738 181.612 120.76C181.578 120.782 181.54 120.795 181.5 120.798ZM171.635 120.343H181.09L177.09 113.887L169.74 113.387L173.24 117.884C173.271 117.924 173.287 117.972 173.287 118.022C173.287 118.071 173.271 118.12 173.24 118.159L171.635 120.343Z" fill="#231F20"/>
<path d="M139.9 77.6679C139.9 77.6679 127.5 93.8683 126.3 97.5511C125.585 99.7897 130.05 115.86 130.05 115.86L137.39 116.63C137.39 116.63 136.245 102.318 137.115 99.9696C137.985 97.621 147.445 88.5664 147.445 88.5664L169.245 114.456L178.245 113.806L153.56 73.4204L139.9 77.6679Z" fill="#231F20"/>
<path d="M137.39 116.88L130.05 116.116C130 116.11 129.953 116.091 129.915 116.059C129.877 116.026 129.849 115.984 129.835 115.936C129.65 115.276 125.335 99.7602 126.085 97.4816C127.26 93.7988 139.215 78.1831 139.725 77.4935C139.757 77.4527 139.8 77.423 139.85 77.4085L153.52 73.1611C153.572 73.1448 153.629 73.1463 153.68 73.1653C153.732 73.1843 153.776 73.2197 153.805 73.266L178.49 113.657C178.511 113.694 178.522 113.737 178.522 113.779C178.522 113.822 178.511 113.864 178.49 113.902C178.469 113.939 178.439 113.97 178.404 113.994C178.368 114.017 178.327 114.032 178.285 114.037L169.285 114.686C169.246 114.688 169.206 114.68 169.17 114.665C169.134 114.649 169.101 114.626 169.075 114.596L147.45 88.9117C146.105 90.2109 138.15 97.9463 137.375 100.035C136.535 102.309 137.655 116.445 137.665 116.59C137.668 116.626 137.663 116.663 137.65 116.696C137.637 116.73 137.616 116.76 137.59 116.785C137.567 116.816 137.537 116.841 137.502 116.858C137.467 116.874 137.429 116.882 137.39 116.88ZM130.245 115.631L137.12 116.35C136.955 114.222 136.065 102.094 136.88 99.8852C137.765 97.5066 146.88 88.7568 147.27 88.392C147.294 88.3666 147.324 88.3471 147.357 88.335C147.39 88.3229 147.425 88.3184 147.46 88.322C147.494 88.3244 147.527 88.3336 147.557 88.3491C147.587 88.3645 147.613 88.3859 147.635 88.412L169.355 114.202L177.825 113.592L153.455 73.7207L140.05 77.8882C139.2 78.9926 127.65 94.1436 126.55 97.6315C126 99.3855 129 111.059 130.245 115.631Z" fill="#231F20"/>
<path d="M133 59.1044C133.835 58.2299 130.825 58.9095 130.545 64.6461C130.33 69.0285 130.045 74.7651 130.045 74.7651L118.095 77.4535L116.77 82.4505C116.77 82.4505 134.01 79.952 134.27 79.4523C137.94 72.5214 133 59.1044 133 59.1044Z" fill="white"/>
<path d="M116.775 82.6902C116.71 82.6885 116.649 82.6616 116.605 82.6153C116.58 82.5868 116.563 82.5529 116.554 82.5164C116.546 82.4799 116.546 82.4418 116.555 82.4054L117.88 77.4084C117.892 77.3688 117.914 77.3329 117.944 77.304C117.973 77.2752 118.01 77.2544 118.05 77.2435L129.83 74.5951L130.33 64.651C130.535 60.5034 132.18 58.7795 132.945 58.5946C133.017 58.5679 133.096 58.5662 133.17 58.5897C133.243 58.6133 133.307 58.6607 133.35 58.7245C133.385 58.7973 133.397 58.8791 133.383 58.9588C133.37 59.0385 133.332 59.112 133.275 59.1692C134.124 61.6156 134.792 64.1208 135.275 66.6648C136.315 72.3164 136.06 76.6588 134.515 79.5821C134.305 79.9818 128.36 81.0362 116.845 82.7102L116.775 82.6902ZM118.275 77.6432L117.07 82.1855C123.65 81.2261 133.29 79.712 134.07 79.3023C137.595 72.5313 132.81 59.3141 132.76 59.1842C132.175 59.619 130.93 61.1081 130.76 64.681L130.26 74.7949C130.257 74.845 130.238 74.8928 130.206 74.9308C130.173 74.9688 130.129 74.9949 130.08 75.0048L118.275 77.6432Z" fill="#231F20"/>
<path d="M79.5499 57.605C79.5499 57.605 82.2199 58.5744 83.0499 58.4145C83.8799 58.2546 85.4649 57.2052 85.5499 57.6449C85.6349 58.0847 84.4599 58.7493 84.4599 58.7493C84.4599 58.7493 89.0999 58.6293 89.0549 59.4239C89.0099 60.2184 87.9099 61.9874 87.1099 62.0723C86.3099 62.1573 78.6099 61.3827 78.6099 61.3827" fill="white"/>
<path d="M86.9399 62.3323C85.4999 62.3323 78.8699 61.6627 78.5749 61.6327C78.542 61.6294 78.5102 61.6197 78.4811 61.6041C78.452 61.5886 78.4263 61.5674 78.4054 61.5419C78.3845 61.5164 78.3689 61.487 78.3593 61.4554C78.3498 61.4238 78.3466 61.3907 78.3499 61.3579C78.3532 61.3251 78.3629 61.2932 78.3785 61.2642C78.3941 61.2351 78.4152 61.2094 78.4408 61.1885C78.4663 61.1677 78.4957 61.152 78.5273 61.1425C78.5589 61.133 78.592 61.1297 78.6249 61.133C80.7599 61.3479 86.4499 61.8976 87.0849 61.8226C87.7199 61.7477 88.7699 60.1536 88.8099 59.4041C88.6399 59.1392 86.6499 58.9343 84.4699 58.9943C84.4141 58.996 84.3594 58.9786 84.3148 58.945C84.2703 58.9113 84.2385 58.8635 84.2249 58.8094C84.2096 58.7559 84.2126 58.6988 84.2334 58.6472C84.2542 58.5956 84.2917 58.5525 84.3399 58.5246C84.68 58.3478 84.9877 58.1146 85.2499 57.835C84.9608 57.9329 84.6785 58.0497 84.4049 58.1848C83.9914 58.3989 83.5554 58.5665 83.1049 58.6845C82.2249 58.8494 79.7449 57.9649 79.4649 57.86C79.4299 57.8525 79.3969 57.8376 79.3682 57.8163C79.3394 57.795 79.3156 57.7678 79.2983 57.7365C79.281 57.7052 79.2706 57.6706 79.2678 57.6349C79.2651 57.5993 79.27 57.5634 79.2823 57.5298C79.2946 57.4963 79.3139 57.4657 79.3391 57.4402C79.3642 57.4148 79.3945 57.395 79.4279 57.3822C79.4613 57.3695 79.4971 57.364 79.5328 57.3663C79.5685 57.3685 79.6033 57.3784 79.6349 57.3952C80.3599 57.6551 82.3849 58.3147 83.0099 58.1948C83.4189 58.0804 83.8158 57.9264 84.1949 57.735C84.9399 57.3903 85.3449 57.2353 85.6099 57.3603C85.6599 57.3867 85.7031 57.4243 85.7361 57.4703C85.7691 57.5163 85.7909 57.5693 85.7999 57.6251C85.8549 57.9349 85.5949 58.2547 85.2999 58.5146C86.5649 58.5146 88.7049 58.5995 89.1899 59.1042C89.2374 59.1509 89.2744 59.2071 89.2986 59.2691C89.3227 59.3311 89.3334 59.3976 89.3299 59.464C89.2849 60.2785 88.1449 62.2374 87.1599 62.3473L86.9399 62.3323Z" fill="#231F20"/>
<path d="M123.925 29.5669H82.4399V60.7284H123.925V29.5669Z" fill="white"/>
<path d="M123.925 60.9731H82.4248C82.3585 60.9731 82.2949 60.9467 82.248 60.8999C82.2011 60.853 82.1748 60.7895 82.1748 60.7232V29.5667C82.1748 29.5005 82.2011 29.4369 82.248 29.3901C82.2949 29.3432 82.3585 29.3169 82.4248 29.3169H123.925C123.991 29.3169 124.055 29.3432 124.102 29.3901C124.148 29.4369 124.175 29.5005 124.175 29.5667V60.7232C124.175 60.7895 124.148 60.853 124.102 60.8999C124.055 60.9467 123.991 60.9731 123.925 60.9731ZM82.6898 60.4734H123.69V29.8166H82.6898V60.4734Z" fill="#D1D3D4"/>
<path d="M56.4299 72.7761L66.1298 97.7113L66.3998 115.801H61.7548L58.9998 98.8956L49.3849 85.9033C49.3849 85.9033 43.7299 96.3021 42.2399 98.6008C37.9854 105.074 32.6015 110.731 26.3449 115.301H21.6099C21.6099 115.301 36.6099 89.5162 37.3749 82.8201C38.1399 76.1241 41.5799 68.5786 41.5799 68.5786L56.4299 72.7761Z" fill="#231F20"/>
<path d="M66.3999 116.05H61.7549C61.6959 116.05 61.6389 116.029 61.594 115.99C61.5492 115.952 61.5194 115.899 61.5099 115.841L58.7649 98.9955L49.4199 86.343C48.4199 88.167 43.7799 96.6669 42.4549 98.7107C38.1762 105.204 32.7733 110.883 26.4999 115.481C26.4593 115.51 26.4102 115.526 26.3599 115.526H21.6099C21.5651 115.525 21.5211 115.513 21.4825 115.49C21.4438 115.467 21.4119 115.435 21.3899 115.396C21.3689 115.357 21.3579 115.315 21.3579 115.271C21.3579 115.227 21.3689 115.184 21.3899 115.146C21.5399 114.891 36.3899 89.3363 37.1249 82.7652C37.8849 76.1041 41.3099 68.5236 41.3449 68.4487C41.3692 68.3939 41.4123 68.3496 41.4664 68.3239C41.5206 68.2983 41.5821 68.2929 41.6399 68.3088L56.4999 72.5362C56.5367 72.5462 56.5706 72.5645 56.5992 72.5896C56.6278 72.6147 56.6503 72.646 56.6649 72.6812L66.3599 97.6213C66.3623 97.6513 66.3623 97.6813 66.3599 97.7113L66.6499 115.801C66.6499 115.867 66.6238 115.931 66.577 115.979C66.5303 116.027 66.4667 116.054 66.3999 116.055V116.05ZM61.9699 115.551H66.1449L65.8799 97.7613L56.2449 72.981L41.7449 68.8484C41.2049 70.0777 38.3349 76.8437 37.6499 82.8401C36.9299 89.1514 23.9899 111.718 22.0699 115.046H26.2899C32.4847 110.491 37.8237 104.876 42.0599 98.4608C43.5249 96.1922 49.1399 85.8833 49.1949 85.7784C49.215 85.7416 49.244 85.7104 49.2792 85.6877C49.3145 85.665 49.3549 85.6515 49.3967 85.6486C49.4386 85.6456 49.4805 85.6532 49.5186 85.6706C49.5567 85.688 49.5899 85.7148 49.6149 85.7484L59.2299 98.7657C59.2541 98.7978 59.2696 98.8357 59.2749 98.8756L61.9699 115.551Z" fill="#231F20"/>
<path d="M26 114.956C25.9895 115.818 26.043 116.68 26.16 117.535C26.32 118.109 27.69 119.638 27.69 120.113C27.69 120.588 22.335 120.813 21.92 120.113C21.505 119.413 21.7 118.649 21.92 117.694C22.0941 116.845 22.2011 115.983 22.24 115.116" fill="#231F20"/>
<path d="M24.5 120.798C23.205 120.798 21.94 120.658 21.685 120.233C21.23 119.458 21.42 118.639 21.645 117.69V117.63C21.8107 116.797 21.9143 115.954 21.955 115.106C21.955 115.04 21.9813 114.976 22.0282 114.929C22.0751 114.883 22.1387 114.856 22.205 114.856C22.2713 114.856 22.3349 114.883 22.3818 114.929C22.4287 114.976 22.455 115.04 22.455 115.106C22.4144 115.991 22.3057 116.871 22.13 117.739V117.804C21.925 118.684 21.76 119.379 22.13 119.978C22.13 119.978 22.25 120.118 22.995 120.213C24.525 120.413 26.915 120.238 27.415 120.023C27.2081 119.619 26.9655 119.235 26.69 118.874C26.3756 118.482 26.115 118.05 25.915 117.59C25.7875 116.714 25.7306 115.83 25.745 114.946C25.745 114.88 25.7713 114.816 25.8182 114.769C25.8651 114.723 25.9287 114.696 25.995 114.696C26.0613 114.696 26.1249 114.723 26.1718 114.769C26.2186 114.816 26.245 114.88 26.245 114.946C26.2302 115.782 26.2804 116.617 26.395 117.445C26.5859 117.844 26.8206 118.221 27.095 118.569C27.595 119.304 27.935 119.768 27.935 120.068C27.935 120.368 27.565 120.468 27.405 120.508C26.4495 120.706 25.4758 120.803 24.5 120.798Z" fill="#231F20"/>
<path d="M65.9999 114.431C65.9999 114.431 65.6999 116.895 66.0399 117.659C66.3799 118.424 71.0999 120.503 70.9699 120.882C70.8399 121.262 62.5599 121.052 62.2599 120.627C61.9599 120.203 62.0899 120.033 62.0499 119.018C62.0099 118.004 61.7949 115.521 61.7949 115.521" fill="#231F20"/>
<path d="M68.385 121.332C67.59 121.332 66.73 121.332 65.975 121.287C62.335 121.147 62.155 120.893 62.07 120.788C61.8592 120.481 61.7701 120.107 61.82 119.738C61.82 119.558 61.82 119.339 61.82 119.044C61.775 118.044 61.565 115.596 61.565 115.546C61.562 115.513 61.5656 115.48 61.5754 115.448C61.5852 115.417 61.6012 115.388 61.6223 115.363C61.665 115.311 61.7262 115.279 61.7925 115.273C61.8588 115.267 61.9247 115.288 61.9758 115.331C62.0269 115.373 62.059 115.435 62.065 115.501C62.065 115.526 62.275 117.999 62.32 118.999C62.32 119.304 62.32 119.533 62.32 119.718C62.32 120.113 62.32 120.218 62.46 120.448C63.085 120.743 69.05 120.948 70.54 120.753C70.17 120.498 69.425 120.088 68.795 119.753C67.085 118.814 66.03 118.209 65.83 117.754C65.47 116.95 65.735 114.656 65.765 114.396C65.7689 114.364 65.7793 114.332 65.7955 114.303C65.8117 114.274 65.8334 114.249 65.8594 114.229C65.8854 114.208 65.9152 114.193 65.947 114.184C65.9789 114.175 66.0121 114.173 66.045 114.177C66.0778 114.181 66.1095 114.191 66.1384 114.207C66.1672 114.223 66.1925 114.245 66.213 114.271C66.2334 114.297 66.2485 114.327 66.2574 114.359C66.2664 114.39 66.2689 114.424 66.265 114.456C66.185 115.121 66.03 116.955 66.265 117.55C66.41 117.879 67.98 118.744 69.015 119.314C70.95 120.373 71.32 120.613 71.2 120.958C71.14 121.152 70.915 121.197 70.675 121.232C69.9143 121.311 69.1496 121.345 68.385 121.332Z" fill="#231F20"/>
<path d="M25.965 115.65H22.36C22.3213 115.661 22.2806 115.663 22.241 115.656C22.2014 115.649 22.1641 115.632 22.132 115.608C22.0999 115.584 22.0738 115.552 22.0559 115.516C22.0379 115.48 22.0286 115.441 22.0286 115.4C22.0286 115.36 22.0379 115.321 22.0559 115.285C22.0738 115.249 22.0999 115.217 22.132 115.193C22.1641 115.169 22.2014 115.152 22.241 115.145C22.2806 115.138 22.3213 115.14 22.36 115.151H25.965C26.0037 115.14 26.0444 115.138 26.084 115.145C26.1235 115.152 26.1608 115.169 26.193 115.193C26.2251 115.217 26.2512 115.249 26.2691 115.285C26.2871 115.321 26.2964 115.36 26.2964 115.4C26.2964 115.441 26.2871 115.48 26.2691 115.516C26.2512 115.552 26.2251 115.584 26.193 115.608C26.1608 115.632 26.1235 115.649 26.084 115.656C26.0444 115.663 26.0037 115.661 25.965 115.65Z" fill="white"/>
<path d="M51.2399 47.0663C50.1299 46.6166 48.9449 46.0669 47.8949 46.0669C44.8699 46.0669 43.5799 49.6098 42.9499 51.9934C41.2949 58.2596 40.6749 64.9057 39.6299 71.3219C39.6299 71.3219 52.6699 76.9585 57.0749 74.0153L60.8299 59.5889L81.2049 62.5871C81.2049 62.5871 81.6499 58.4645 81.8899 56.9354C81.8899 56.9354 55.4249 48.3655 52.4649 47.516C52.0699 47.3911 51.6599 47.2362 51.2399 47.0663Z" fill="#F97794"/>
<path d="M55.6801 51.2236L54.2801 52.5329L55.0101 53.2125L51.6401 66.0998L54.4901 69.5427L56.5001 66.7294L55.7551 53.2524L56.6051 52.6878L55.6801 51.2236Z" fill="white"/>
<path d="M53.7497 46.9314C50.4297 47.4311 49.4447 41.7145 49.3897 39.261C49.3569 38.7215 49.4265 38.1806 49.5947 37.6669C49.8073 37.1913 50.1195 36.7667 50.5102 36.4219C50.901 36.0771 51.3612 35.8201 51.8597 35.6681C52.8433 35.3742 53.8456 35.1472 54.8597 34.9885C57.1393 34.4975 59.255 33.4309 61.0047 31.8904C61.5947 31.3907 62.2747 30.756 63.0497 30.891C63.3008 30.9539 63.5343 31.0729 63.7326 31.2391C63.931 31.4053 64.089 31.6143 64.1947 31.8504C64.4549 32.3897 64.5722 32.9867 64.5355 33.5843C64.4987 34.1818 64.3091 34.76 63.9847 35.2634C63.3297 36.3327 62.3147 36.8774 61.2797 37.477C61.7797 38.2816 62.0147 38.4765 61.7797 39.4009C61.5275 40.2449 61.1262 41.0369 60.5947 41.7395C60.0228 42.466 59.3959 43.1476 58.7197 43.7783C57.3347 45.1875 55.9597 46.4967 53.9097 46.8965C53.8575 46.9127 53.804 46.9244 53.7497 46.9314Z" fill="white"/>
<path d="M53.3402 47.2163C52.7001 47.2152 52.082 46.9827 51.6002 46.5617C49.7452 45.0076 49.1802 41.1099 49.1402 39.266C49.1078 38.6942 49.1824 38.1215 49.3602 37.577C49.5906 37.0737 49.9249 36.6248 50.3411 36.2597C50.7573 35.8945 51.246 35.6214 51.7752 35.4583C52.4628 35.2313 53.1687 35.0641 53.8852 34.9586C54.2002 34.8986 54.5152 34.8436 54.8302 34.7787C57.0657 34.2914 59.1407 33.2442 60.8602 31.7355C61.4902 31.1808 62.2402 30.5262 63.1152 30.6861C63.397 30.7534 63.6602 30.883 63.8852 31.0655C64.1102 31.248 64.2913 31.4787 64.4152 31.7405C64.6951 32.3186 64.8223 32.9587 64.7847 33.5999C64.747 34.241 64.5458 34.8619 64.2002 35.4033C63.5439 36.3378 62.6568 37.0866 61.6252 37.577C61.6413 37.5968 61.6548 37.6186 61.6652 37.642C61.877 37.8914 62.0217 38.1907 62.0856 38.5116C62.1495 38.8325 62.1304 39.1644 62.0302 39.4759C61.7631 40.3476 61.3488 41.1673 60.8052 41.8994C60.3505 42.484 59.8488 43.0305 59.3052 43.5335L58.8802 43.9632C57.3802 45.4623 56.0102 46.7466 53.9402 47.1563L53.7652 47.1863C53.6242 47.2048 53.4823 47.2148 53.3402 47.2163ZM62.8452 31.1558C62.2702 31.1558 61.7152 31.6555 61.2252 32.0753C59.4345 33.6552 57.2692 34.751 54.9352 35.2584C54.6152 35.3284 54.2952 35.3883 53.9702 35.4433C53.2906 35.5531 52.6215 35.7203 51.9702 35.943C51.5077 36.0799 51.0799 36.3139 50.7151 36.6293C50.3504 36.9447 50.0572 37.3342 49.8552 37.7719C49.697 38.255 49.6326 38.7638 49.6652 39.271C49.7102 41.3248 50.3552 44.8577 51.9452 46.1919C52.1869 46.404 52.4733 46.5591 52.7832 46.6456C53.093 46.732 53.4184 46.7478 53.7352 46.6916L53.8902 46.6616C55.8202 46.2868 57.1502 45.0576 58.5702 43.6134L59.0052 43.1787C59.5202 42.6931 59.9951 42.1667 60.4252 41.6046C60.9234 40.9203 61.3021 40.1566 61.5452 39.346C61.7152 38.6564 61.5952 38.4665 61.2452 37.8968L61.0652 37.612C61.0518 37.5812 61.0449 37.5481 61.0449 37.5145C61.0449 37.481 61.0518 37.4479 61.0652 37.4171C61.072 37.3851 61.0858 37.3551 61.1057 37.3292C61.1256 37.3032 61.1511 37.2821 61.1802 37.2672L61.3452 37.1723C62.3052 36.6176 63.2102 36.0979 63.7952 35.1385C64.0959 34.6723 64.2726 34.137 64.3085 33.5835C64.3444 33.03 64.2382 32.4764 64.0002 31.9753C63.9112 31.7793 63.7799 31.6055 63.6156 31.4664C63.4513 31.3273 63.2582 31.2263 63.0502 31.1708C62.9824 31.1594 62.9138 31.1544 62.8452 31.1558Z" fill="#231F20"/>
<path d="M61.3149 42.1641C61.3149 42.1641 62.5399 44.6076 62.1749 45.0424C61.8099 45.4771 60.8149 45.0424 60.8149 45.0424" fill="white"/>
<path d="M61.6548 45.4821C61.331 45.4677 61.0126 45.3949 60.7148 45.2672C60.6538 45.2407 60.6058 45.191 60.5814 45.1292C60.557 45.0673 60.5582 44.9983 60.5848 44.9374C60.6113 44.8764 60.661 44.8285 60.7228 44.8041C60.7847 44.7797 60.8538 44.7809 60.9148 44.8075C61.2448 44.9524 61.8148 45.0723 61.9848 44.8774C62.1548 44.6825 61.6798 43.4483 61.0898 42.274C61.0614 42.2147 61.057 42.1469 61.0775 42.0845C61.098 42.0221 61.1418 41.9701 61.1998 41.9392C61.2293 41.9247 61.2614 41.9161 61.2943 41.9141C61.3271 41.912 61.36 41.9164 61.3911 41.9271C61.4223 41.9378 61.451 41.9545 61.4756 41.9763C61.5003 41.9981 61.5204 42.0245 61.5348 42.0541C62.0348 43.0185 62.7748 44.7175 62.3648 45.2022C62.2742 45.298 62.1636 45.3727 62.0409 45.4211C61.9182 45.4694 61.7864 45.4902 61.6548 45.4821Z" fill="#231F20"/>
<path d="M61.4448 37.1222C62.3048 38.0167 61.7398 41.6195 61.6048 42.7039C61.4115 44.2096 61.1848 45.7088 60.9248 47.2012C60.7548 48.1506 58.2848 47.8758 57.8798 47.536L57.8148 51.3487C57.8148 51.3487 56.5898 51.5336 54.7098 50.3493C52.8298 49.165 52.8648 48.7153 52.8648 48.7153L53.5498 44.3879C53.5498 44.3879 55.1848 44.5977 56.3798 42.7688C57.5748 40.9399 57.8798 37.9517 57.8798 37.9517C57.8798 37.9517 60.6098 36.2527 61.4448 37.1222Z" fill="white"/>
<path d="M57.61 51.6038C56.5276 51.5538 55.4796 51.2082 54.58 50.6044C52.76 49.485 52.58 48.9254 52.615 48.7355L53.305 44.3881C53.3149 44.3234 53.3498 44.2652 53.4022 44.226C53.4545 44.1868 53.5202 44.1696 53.585 44.1782C53.64 44.1782 55.085 44.3331 56.17 42.6791C57.325 40.9251 57.67 37.9969 57.67 37.9669C57.675 37.9297 57.6878 37.894 57.7076 37.8621C57.7275 37.8302 57.7539 37.8029 57.785 37.782C58.08 37.5971 60.695 35.9881 61.645 36.9775C62.42 37.782 62.215 40.2106 61.91 42.4742L61.87 42.759C61.68 44.2582 61.45 45.7573 61.19 47.2564C61.1492 47.4234 61.0632 47.5761 60.9416 47.6977C60.8199 47.8193 60.6672 47.9051 60.5 47.946C59.7235 48.1523 58.9051 48.1402 58.135 47.911L58.075 51.3489C58.0746 51.408 58.0533 51.4649 58.0149 51.5098C57.9764 51.5546 57.9233 51.5844 57.865 51.5938C57.865 51.5938 57.76 51.6038 57.61 51.6038ZM53.11 48.7255C53.145 48.8154 53.395 49.2652 54.83 50.1546C55.6412 50.7044 56.5826 51.0318 57.56 51.1041L57.62 47.5262C57.6218 47.4792 57.6368 47.4336 57.6633 47.3947C57.6898 47.3558 57.7268 47.3251 57.77 47.3063C57.8129 47.2859 57.8607 47.2783 57.9077 47.2845C57.9548 47.2907 57.999 47.3105 58.035 47.3413C58.7576 47.6288 59.5535 47.6761 60.305 47.4762C60.52 47.3963 60.645 47.2864 60.665 47.1564C60.925 45.6573 61.165 44.1582 61.345 42.6591L61.385 42.3693C61.53 41.2899 61.965 38.0169 61.255 37.2823C60.755 36.7826 59.12 37.4922 58.125 38.1018C58.05 38.6915 57.675 41.24 56.58 42.904C56.2898 43.4047 55.8798 43.8258 55.3868 44.1292C54.8938 44.4327 54.3331 44.6092 53.755 44.6429L53.11 48.7255Z" fill="#231F20"/>
<path d="M61 46.0717C60.5759 46.1058 60.1536 45.9869 59.8097 45.7367C59.4657 45.4864 59.2228 45.1213 59.125 44.7075" fill="white"/>
<path d="M60.8651 46.3419C60.4136 46.334 59.9773 46.1782 59.6232 45.8983C59.2691 45.6184 59.0168 45.23 58.9051 44.7928C58.8852 44.7266 58.8924 44.6551 58.9252 44.5942C58.9581 44.5333 59.0137 44.4879 59.0801 44.468C59.1464 44.4482 59.2178 44.4554 59.2788 44.4882C59.3397 44.521 59.3852 44.5767 59.4051 44.6429C59.4842 45 59.6884 45.3171 59.9809 45.537C60.2733 45.7569 60.6348 45.8652 61.0001 45.8422C61.0329 45.838 61.0663 45.8404 61.0982 45.8492C61.1302 45.8581 61.16 45.8731 61.1861 45.8936C61.2121 45.9141 61.2339 45.9395 61.25 45.9684C61.2661 45.9973 61.2763 46.0292 61.2801 46.0621C61.2873 46.1274 61.2689 46.193 61.2288 46.2452C61.1888 46.2973 61.1301 46.332 61.0651 46.3419H60.8651Z" fill="#231F20"/>
<path d="M58.3101 42.784C58.3143 42.4022 58.2121 42.0267 58.0151 41.6996C57.8993 41.4275 57.7425 41.1748 57.5501 40.9501C57.4536 40.8387 57.3336 40.75 57.1987 40.6904C57.0639 40.6308 56.9175 40.6017 56.7701 40.6053C56.6408 40.6219 56.5165 40.6657 56.4054 40.7338C56.2942 40.8018 56.1987 40.8925 56.1251 41C55.9783 41.2174 55.8826 41.4651 55.8451 41.7246C55.7538 42.2885 55.8124 42.8665 56.0151 43.4007C56.2179 43.9348 56.5575 44.4063 57.0001 44.7678L56.9301 44.6679" fill="white"/>
<path d="M56.9998 45.0176C56.9435 45.0169 56.889 44.9976 56.8448 44.9627C56.37 44.5709 56.0061 44.0617 55.7894 43.4857C55.5728 42.9097 55.5108 42.287 55.6098 41.6796C55.6524 41.3841 55.7618 41.1021 55.9298 40.8551C56.0244 40.7174 56.1474 40.6016 56.2906 40.5154C56.4338 40.4292 56.5938 40.3746 56.7598 40.3554C56.9479 40.345 57.1359 40.3778 57.3093 40.4515C57.4827 40.5251 57.6368 40.6376 57.7598 40.7802C57.9659 41.0236 58.1345 41.2964 58.2598 41.5897C58.4798 41.9576 58.5908 42.3805 58.5798 42.809C58.5725 42.8752 58.5392 42.9359 58.4871 42.9776C58.4351 43.0193 58.3686 43.0386 58.3023 43.0313C58.236 43.024 58.1753 42.9907 58.1336 42.9387C58.0919 42.8867 58.0725 42.8203 58.0798 42.754C58.0769 42.4199 57.9818 42.093 57.8048 41.8096C57.6978 41.5612 57.5564 41.329 57.3848 41.12C57.3127 41.037 57.2236 40.9704 57.1235 40.9247C57.0235 40.879 56.9148 40.8553 56.8048 40.8551C56.711 40.8691 56.6212 40.9026 56.5411 40.9534C56.461 41.0042 56.3925 41.0711 56.3398 41.1499C56.2162 41.3364 56.1359 41.5481 56.1048 41.7696C56.0267 42.2513 56.0674 42.7447 56.2233 43.2071C56.3793 43.6695 56.6458 44.0869 56.9998 44.423C57.0567 44.4391 57.1061 44.4744 57.1398 44.5229L57.2148 44.6179C57.251 44.667 57.2679 44.7277 57.2623 44.7885C57.2568 44.8492 57.2292 44.9059 57.1848 44.9477C57.1348 44.9945 57.0683 45.0196 56.9998 45.0176Z" fill="#231F20"/>
<path d="M57.8801 47.5308C57.1743 47.2072 56.577 46.6866 56.1602 46.0317C56.1602 46.0317 55.9702 48.3304 57.8501 49.2298L57.8801 47.5308Z" fill="#231F20"/>
<path d="M57.8499 49.48C57.8152 49.4869 57.7795 49.4869 57.7449 49.48C55.7449 48.5206 55.8999 46.137 55.9099 46.0371C55.9142 45.983 55.9361 45.9318 55.9722 45.8912C56.0083 45.8506 56.0566 45.8229 56.1099 45.8122C56.1629 45.8001 56.2186 45.8063 56.2676 45.8299C56.3167 45.8535 56.3563 45.8931 56.3799 45.9421C56.7803 46.5393 57.342 47.0106 57.9999 47.3013C58.0444 47.3219 58.082 47.3552 58.1077 47.3969C58.1335 47.4387 58.1464 47.4871 58.1449 47.5362L58.1149 49.2352C58.1148 49.277 58.1042 49.3181 58.0841 49.3548C58.064 49.3914 58.0351 49.4225 57.9999 49.4451C57.9537 49.4696 57.902 49.4816 57.8499 49.48ZM56.4499 46.8416C56.4988 47.2315 56.6269 47.6072 56.8264 47.9458C57.0259 48.2843 57.2925 48.5786 57.6099 48.8104V47.6911C57.1849 47.4642 56.7943 47.1782 56.4499 46.8416Z" fill="#231F20"/>
<path d="M60.6319 40.8972C60.7154 40.611 60.6907 40.3521 60.5767 40.3189C60.4627 40.2857 60.3026 40.4907 60.2191 40.7768C60.1356 41.063 60.1603 41.3219 60.2743 41.3551C60.3883 41.3883 60.5484 41.1833 60.6319 40.8972Z" fill="#231F20"/>
<path d="M61.0852 40.9001C61.039 40.8991 60.994 40.8852 60.9552 40.8602L59.9552 40.2505C59.9002 40.2155 59.861 40.1604 59.846 40.0969C59.8311 40.0334 59.8415 39.9666 59.8752 39.9107C59.8917 39.8819 59.9138 39.8567 59.9404 39.8366C59.9669 39.8166 59.9972 39.8022 60.0295 39.7942C60.0618 39.7863 60.0953 39.785 60.1281 39.7904C60.1609 39.7958 60.1922 39.8079 60.2202 39.8258L61.2202 40.4354C61.2486 40.4524 61.2733 40.4748 61.2929 40.5013C61.3126 40.5279 61.3268 40.558 61.3347 40.5901C61.3426 40.6222 61.344 40.6555 61.339 40.6881C61.3339 40.7207 61.3225 40.752 61.3052 40.7802C61.2816 40.8171 61.2491 40.8474 61.2106 40.8684C61.1722 40.8894 61.129 40.9003 61.0852 40.9001Z" fill="#231F20"/>
<path d="M60.4649 61.5274C60.4402 61.5323 60.4147 61.5323 60.3899 61.5274C60.3268 61.5067 60.2743 61.4623 60.2435 61.4035C60.2127 61.3447 60.206 61.2762 60.2249 61.2126C60.2249 61.1776 61.3949 57.4848 61.7249 56.0857C61.7408 56.0194 61.7824 55.9622 61.8406 55.9265C61.8987 55.8909 61.9686 55.8799 62.0349 55.8958C62.1012 55.9117 62.1585 55.9532 62.1941 56.0113C62.2298 56.0695 62.2408 56.1393 62.2249 56.2056C61.8799 57.6197 60.7549 61.2026 60.7249 61.3625C60.7062 61.4151 60.6705 61.4598 60.6234 61.4897C60.5762 61.5196 60.5205 61.5329 60.4649 61.5274Z" fill="#231F20"/>
<path d="M39.6599 77.7482C39.5972 77.7486 39.5365 77.7259 39.4894 77.6844C39.4424 77.6429 39.4123 77.5855 39.4049 77.5233C39.3963 77.4558 39.4146 77.3877 39.4557 77.3335C39.4968 77.2793 39.5576 77.2434 39.6249 77.2335C40.4485 77.108 41.2191 76.7497 41.8455 76.2007C42.4719 75.6517 42.928 74.935 43.1599 74.1353C43.1662 74.0998 43.1797 74.0659 43.1998 74.0359C43.2199 74.0059 43.246 73.9804 43.2764 73.961C43.3069 73.9416 43.3411 73.9288 43.3768 73.9234C43.4125 73.9179 43.4489 73.92 43.4838 73.9294C43.5186 73.9388 43.5511 73.9554 43.5792 73.978C43.6073 74.0007 43.6304 74.0289 43.647 74.061C43.6636 74.0931 43.6733 74.1282 43.6755 74.1643C43.6777 74.2003 43.6724 74.2364 43.6599 74.2702C43.4036 75.1715 42.8937 75.9803 42.1908 76.6004C41.4879 77.2205 40.6216 77.6258 39.6949 77.7681L39.6599 77.7482Z" fill="white"/>
<path d="M77.23 46.042C77.23 46.042 78.845 45.2924 79.925 44.6328C80.8763 43.9508 81.7528 43.1703 82.54 42.3042V43.0238C82.54 43.2636 82.43 43.9732 82.565 44.1731C82.7 44.373 83.915 43.9682 84.25 43.8933C84.905 43.7433 85.56 43.6134 86.22 43.4985C86.468 43.4462 86.7225 43.4311 86.975 43.4535C87.1011 43.4656 87.2228 43.5061 87.331 43.5718C87.4392 43.6376 87.5312 43.727 87.6 43.8333C87.6623 43.9944 87.6892 44.1671 87.6788 44.3395C87.6685 44.512 87.6211 44.6802 87.54 44.8327C87.3798 45.2916 87.1281 45.7132 86.8 46.072C86.3785 46.4478 85.8923 46.7441 85.365 46.9464L83.54 47.7709C81.8491 48.4787 80.1235 49.1007 78.37 49.6348" fill="white"/>
<path d="M78.3801 49.8897C78.3138 49.8976 78.2471 49.8789 78.1946 49.8377C78.1421 49.7965 78.1081 49.7361 78.1001 49.6698C78.0922 49.6036 78.1109 49.5368 78.1521 49.4844C78.1934 49.4319 78.2538 49.3979 78.3201 49.39C79.5901 49.0802 83.0051 47.741 83.4501 47.5411L85.2701 46.7116C85.7702 46.5223 86.2312 46.2428 86.6301 45.8871C86.9349 45.5522 87.1695 45.1597 87.3201 44.7328C87.3879 44.6148 87.4293 44.4836 87.4414 44.3482C87.4535 44.2127 87.436 44.0763 87.3901 43.9482C87.3402 43.8755 87.2749 43.8145 87.1989 43.7696C87.1229 43.7247 87.038 43.697 86.9501 43.6884C86.7239 43.6694 86.4961 43.6863 86.2751 43.7384C85.6201 43.8483 84.9601 43.9782 84.3151 44.1281C84.2451 44.1281 84.1301 44.1781 83.9951 44.2231C83.1551 44.4829 82.5901 44.6278 82.3651 44.303C82.2414 43.9848 82.2136 43.6374 82.2851 43.3036C82.2913 43.2138 82.2913 43.1236 82.2851 43.0338V42.9238C81.6122 43.6409 80.8646 44.2842 80.0551 44.8427C78.9751 45.5023 77.4001 46.2319 77.3351 46.2618C77.3057 46.2761 77.2736 46.2843 77.2409 46.2859C77.2083 46.2876 77.1756 46.2827 77.1448 46.2715C77.114 46.2603 77.0858 46.2431 77.0618 46.2208C77.0379 46.1986 77.0186 46.1717 77.0051 46.1419C76.9908 46.1121 76.9825 46.0797 76.9808 46.0467C76.9791 46.0137 76.9839 45.9806 76.9951 45.9495C77.0063 45.9183 77.0235 45.8897 77.0458 45.8653C77.0682 45.8408 77.0951 45.8211 77.1251 45.8071C77.1251 45.8071 78.7401 45.0576 79.7951 44.4179C80.7275 43.7483 81.5857 42.9811 82.3551 42.1293C82.3892 42.0923 82.434 42.0667 82.4832 42.0559C82.5324 42.0452 82.5837 42.0499 82.6301 42.0693C82.6771 42.0867 82.7176 42.1181 82.7463 42.1592C82.7749 42.2003 82.7902 42.2491 82.7901 42.2992V43.0138C82.7964 43.1203 82.7964 43.2271 82.7901 43.3336C82.7678 43.5546 82.7678 43.7772 82.7901 43.9982C83.1577 43.9612 83.519 43.8773 83.8651 43.7483L84.2251 43.6434C84.8801 43.4985 85.5451 43.3636 86.2251 43.2486C86.4973 43.1877 86.7776 43.1708 87.0551 43.1987C87.2185 43.2153 87.3759 43.269 87.5154 43.3556C87.6549 43.4422 87.7728 43.5594 87.8601 43.6984C87.9456 43.8907 87.9864 44.0998 87.9794 44.3101C87.9725 44.5204 87.9181 44.7264 87.8201 44.9127C87.639 45.4093 87.3602 45.8647 87.0001 46.2519C86.5613 46.6496 86.0528 46.963 85.5001 47.1763L83.6801 48.0058C81.9744 48.7191 80.2339 49.3462 78.4651 49.8847L78.3801 49.8897Z" fill="#231F20"/>
<path d="M46.5351 47.466C47.0651 47.6109 74.0351 46.0768 78.6051 44.7676L80.45 49.6397C80.45 49.6397 67.4501 54.6367 46.5351 56.9253C39.8551 55.5212 46.5351 47.466 46.5351 47.466Z" fill="#F97794"/>
<path d="M46.5351 57.1754C46.4757 57.176 46.4182 57.155 46.3731 57.1164C46.3281 57.0778 46.2985 57.0242 46.2901 56.9655C46.2814 56.9001 46.2984 56.8338 46.3376 56.7807C46.3767 56.7276 46.435 56.6917 46.5001 56.6807C46.7251 56.6457 69.0801 53.1528 79.2551 49.6848C79.3187 49.6642 79.388 49.6694 79.4478 49.6993C79.5077 49.7292 79.5534 49.7814 79.5751 49.8447C79.5859 49.8759 79.5904 49.9089 79.5882 49.9418C79.5859 49.9747 79.5771 50.0068 79.5622 50.0362C79.5472 50.0656 79.5265 50.0917 79.5012 50.1129C79.4759 50.1341 79.4466 50.1499 79.4151 50.1595C69.2001 53.6175 46.8001 57.1154 46.5751 57.1554L46.5351 57.1754Z" fill="#231F20"/>
<path d="M103.18 99.9698C114.024 99.9698 122.815 91.1842 122.815 80.3465C122.815 69.5088 114.024 60.7231 103.18 60.7231C92.3358 60.7231 83.5449 69.5088 83.5449 80.3465C83.5449 91.1842 92.3358 99.9698 103.18 99.9698Z" fill="white"/>
<path d="M103.18 100.22C99.247 100.22 95.4025 99.054 92.1324 96.8703C88.8623 94.6866 86.3136 91.5828 84.8086 87.9515C83.3035 84.3201 82.9097 80.3243 83.677 76.4693C84.4443 72.6143 86.3381 69.0732 89.1191 66.2939C91.9001 63.5146 95.4432 61.6218 99.3006 60.855C103.158 60.0882 107.156 60.4818 110.79 61.9859C114.423 63.4901 117.529 66.0373 119.714 69.3054C121.899 72.5735 123.065 76.4158 123.065 80.3463C123.06 85.6154 120.963 90.6672 117.235 94.393C113.507 98.1188 108.452 100.214 103.18 100.22ZM103.18 60.9729C99.3459 60.9729 95.598 62.1091 92.4102 64.2379C89.2224 66.3667 86.7377 69.3924 85.2705 72.9324C83.8033 76.4725 83.4194 80.3678 84.1674 84.1259C84.9154 87.884 86.7616 91.336 89.4727 94.0455C92.1837 96.7549 95.6378 98.6 99.3981 99.3476C103.158 100.095 107.056 99.7114 110.598 98.2451C114.14 96.7788 117.168 94.2956 119.298 91.1097C121.428 87.9237 122.565 84.1781 122.565 80.3463C122.558 75.2102 120.514 70.2863 116.88 66.6545C113.246 63.0227 108.319 60.9795 103.18 60.9729Z" fill="#D1D3D4"/>
<path d="M87.3898 59.6489C87.71 59.6856 88.0169 59.7975 88.2855 59.9756C88.554 60.1536 88.7765 60.3927 88.9348 60.6733C89.0812 60.96 89.1198 61.2896 89.0437 61.6023C88.9675 61.915 88.7816 62.19 88.5198 62.3773C88.1594 62.5563 87.7534 62.6225 87.3548 62.5672C86.5048 62.5072 84.1398 62.1474 84.2498 60.9182C84.3598 59.7689 86.5648 59.529 87.3898 59.6489Z" fill="white"/>
<path d="M87.6499 62.8317H87.3349C87.1049 62.8317 85.04 62.6518 84.285 61.7624C84.1815 61.6472 84.1031 61.5117 84.0549 61.3646C84.0067 61.2175 83.9897 61.0619 84.0049 60.9079C84.0228 60.7367 84.0766 60.5713 84.1628 60.4224C84.2489 60.2734 84.3655 60.1443 84.5049 60.0434C85.2999 59.4187 86.7949 59.3288 87.4199 59.4187C87.7807 59.4596 88.1265 59.5861 88.4283 59.7878C88.7302 59.9895 88.9793 60.2605 89.1549 60.5781C89.3289 60.9199 89.3741 61.3129 89.2824 61.6854C89.1906 62.0578 88.9679 62.3848 88.6549 62.6069C88.3476 62.7743 87.9994 62.8523 87.6499 62.8317ZM86.94 59.8785C86.1954 59.8512 85.459 60.0404 84.82 60.4232C84.7358 60.4807 84.6641 60.5546 84.6091 60.6405C84.5541 60.7263 84.517 60.8224 84.5 60.9229C84.4901 61.0131 84.4997 61.1044 84.5282 61.1906C84.5567 61.2768 84.6033 61.3559 84.665 61.4226C85.165 62.0222 86.665 62.2671 87.37 62.317C87.7108 62.3659 88.0585 62.3138 88.37 62.1671C88.5777 62.0109 88.7237 61.7865 88.7822 61.5333C88.8407 61.2801 88.8081 61.0144 88.6899 60.7829C88.5498 60.5393 88.354 60.3321 88.1185 60.1784C87.883 60.0247 87.6146 59.9288 87.3349 59.8985C87.2041 59.8798 87.0721 59.8715 86.94 59.8735V59.8785Z" fill="#231F20"/>
<path d="M131.12 47.5859C131.429 46.7084 131.987 45.9395 132.725 45.3722C133.375 44.9325 133.905 45.0424 134.625 45.0224C134.905 45.0224 135.125 45.3622 135.395 45.3272C135.665 45.2922 136.08 44.8275 136.355 44.6626C137.091 44.2545 137.912 44.0219 138.753 43.9829C139.595 43.9439 140.434 44.0996 141.205 44.4377C142.225 44.9931 143.154 45.7008 143.96 46.5365C147.705 49.9645 152.345 52.9827 157.425 52.7778C154.955 57.3251 151.155 61.2727 146.38 63.2715C144.052 64.2358 141.542 64.6809 139.025 64.5758C137.025 64.4858 133.34 64.111 132.11 62.3021C130.955 60.5931 130.46 57.3751 130.2 55.3662C129.809 52.7372 130.126 50.0514 131.12 47.5859Z" fill="white"/>
<path d="M139.765 64.8308C139.515 64.8308 139.265 64.8308 139.015 64.8308C136.43 64.7158 133.1 64.2111 131.905 62.4422C130.755 60.7482 130.24 57.6151 129.95 55.4014C129.562 52.7377 129.887 50.0189 130.89 47.5211C131.224 46.602 131.812 45.7963 132.585 45.1975C133.074 44.8859 133.653 44.7469 134.23 44.8027C134.355 44.8027 134.48 44.8027 134.615 44.8027C134.798 44.814 134.973 44.8822 135.115 44.9976C135.205 45.0625 135.295 45.1175 135.345 45.1075C135.517 45.0342 135.671 44.9272 135.8 44.7927C135.928 44.6685 136.071 44.561 136.225 44.4729C136.993 44.0429 137.851 43.7982 138.73 43.7583C139.61 43.7183 140.486 43.8843 141.29 44.243C142.253 44.7552 143.132 45.4125 143.895 46.1919L144.105 46.3817C148.83 50.7092 153.165 52.733 157.395 52.5631C157.439 52.5592 157.483 52.568 157.522 52.5883C157.561 52.6087 157.593 52.6398 157.615 52.678C157.637 52.716 157.649 52.7591 157.649 52.8029C157.649 52.8468 157.637 52.8899 157.615 52.9279C154.96 57.8349 151 61.5977 146.5 63.4766C144.366 64.3646 142.077 64.8247 139.765 64.8308ZM131.35 47.686C130.38 50.1017 130.068 52.731 130.445 55.3064C130.725 57.4702 131.225 60.5283 132.315 62.1374C133.16 63.3766 135.545 64.1362 139.035 64.3011C141.517 64.4054 143.991 63.9671 146.285 63.0169C150.58 61.2329 154.37 57.695 156.995 53.0228H156.93C152.73 53.0228 148.43 50.954 143.79 46.7066L143.58 46.5117C142.846 45.7681 142.003 45.1397 141.08 44.6478C140.344 44.3218 139.542 44.1723 138.739 44.2114C137.935 44.2504 137.151 44.4769 136.45 44.8726C136.333 44.9435 136.224 45.0273 136.125 45.1225C135.933 45.3323 135.685 45.4831 135.41 45.5572C135.201 45.5691 134.996 45.5012 134.835 45.3674C134.75 45.3074 134.665 45.2274 134.61 45.2524H134.21C133.732 45.194 133.248 45.3016 132.84 45.5572C132.142 46.0956 131.619 46.8298 131.34 47.666L131.35 47.686Z" fill="#231F20"/>
<path d="M150.065 57.3352C146.11 53.8073 133.93 55.0366 131.295 60.1435C128.66 65.2505 138.155 80.6314 138.155 80.6314L156.47 77.0635C156.47 77.0635 154.025 60.8581 150.065 57.3352Z" fill="#F97794"/>
<path d="M136.415 61.9277C137.2 66.39 142.53 79.787 142.53 79.787L147.445 78.8326L141.945 59.5841C141.945 59.5841 140.645 59.1743 136.415 61.9277Z" fill="#231F20"/>
<path d="M136.1 58.5547L136.6 62.0526C136.6 62.0526 137.29 63.5917 139.56 62.7072C141.83 61.8227 141.955 60.1637 141.955 60.1637L140.78 53.6676C140.78 53.6676 136.835 52.2134 136.84 48.3657C136.497 49.3024 135.874 50.111 135.056 50.6821C134.237 51.2532 133.263 51.5593 132.265 51.5588C132.471 53.294 132.785 55.0146 133.205 56.7108C133.74 58.4847 136.1 58.5547 136.1 58.5547Z" fill="white"/>
<path d="M138.275 63.2417C137.89 63.257 137.509 63.1645 137.174 62.9746C136.839 62.7848 136.564 62.5052 136.38 62.1674C136.378 62.1441 136.378 62.1207 136.38 62.0974L135.88 58.7894C135.255 58.7244 133.445 58.3996 132.965 56.7906C132.539 55.0803 132.223 53.3444 132.02 51.5937C132.014 51.5588 132.017 51.523 132.027 51.4892C132.038 51.4554 132.056 51.4245 132.08 51.3988C132.103 51.3719 132.131 51.3504 132.163 51.3357C132.195 51.321 132.23 51.3136 132.265 51.3138C133.209 51.3227 134.133 51.0393 134.909 50.5024C135.685 49.9655 136.276 49.2016 136.6 48.3156C136.616 48.2581 136.654 48.2089 136.705 48.1774C136.756 48.146 136.816 48.1347 136.875 48.1457C136.934 48.1541 136.989 48.1834 137.028 48.2283C137.067 48.2732 137.089 48.3308 137.09 48.3906C137.09 52.0134 140.83 53.4476 140.865 53.4575C140.906 53.4729 140.942 53.4985 140.97 53.5317C140.998 53.5649 141.017 53.6048 141.025 53.6474L142.205 60.1436C142.208 60.1635 142.208 60.1836 142.205 60.2035C142.205 60.2785 142.04 62.0324 139.65 62.9669C139.212 63.1413 138.746 63.2344 138.275 63.2417ZM136.85 61.9875C136.95 62.1774 137.605 63.2117 139.475 62.4872C141.345 61.7626 141.68 60.4034 141.71 60.1835L140.565 53.8373C139.92 53.5575 137.165 52.1983 136.67 49.28C136.25 50.009 135.653 50.6202 134.933 51.0569C134.214 51.4937 133.396 51.7419 132.555 51.7785C132.752 53.4096 133.051 55.0268 133.45 56.6207C133.92 58.2097 136.09 58.2897 136.11 58.2897C136.169 58.2915 136.225 58.314 136.269 58.3533C136.313 58.3926 136.342 58.4462 136.35 58.5045L136.85 61.9875Z" fill="#231F20"/>
<path d="M139.65 53.6274C139.865 51.6286 143.02 51.6286 142.385 53.9423C142.32 54.1906 142.207 54.4237 142.052 54.6283C141.898 54.8328 141.704 55.0048 141.482 55.1343C141.261 55.2639 141.016 55.3484 140.761 55.3831C140.507 55.4178 140.248 55.4019 140 55.3364" fill="white"/>
<path d="M140.5 55.6764C140.307 55.6768 140.115 55.6499 139.93 55.5965C139.867 55.5768 139.814 55.5336 139.783 55.4758C139.751 55.418 139.743 55.3503 139.76 55.2867C139.769 55.2548 139.784 55.225 139.804 55.199C139.824 55.1731 139.85 55.1515 139.879 55.1357C139.908 55.1198 139.94 55.1099 139.973 55.1067C140.005 55.1034 140.039 55.1069 140.07 55.1168C140.271 55.1739 140.482 55.1905 140.69 55.1656C140.897 55.1407 141.098 55.0749 141.28 54.9719C141.698 54.734 142.006 54.3407 142.135 53.8775C142.254 53.6857 142.305 53.4592 142.279 53.235C142.252 53.0108 142.151 52.802 141.991 52.6427C141.831 52.4834 141.622 52.3829 141.397 52.3576C141.173 52.3323 140.947 52.3836 140.755 52.5033C140.515 52.5915 140.306 52.7467 140.151 52.9505C139.997 53.1542 139.905 53.3979 139.885 53.6526C139.882 53.6855 139.872 53.7174 139.857 53.7466C139.841 53.7757 139.82 53.8015 139.795 53.8224C139.769 53.8433 139.739 53.8589 139.708 53.8684C139.676 53.8779 139.643 53.881 139.61 53.8775C139.545 53.87 139.485 53.8368 139.443 53.7854C139.402 53.7339 139.383 53.6682 139.39 53.6027C139.42 53.2568 139.547 52.9263 139.756 52.6495C139.966 52.3727 140.25 52.1609 140.575 52.0386C140.853 51.9221 141.157 51.8839 141.455 51.9279C141.753 51.972 142.033 52.0966 142.265 52.2884C142.486 52.509 142.637 52.7896 142.699 53.0953C142.761 53.401 142.732 53.7182 142.615 54.0074C142.535 54.3009 142.397 54.5756 142.21 54.8158C142.023 55.0559 141.79 55.2567 141.525 55.4066C141.212 55.5835 140.859 55.6765 140.5 55.6764Z" fill="#231F20"/>
<path d="M135.375 53.0776C135.375 53.0776 134.32 55.0415 134.645 55.3313C134.97 55.6211 135.775 55.3313 135.775 55.3313" fill="white"/>
<path d="M135.09 55.711C134.87 55.7244 134.652 55.6549 134.48 55.5161C134.165 55.2363 134.395 54.3768 135.155 52.9576C135.189 52.904 135.241 52.8651 135.303 52.8488C135.364 52.8325 135.429 52.84 135.485 52.8698C135.541 52.8996 135.583 52.9495 135.604 53.0094C135.624 53.0693 135.621 53.1348 135.595 53.1925C135.13 54.062 134.78 54.9864 134.84 55.1913C134.95 55.2813 135.41 55.1913 135.685 55.1064C135.747 55.0832 135.816 55.0857 135.877 55.1133C135.937 55.141 135.984 55.1915 136.008 55.2538C136.031 55.3161 136.028 55.385 136.001 55.4455C135.973 55.5059 135.922 55.5529 135.86 55.5761C135.612 55.6619 135.352 55.7074 135.09 55.711Z" fill="#231F20"/>
<path d="M136.897 52.1553C137.065 52.1421 137.186 51.9396 137.168 51.703C137.149 51.4664 136.998 51.2852 136.83 51.2984C136.662 51.3116 136.541 51.5141 136.56 51.7507C136.578 51.9873 136.729 52.1684 136.897 52.1553Z" fill="#231F20"/>
<path d="M134.314 53.039C134.482 53.0259 134.603 52.8234 134.585 52.5868C134.566 52.3501 134.415 52.169 134.247 52.1822C134.079 52.1954 133.958 52.3979 133.977 52.6345C133.995 52.8711 134.146 53.0522 134.314 53.039Z" fill="#231F20"/>
<path d="M135.62 57.1355C135.396 57.1367 135.172 57.1099 134.955 57.0555C134.891 57.0369 134.837 56.9941 134.804 56.9362C134.772 56.8783 134.763 56.81 134.78 56.7457C134.8 56.6826 134.843 56.6294 134.9 56.5969C134.958 56.5644 135.026 56.5551 135.09 56.5708C135.586 56.698 136.112 56.6301 136.56 56.3809C136.777 56.2179 136.957 56.0098 137.087 55.7709C137.216 55.532 137.292 55.2679 137.31 54.9968C137.321 54.9317 137.357 54.8735 137.41 54.8343C137.463 54.7952 137.53 54.7782 137.595 54.7869C137.627 54.7918 137.659 54.803 137.687 54.82C137.715 54.8369 137.74 54.8593 137.759 54.8858C137.779 54.9122 137.793 54.9423 137.801 54.9742C137.808 55.0061 137.81 55.0392 137.805 55.0717C137.779 55.4137 137.678 55.7457 137.51 56.0444C137.341 56.3432 137.109 56.6013 136.83 56.8007C136.468 57.0271 136.047 57.1434 135.62 57.1355Z" fill="#231F20"/>
<path d="M136.1 58.5546C136.1 58.5546 137.92 58.2547 138.68 57.6201C138.68 57.6201 138.325 59.8088 136.44 60.6583L136.1 58.5546Z" fill="#231F20"/>
<path d="M136.44 60.9082C136.381 60.9068 136.325 60.8852 136.28 60.8469C136.235 60.8087 136.205 60.7562 136.195 60.6983L135.855 58.5946C135.845 58.5297 135.861 58.4635 135.899 58.4102C135.937 58.3569 135.995 58.3208 136.06 58.3098C136.06 58.3098 137.82 58.0099 138.52 57.4253C138.559 57.393 138.608 57.3736 138.658 57.3695C138.709 57.3654 138.76 57.3769 138.804 57.4024C138.848 57.4279 138.883 57.4663 138.905 57.5124C138.926 57.5584 138.934 57.61 138.925 57.6601C138.925 57.7551 138.525 59.9888 136.545 60.8882C136.512 60.9021 136.476 60.9089 136.44 60.9082ZM136.385 58.7545L136.63 60.2836C137.408 59.789 137.989 59.0376 138.27 58.1598C137.667 58.4316 137.035 58.6312 136.385 58.7545Z" fill="#231F20"/>
<path d="M145.59 60.8034C142.09 64.881 139.44 69.948 137.025 70.5126C134.61 71.0773 122.315 70.5126 122.315 70.5126C122.315 70.5126 120.27 68.279 119.425 68.214C118.58 68.149 119.72 69.6182 120.315 70.7625C120.315 70.7625 115.86 70.2628 115.84 71.9168C115.795 75.1049 117.61 74.4153 119.875 74.8251C122.14 75.2348 139.97 76.9838 142.075 75.2948C144.18 73.6058 150.6 65.1408 150.78 64.906C152.845 62.2326 149.1 56.7208 145.59 60.8034Z" fill="white"/>
<path d="M136.385 76.2438C130.851 76.1494 125.326 75.7507 119.835 75.0495C119.385 74.9746 118.955 74.9396 118.54 74.9046C116.95 74.7797 115.57 74.6697 115.61 71.9064C115.612 71.756 115.645 71.6076 115.709 71.4714C115.773 71.3352 115.866 71.2143 115.98 71.1169C116.82 70.3773 118.98 70.4273 119.91 70.4872L119.615 69.9875C119.055 69.0581 118.75 68.4884 118.96 68.1736C119.014 68.094 119.09 68.0327 119.18 67.9978C119.269 67.963 119.367 67.9563 119.46 67.9787C120.31 68.0387 122.035 69.8476 122.46 70.2774C123.605 70.3273 134.77 70.802 137.015 70.2774C138.515 69.9276 140.19 67.6339 142.12 64.9755C143.17 63.5364 144.25 62.0473 145.46 60.6431C146.93 58.9391 148.665 58.6443 150.11 59.7986C151.555 60.9529 152.23 63.4514 151.005 65.0355L150.93 65.1354C149.37 67.1792 144.135 73.9602 142.265 75.4643C141.5 76.0389 139.235 76.2438 136.385 76.2438ZM118.965 70.922C117.965 70.922 116.775 71.0369 116.285 71.4716C116.218 71.5261 116.164 71.5946 116.126 71.6722C116.088 71.7499 116.067 71.8349 116.065 71.9214C116.035 74.245 116.99 74.325 118.565 74.4499C118.97 74.4799 119.43 74.5198 119.905 74.5998C122.225 74.9996 139.905 76.7235 141.905 75.0995C143.735 73.6304 148.94 66.8844 150.49 64.8556L150.57 64.7506C151.635 63.3665 151.015 61.1778 149.745 60.1484C149.155 59.6487 147.585 58.7842 145.745 60.9329C144.545 62.3271 143.47 63.8062 142.425 65.2404C140.425 67.9687 138.725 70.3273 137.055 70.7371C134.635 71.3018 122.785 70.7671 122.285 70.7371C122.255 70.7363 122.225 70.7293 122.197 70.7164C122.17 70.7035 122.145 70.685 122.125 70.6621C121.36 69.8276 119.935 68.4834 119.385 68.4434C119.359 68.4371 119.332 68.4371 119.305 68.4434C119.478 68.9088 119.707 69.3517 119.985 69.7627C120.165 70.0575 120.345 70.3623 120.485 70.6521C120.507 70.6865 120.519 70.7264 120.519 70.7671C120.519 70.8078 120.507 70.8476 120.485 70.882C120.463 70.9166 120.432 70.9443 120.395 70.962C120.357 70.9796 120.316 70.9866 120.275 70.9819C120 70.957 119.5 70.922 118.965 70.922Z" fill="#231F20"/>
<path d="M134.5 64.3309C134.439 64.3308 134.379 64.3157 134.325 64.2869C134.271 64.2582 134.224 64.2166 134.19 64.166C133.79 63.5963 134.69 60.9479 135.085 59.8385C135.095 59.8107 135.111 59.785 135.131 59.7632C135.151 59.7413 135.175 59.7236 135.202 59.7111C135.229 59.6985 135.258 59.6914 135.288 59.6902C135.318 59.6889 135.347 59.6935 135.375 59.7036C135.403 59.7138 135.429 59.7294 135.45 59.7494C135.472 59.7695 135.49 59.7937 135.503 59.8206C135.515 59.8475 135.522 59.8766 135.524 59.9063C135.525 59.9359 135.52 59.9656 135.51 59.9935C134.93 61.5975 134.42 63.4914 134.55 63.8711C135.147 63.7248 135.702 63.4407 136.17 63.0416C136.194 63.0226 136.221 63.0084 136.25 62.9999C136.279 62.9913 136.31 62.9886 136.34 62.9919C136.37 62.9951 136.399 63.0043 136.426 63.0188C136.453 63.0333 136.476 63.053 136.495 63.0766C136.514 63.1002 136.528 63.1274 136.537 63.1565C136.545 63.1856 136.548 63.2161 136.545 63.2463C136.542 63.2764 136.532 63.3056 136.518 63.3323C136.503 63.3589 136.484 63.3824 136.46 63.4014C136.315 63.4814 135.255 64.3309 134.5 64.3309Z" fill="#231F20"/>
<path d="M143.185 60.953C143.129 60.9502 143.076 60.9272 143.036 60.8881C142.996 60.8491 142.971 60.7968 142.967 60.741C142.963 60.6852 142.979 60.6298 143.013 60.5851C143.046 60.5404 143.095 60.5095 143.15 60.4982C143.475 60.4483 144.37 60.2234 144.65 59.7787C144.715 59.6737 144.57 59.319 142.845 58.1646C142.654 58.0502 142.474 57.9198 142.305 57.7749C142.262 57.7318 142.238 57.6734 142.238 57.6125C142.238 57.5516 142.262 57.4932 142.305 57.4501C142.326 57.4289 142.351 57.4121 142.378 57.4007C142.406 57.3892 142.435 57.3833 142.465 57.3833C142.495 57.3833 142.524 57.3892 142.552 57.4007C142.579 57.4121 142.604 57.4289 142.625 57.4501C142.67 57.49 142.89 57.64 143.085 57.7699C144.32 58.5944 145.4 59.3889 145.025 60.0035C144.585 60.7181 143.265 60.928 143.21 60.938L143.185 60.953Z" fill="#231F20"/>
<path d="M64.9702 116.355H62.1551C62.1165 116.366 62.0757 116.368 62.0362 116.361C61.9966 116.354 61.9593 116.337 61.9272 116.313C61.895 116.289 61.869 116.257 61.851 116.221C61.8331 116.185 61.8237 116.146 61.8237 116.106C61.8237 116.065 61.8331 116.026 61.851 115.99C61.869 115.954 61.895 115.922 61.9272 115.898C61.9593 115.874 61.9966 115.857 62.0362 115.85C62.0757 115.843 62.1165 115.845 62.1551 115.856H64.9702C65.0245 115.871 65.0723 115.904 65.1063 115.949C65.1403 115.994 65.1587 116.049 65.1587 116.106C65.1587 116.162 65.1403 116.217 65.1063 116.262C65.0723 116.307 65.0245 116.34 64.9702 116.355Z" fill="white"/>
<path d="M175.155 111.758C175.111 111.758 175.068 111.748 175.029 111.727C174.991 111.706 174.958 111.675 174.935 111.638C174.11 110.334 154.745 79.6819 154.46 79.1122C154.435 79.0513 154.434 78.9832 154.457 78.9216C154.48 78.86 154.526 78.8095 154.585 78.7804C154.644 78.7512 154.712 78.7455 154.775 78.7644C154.838 78.7833 154.892 78.8255 154.925 78.8823C155.19 79.382 168.425 100.37 175.375 111.363C175.393 111.392 175.405 111.424 175.411 111.457C175.416 111.491 175.415 111.525 175.407 111.558C175.399 111.591 175.385 111.623 175.365 111.65C175.345 111.677 175.319 111.7 175.29 111.718C175.249 111.743 175.203 111.757 175.155 111.758Z" fill="white"/>
</svg>
