<svg width="200" height="151" viewBox="0 0 200 151" fill="none" xmlns="http://www.w3.org/2000/svg">
<path d="M71.2699 134.15C81.4043 134.15 89.6199 133.046 89.6199 131.685C89.6199 130.323 81.4043 129.22 71.2699 129.22C61.1355 129.22 52.9199 130.323 52.9199 131.685C52.9199 133.046 61.1355 134.15 71.2699 134.15Z" fill="#E6E7E8"/>
<path d="M150.965 134.15C161.1 134.15 169.315 133.046 169.315 131.685C169.315 130.323 161.1 129.22 150.965 129.22C140.831 129.22 132.615 130.323 132.615 131.685C132.615 133.046 140.831 134.15 150.965 134.15Z" fill="#E6E7E8"/>
<path d="M70.2349 123.34C70.2349 123.34 73.4249 133.1 73.9899 132.915C74.5549 132.73 85.9099 126.155 85.5349 125.03C85.1599 123.905 77.2749 126.25 77.2749 126.25L75.4999 120.995" fill="white"/>
<path d="M74 133.164C73.9479 133.165 73.8964 133.153 73.85 133.129C73.145 132.774 70.94 126.219 70.025 123.419C70.0141 123.388 70.0096 123.355 70.0118 123.321C70.0139 123.288 70.0227 123.256 70.0376 123.226C70.0525 123.196 70.0733 123.169 70.0986 123.148C70.1239 123.126 70.1533 123.11 70.185 123.099C70.2487 123.08 70.3172 123.087 70.376 123.118C70.4349 123.149 70.4793 123.201 70.5 123.264C71.86 127.424 73.525 132.009 74.035 132.634C75.58 131.974 85.25 126.064 85.315 125.084C85.18 124.684 81.75 125.184 77.37 126.489C77.3077 126.506 77.2415 126.499 77.1842 126.469C77.1269 126.44 77.0827 126.39 77.06 126.329L75.28 121.074C75.2591 121.011 75.2636 120.943 75.2926 120.883C75.3215 120.823 75.3726 120.777 75.435 120.754C75.4987 120.735 75.5674 120.741 75.6269 120.771C75.6865 120.8 75.7323 120.852 75.755 120.914L77.46 125.914C84.575 123.819 85.66 124.519 85.795 124.914C85.895 125.209 86.1 125.819 80.295 129.499C77.435 131.304 74.44 132.999 74.12 133.114C74.0839 133.139 74.0431 133.156 74 133.164Z" fill="#231F20"/>
<path d="M56.7201 107.01C56.7201 107.01 50.1501 107.105 49.9651 107.665C49.7801 108.225 47.8051 118.665 49.5901 117.805C51.3751 116.945 54.2801 111.045 54.2801 111.045L57.5651 110.545L56.7201 107.01Z" fill="white"/>
<path d="M49.3949 118.099C49.2587 118.099 49.1273 118.049 49.0249 117.959C47.7999 116.869 49.6049 107.959 49.7249 107.584C49.7849 107.404 49.9699 106.854 56.7249 106.759C56.781 106.762 56.835 106.781 56.8797 106.815C56.9244 106.849 56.9576 106.896 56.9749 106.949L57.8199 110.474C57.8339 110.541 57.8213 110.611 57.7849 110.669C57.766 110.699 57.7411 110.724 57.7118 110.743C57.6825 110.762 57.6494 110.774 57.6149 110.779L54.4549 111.279C54.0249 112.144 51.4249 117.224 49.7049 118.039C49.6073 118.082 49.5014 118.102 49.3949 118.099ZM50.1899 107.784C49.9249 108.699 48.5049 116.829 49.3599 117.584C49.3599 117.584 49.3949 117.619 49.4799 117.584C50.8799 116.924 53.2549 112.584 54.0549 110.944C54.0717 110.908 54.0975 110.876 54.1298 110.853C54.1622 110.829 54.2001 110.814 54.2399 110.809L57.2399 110.309L56.5049 107.249C53.6749 107.309 50.6099 107.514 50.1899 107.784Z" fill="#231F20"/>
<path d="M94.105 30.1196L96.915 28.5096C96.915 28.5096 97.705 25.9796 98.5 25.3696C99.295 24.7596 100.39 25.5896 100.39 25.5896C100.39 25.5896 103.295 23.1646 103.995 23.2446C104.695 23.3246 103.77 24.5646 103.055 25.1896L101.555 26.5046C101.555 26.5046 102.87 29.1846 102.11 30.2396C101.35 31.2946 95.23 34.5546 95.23 34.5546L94.105 30.1196Z" fill="white"/>
<path d="M95.22 34.7997C95.1852 34.8044 95.1499 34.8044 95.115 34.7997C95.0809 34.783 95.0507 34.7592 95.0265 34.7299C95.0024 34.7006 94.9848 34.6664 94.975 34.6296L93.865 30.1997C93.8513 30.1475 93.8551 30.0924 93.8759 30.0426C93.8967 29.9929 93.9333 29.9515 93.98 29.9247L96.705 28.3697C96.875 27.8697 97.575 25.7897 98.33 25.1897C99.085 24.5897 99.985 25.0647 100.36 25.2947C101.19 24.6097 103.305 22.9397 104.005 23.0147C104.106 23.0195 104.202 23.0545 104.283 23.1151C104.363 23.1758 104.423 23.2593 104.455 23.3547C104.645 23.9597 103.59 25.0597 103.21 25.3997L101.85 26.5897C102.155 27.2497 103.035 29.3897 102.3 30.4097C101.565 31.4297 95.965 34.4596 95.335 34.7946C95.2977 34.806 95.2582 34.8078 95.22 34.7997ZM94.395 30.2447L95.395 34.1797C97.25 33.1797 101.34 30.8746 101.895 30.0896C102.45 29.3046 101.665 27.3197 101.32 26.5897C101.296 26.5399 101.289 26.4837 101.3 26.4297C101.311 26.3756 101.339 26.3264 101.38 26.2897L102.88 24.9797C103.555 24.3847 104.03 23.6347 103.98 23.4797C103.595 23.4447 101.895 24.6497 100.54 25.7797C100.496 25.8145 100.441 25.8335 100.385 25.8335C100.329 25.8335 100.274 25.8145 100.23 25.7797C100.23 25.7797 99.265 25.0647 98.645 25.5547C98.025 26.0447 97.37 27.8947 97.145 28.5547C97.1246 28.6148 97.084 28.6661 97.03 28.6997L94.395 30.2447Z" fill="#231F20"/>
<path d="M60.0698 46.5894C62.2698 47.8194 93.9998 29.2944 93.9998 29.2944L98.7248 34.1844L66.5998 57.4544L60.0698 46.5894Z" fill="#F97794"/>
<path d="M70.7599 46.2793C70.7599 46.2793 51.8849 46.2793 47.0199 50.1543C43.4149 53.0243 42.7349 73.0343 42.7349 73.0343L78.7749 70.2243C78.7749 70.2243 80.8449 49.1293 70.7599 46.2793Z" fill="#F97794"/>
<path d="M73.5 57.9645C73.439 57.9645 73.3805 57.9402 73.3374 57.8971C73.2943 57.854 73.27 57.7955 73.27 57.7345V47.9195C73.27 47.8585 73.2943 47.8 73.3374 47.7568C73.3805 47.7137 73.439 47.6895 73.5 47.6895C73.561 47.6895 73.6195 47.7137 73.6627 47.7568C73.7058 47.8 73.73 47.8585 73.73 47.9195V57.7345C73.73 57.7955 73.7058 57.854 73.6627 57.8971C73.6195 57.9402 73.561 57.9645 73.5 57.9645Z" fill="#231F20"/>
<path d="M114.365 99.1597C114.055 98.9147 102.865 97.7697 102.17 97.9847C101.475 98.1997 98.6699 107.45 98.7249 108.24C98.8149 109.82 104.995 103.49 104.995 103.49L114.365 105.37" fill="white"/>
<path d="M98.925 108.734C98.8756 108.745 98.8245 108.745 98.775 108.734C98.6835 108.7 98.6053 108.637 98.5514 108.556C98.4975 108.474 98.4708 108.377 98.475 108.279C98.44 107.689 101.13 98.0745 102.1 97.7795C102.83 97.5545 114.1 98.6595 114.52 98.9995C114.572 99.0407 114.605 99.1007 114.612 99.1662C114.62 99.2318 114.601 99.2977 114.56 99.3495C114.522 99.3973 114.469 99.4298 114.409 99.4408C114.349 99.4519 114.287 99.4407 114.235 99.4095C113.45 99.1145 102.875 98.0945 102.235 98.2595C101.635 98.7195 98.915 107.484 98.965 108.259C99.465 108.414 102.395 105.814 104.805 103.349C104.834 103.319 104.871 103.297 104.911 103.284C104.951 103.272 104.994 103.27 105.035 103.279L114.4 105.144C114.465 105.158 114.523 105.196 114.56 105.251C114.598 105.306 114.612 105.374 114.6 105.439C114.593 105.472 114.581 105.502 114.562 105.529C114.544 105.557 114.52 105.58 114.493 105.598C114.466 105.616 114.435 105.629 114.403 105.635C114.37 105.641 114.337 105.641 114.305 105.634L105.07 103.794C103.5 105.369 100.07 108.734 98.925 108.734Z" fill="#231F20"/>
<path d="M155.82 121.43C155.82 121.755 158.865 131.525 159.755 131.68C160.645 131.835 173.185 127.88 172.15 127.18C171.115 126.48 165.44 126.995 165.44 126.995L162.415 118.87" fill="white"/>
<path d="M159.76 131.929H159.71C158.53 131.719 155.575 121.544 155.57 121.429C155.565 121.363 155.586 121.297 155.629 121.247C155.672 121.196 155.734 121.165 155.8 121.159C155.866 121.154 155.932 121.175 155.983 121.219C156.033 121.262 156.065 121.323 156.07 121.389C156.21 122.274 159.07 131.034 159.825 131.424C160.16 131.469 162.785 130.764 166.03 129.689C169.53 128.524 171.455 127.689 171.89 127.314C170.955 126.919 167.6 127.044 165.465 127.234C165.411 127.24 165.356 127.227 165.31 127.198C165.264 127.169 165.229 127.126 165.21 127.074L162.21 118.959C162.194 118.928 162.185 118.894 162.183 118.859C162.181 118.823 162.187 118.788 162.2 118.755C162.212 118.723 162.232 118.693 162.257 118.668C162.282 118.643 162.312 118.624 162.345 118.612C162.378 118.599 162.413 118.594 162.448 118.596C162.483 118.598 162.517 118.608 162.549 118.624C162.58 118.64 162.607 118.663 162.629 118.691C162.651 118.718 162.667 118.75 162.675 118.784L165.63 126.719C166.745 126.629 171.315 126.294 172.315 126.964C172.388 127.009 172.443 127.079 172.468 127.161C172.494 127.243 172.489 127.331 172.455 127.409C171.94 128.644 160.825 131.929 159.76 131.929Z" fill="#231F20"/>
<path d="M142.625 74.7246C142.625 74.7246 137.685 111.78 132.625 110.65C127.565 109.52 107.32 105.215 107.32 105.215L109.15 97.2146C109.15 97.2146 123.555 98.7446 125.475 98.8846C127.395 99.0246 126.045 73.0396 126.045 73.0396L142.625 74.7246Z" fill="#231F20"/>
<path d="M132.845 110.924C132.749 110.924 132.654 110.914 132.56 110.894C127.56 109.784 107.46 105.499 107.26 105.459C107.194 105.445 107.137 105.405 107.1 105.349C107.064 105.293 107.051 105.225 107.065 105.159L108.895 97.1594C108.91 97.1004 108.945 97.0486 108.995 97.013C109.044 96.9773 109.104 96.9601 109.165 96.9644C109.31 96.9644 123.59 98.4994 125.485 98.6344C126.485 98.1344 126.42 85.2394 125.79 73.0494C125.787 73.0141 125.792 72.9785 125.805 72.9456C125.818 72.9126 125.839 72.8831 125.865 72.8594C125.891 72.8338 125.923 72.8142 125.957 72.8021C125.992 72.79 126.029 72.7857 126.065 72.7894L142.65 74.4794C142.684 74.4821 142.717 74.4919 142.748 74.5083C142.778 74.5246 142.804 74.5472 142.825 74.5744C142.845 74.6003 142.86 74.63 142.869 74.6618C142.877 74.6936 142.88 74.7267 142.875 74.7594C142.7 76.0894 138.485 107.309 133.745 110.619C133.483 110.81 133.169 110.917 132.845 110.924ZM107.61 105.024C109.945 105.524 127.965 109.359 132.67 110.409C132.809 110.433 132.951 110.426 133.087 110.391C133.223 110.356 133.35 110.292 133.46 110.204C137.8 107.169 141.925 77.9994 142.345 74.9444L126.3 73.3144C126.48 76.8594 127.445 97.3994 125.835 98.9744C125.785 99.0269 125.724 99.068 125.657 99.0948C125.59 99.1215 125.517 99.1333 125.445 99.1294C123.675 98.9994 111.16 97.6744 109.335 97.4794L107.61 105.024Z" fill="#231F20"/>
<path d="M138.125 77.6296L155.505 126.795L165.275 121.555L150.3 74.7246L138.125 77.6296Z" fill="#231F20"/>
<path d="M155.5 127.045C155.47 127.05 155.44 127.05 155.41 127.045C155.375 127.032 155.344 127.012 155.318 126.986C155.292 126.96 155.272 126.929 155.26 126.895L137.885 77.7296C137.871 77.6972 137.864 77.6623 137.864 77.6271C137.864 77.592 137.871 77.5571 137.885 77.5246C137.922 77.4634 137.981 77.4187 138.05 77.3996L150.22 74.4946C150.281 74.4792 150.347 74.4883 150.402 74.52C150.457 74.5517 150.497 74.6036 150.515 74.6646L165.515 121.495C165.532 121.55 165.53 121.61 165.508 121.664C165.486 121.718 165.446 121.762 165.395 121.79L155.62 127.03C155.582 127.045 155.54 127.05 155.5 127.045ZM138.45 77.8097L155.635 126.44L164.97 121.44L150.13 75.0196L138.45 77.8097Z" fill="#231F20"/>
<path d="M152.41 55.1594L158.495 53.1594C158.215 52.7494 155.145 43.3193 151.495 41.5243C148.31 39.4143 142.425 39.8144 135.765 40.2794C133.628 40.3846 131.521 40.8232 129.52 41.5793C122.02 44.5793 120.94 54.4543 120.94 54.4543L127.865 56.8693C127.865 56.8693 126.745 70.3043 125.69 77.3293C125.69 77.3293 134.13 80.5294 152.995 77.4044C153 77.3694 152.445 57.1444 152.41 55.1594Z" fill="#F97794"/>
<path d="M144.505 44.0747L137.75 59.4897L136.095 44.6197L144.505 44.0747Z" fill="#231F20"/>
<path d="M137.75 59.7395H137.715C137.661 59.731 137.611 59.7048 137.573 59.6651C137.535 59.6253 137.511 59.5741 137.505 59.5195L135.85 44.6445C135.845 44.5781 135.864 44.5122 135.905 44.4595C135.926 44.4334 135.953 44.412 135.983 44.3965C136.013 44.381 136.046 44.3718 136.08 44.3695L144.5 43.8245C144.542 43.8226 144.585 43.8313 144.623 43.8496C144.661 43.8679 144.695 43.8953 144.72 43.9295C144.745 43.9647 144.76 44.0057 144.765 44.0487C144.769 44.0916 144.762 44.1349 144.745 44.1745L138 59.5895C137.979 59.637 137.943 59.6769 137.898 59.7037C137.854 59.7305 137.802 59.743 137.75 59.7395ZM136.375 44.8695L137.875 58.5595L144.115 44.3695L136.375 44.8695Z" fill="#231F20"/>
<path d="M148.035 24.6795C147.197 23.7269 146.099 23.0404 144.875 22.7045C143.652 22.3687 142.357 22.3982 141.15 22.7895C139.01 23.4795 137.06 24.6745 134.915 25.3595C132.77 26.0445 130.24 26.1345 128.465 24.7545C128.476 25.2702 128.597 25.7777 128.82 26.2429C129.043 26.708 129.363 27.1201 129.758 27.4515C130.154 27.783 130.615 28.0261 131.112 28.1645C131.609 28.303 132.13 28.3337 132.64 28.2545C132.56 28.7545 131.88 28.8295 131.395 28.7245C130.91 28.6195 130.29 28.4995 129.99 28.8995C129.911 29.0327 129.864 29.1824 129.853 29.3368C129.841 29.4913 129.866 29.6462 129.925 29.7895C130.29 30.9945 131.39 31.7895 132.425 32.5195C133.925 33.5545 135.425 33.7695 136.955 34.4845C138.575 35.2495 139.785 36.3095 141.645 36.5695C143.337 36.7972 145.052 36.3756 146.445 35.3895C147.32 34.7695 149.1 33.9245 148.75 32.5945C148.58 31.9645 149.69 30.7645 149.75 29.8395C149.837 28.9075 149.729 27.9677 149.434 27.0794C149.139 26.1912 148.662 25.374 148.035 24.6795Z" fill="white"/>
<path d="M142.5 36.8696C142.195 36.8705 141.891 36.8488 141.59 36.8046C140.393 36.5828 139.252 36.1238 138.235 35.4546C137.79 35.1946 137.325 34.9546 136.825 34.6946C136.275 34.4438 135.71 34.2251 135.135 34.0396C134.118 33.7347 133.15 33.2869 132.26 32.7096C131.105 31.9096 130.04 31.0896 129.665 29.8496C129.593 29.6686 129.565 29.4733 129.584 29.2795C129.602 29.0857 129.666 28.899 129.77 28.7346C129.914 28.5711 130.1 28.4506 130.309 28.3862C130.517 28.3218 130.739 28.316 130.95 28.3696C130.456 28.2074 129.998 27.9528 129.6 27.6196C129.166 27.2725 128.816 26.8318 128.576 26.3305C128.336 25.8292 128.213 25.2803 128.215 24.7246C128.215 24.6784 128.228 24.6333 128.253 24.5944C128.278 24.5555 128.313 24.5243 128.355 24.5046C128.397 24.4856 128.443 24.4784 128.489 24.4837C128.535 24.489 128.578 24.5066 128.615 24.5346C130.72 26.1696 133.67 25.4746 134.84 25.0996C135.899 24.7537 136.936 24.3429 137.945 23.8696C138.961 23.3764 140.006 22.9456 141.075 22.5796C142.327 22.1721 143.67 22.1401 144.94 22.4875C146.21 22.8349 147.35 23.5466 148.22 24.5346C148.869 25.2524 149.363 26.0972 149.669 27.0155C149.976 27.9337 150.088 28.9056 150 29.8696C149.902 30.4031 149.702 30.9125 149.41 31.3696C149.175 31.7996 148.91 32.2896 148.975 32.5246C149.315 33.8146 148.005 34.6596 147.05 35.2746C146.88 35.3846 146.715 35.4896 146.575 35.5896C145.379 36.4229 143.957 36.8697 142.5 36.8696ZM130.66 28.8696C130.573 28.8598 130.486 28.8706 130.404 28.901C130.322 28.9314 130.249 28.9806 130.19 29.0446C130.139 29.1483 130.111 29.2615 130.106 29.3769C130.102 29.4923 130.122 29.6074 130.165 29.7146C130.49 30.7996 131.485 31.5596 132.565 32.3096C133.418 32.8614 134.346 33.2874 135.32 33.5746C135.911 33.7711 136.492 33.9981 137.06 34.2546C137.56 34.4946 138.06 34.7546 138.505 35.0296C139.466 35.6679 140.546 36.1065 141.68 36.3196C143.308 36.5317 144.956 36.1268 146.3 35.1846C146.445 35.0796 146.615 34.9696 146.8 34.8546C147.675 34.2896 148.76 33.5896 148.51 32.6546C148.4 32.2246 148.67 31.7196 149.01 31.1546C149.252 30.7407 149.418 30.2869 149.5 29.8146C149.581 28.9211 149.476 28.0205 149.192 27.1694C148.908 26.3184 148.451 25.5353 147.85 24.8696C147.044 23.9541 145.988 23.2944 144.811 22.9719C143.635 22.6494 142.39 22.6781 141.23 23.0546C140.179 23.4135 139.152 23.8377 138.155 24.3246C137.128 24.819 136.073 25.2531 134.995 25.6246C132.585 26.3946 130.34 26.2596 128.745 25.2746C128.881 26.0618 129.298 26.7727 129.92 27.2746C130.28 27.5928 130.707 27.8256 131.169 27.9554C131.631 28.0853 132.117 28.109 132.59 28.0246C132.629 28.0171 132.669 28.019 132.708 28.0304C132.746 28.0417 132.781 28.062 132.81 28.0896C132.841 28.1163 132.864 28.1507 132.877 28.1894C132.89 28.2281 132.893 28.2696 132.885 28.3096C132.868 28.4113 132.83 28.5084 132.773 28.5945C132.716 28.6806 132.642 28.7538 132.555 28.8096C132.185 29.0169 131.75 29.0742 131.34 28.9696C131.117 28.9148 130.889 28.8813 130.66 28.8696Z" fill="#231F20"/>
<path d="M137.31 39.8694L136.1 44.6194C136.1 44.6194 137.445 47.7194 140.655 47.1194C143.865 46.5194 144.505 44.1194 144.51 44.1194L145.05 39.0044L145.385 35.8594C145.469 35.5363 145.508 35.2031 145.5 34.8694C145.3 34.1544 144.405 33.7644 144.145 33.0244C143.625 31.5421 143.695 29.9166 144.34 28.4844C143 29.5644 141.46 30.6644 139.74 30.5494C140.087 30.1855 140.4 29.7905 140.675 29.3694L137.31 30.5694C136.873 30.7133 136.425 30.8203 135.97 30.8894C135.47 30.9844 135.665 30.6694 135.285 31.2794C134.345 32.7794 134.215 35.3694 134.405 37.0944C134.675 39.5444 137.31 39.8694 137.31 39.8694Z" fill="white"/>
<path d="M139.83 47.4296C137.085 47.4296 135.88 44.7446 135.87 44.7196C135.85 44.6664 135.85 44.6078 135.87 44.5546L137.015 40.0546C136.3 39.8796 134.405 39.2196 134.17 37.0546C133.975 35.2996 134.105 32.6796 135.09 31.0796L135.115 31.0346C135.35 30.6596 135.425 30.5346 135.705 30.5796C135.782 30.5983 135.863 30.5983 135.94 30.5796C136.381 30.5124 136.816 30.4087 137.24 30.2696L140.605 29.0646C140.654 29.0476 140.708 29.0466 140.759 29.0619C140.809 29.0771 140.853 29.1078 140.885 29.1496C140.914 29.1922 140.93 29.2428 140.93 29.2946C140.93 29.3464 140.914 29.397 140.885 29.4396C140.704 29.7135 140.509 29.9772 140.3 30.2296C141.73 30.0996 143.04 29.1396 144.17 28.2296C144.214 28.1948 144.269 28.1758 144.325 28.1758C144.381 28.1758 144.436 28.1948 144.48 28.2296C144.526 28.2628 144.558 28.3111 144.572 28.3659C144.586 28.4208 144.58 28.4788 144.555 28.5296C143.938 29.9058 143.871 31.4661 144.37 32.8896C144.513 33.217 144.728 33.5076 145 33.7396C145.33 34.017 145.584 34.3753 145.735 34.7796C145.773 35.0472 145.754 35.3197 145.68 35.5796C145.68 35.6796 145.645 35.7696 145.635 35.8396L144.76 44.0996C144.76 44.0996 144.11 46.6846 140.71 47.3446C140.42 47.4013 140.125 47.4297 139.83 47.4296ZM136.36 44.5946C136.59 45.0596 137.86 47.3846 140.605 46.8546C143.63 46.2696 144.26 44.0346 144.265 44.0096L145.135 35.7896C145.135 35.7046 145.165 35.5996 145.185 35.4846C145.237 35.2994 145.259 35.1069 145.25 34.9146C145.119 34.5941 144.909 34.3119 144.64 34.0946C144.32 33.8208 144.066 33.4792 143.895 33.0946C143.458 31.8401 143.422 30.4809 143.79 29.2046C142.6 30.0996 141.235 30.8846 139.715 30.7846C139.667 30.7817 139.622 30.765 139.583 30.7366C139.545 30.7082 139.516 30.6693 139.5 30.6246C139.483 30.5802 139.478 30.5318 139.487 30.485C139.496 30.4381 139.518 30.3947 139.55 30.3596C139.705 30.1996 139.855 30.0346 139.995 29.8596L137.39 30.7896C136.954 30.9374 136.505 31.0462 136.05 31.1146C135.921 31.1351 135.789 31.1351 135.66 31.1146L135.525 31.3296L135.5 31.3696C134.64 32.7696 134.455 35.2196 134.65 37.0296C134.895 39.2746 137.24 39.6146 137.34 39.6246C137.375 39.6297 137.409 39.6422 137.439 39.6611C137.469 39.6801 137.495 39.7051 137.515 39.7346C137.535 39.7634 137.548 39.7962 137.554 39.8308C137.561 39.8653 137.559 39.9008 137.55 39.9346L136.36 44.5946Z" fill="#231F20"/>
<path d="M136.67 42.3694C137.211 42.5013 137.776 42.4992 138.316 42.3633C138.857 42.2274 139.356 41.9617 139.77 41.5894C141.23 40.3044 141.175 39.1694 141.175 39.1694C140.024 39.8901 138.64 40.1408 137.31 39.8694L136.67 42.3694Z" fill="#231F20"/>
<path d="M137.5 42.7246C137.205 42.729 136.91 42.692 136.625 42.6146C136.564 42.596 136.512 42.5545 136.48 42.4986C136.449 42.4428 136.44 42.3769 136.455 42.3146L137.09 39.8146C137.098 39.7828 137.113 39.7528 137.133 39.7265C137.152 39.7002 137.177 39.678 137.205 39.6613C137.234 39.6446 137.265 39.6336 137.298 39.6291C137.33 39.6245 137.363 39.6264 137.395 39.6346C138.659 39.8785 139.968 39.6356 141.06 38.9546C141.097 38.9293 141.139 38.9143 141.183 38.9112C141.227 38.9082 141.272 38.9171 141.311 38.9371C141.351 38.9571 141.384 38.9874 141.407 39.0248C141.431 39.0623 141.444 39.1054 141.445 39.1496C141.445 39.1996 141.49 40.4196 139.945 41.7696C139.276 42.3789 138.405 42.7191 137.5 42.7246ZM137 42.1896C137.469 42.2627 137.948 42.2306 138.403 42.0957C138.858 41.9608 139.277 41.7265 139.63 41.4096C140.199 40.9503 140.627 40.3404 140.865 39.6496C139.836 40.1863 138.66 40.3741 137.515 40.1846L137 42.1896Z" fill="#231F20"/>
<path d="M139.3 32.3999C139.3 32.3999 137.44 34.7399 137.8 35.2049C138.16 35.6699 139.3 35.4699 139.3 35.4699" fill="white"/>
<path d="M138.765 35.7645C138.554 35.7847 138.341 35.76 138.14 35.6919C137.94 35.6238 137.755 35.5139 137.6 35.3695C137.205 34.8695 138.2 33.3695 139.1 32.2545C139.12 32.2284 139.145 32.2066 139.174 32.1905C139.203 32.1743 139.234 32.164 139.267 32.1603C139.299 32.1565 139.333 32.1594 139.364 32.1687C139.396 32.1781 139.425 32.1936 139.45 32.2145C139.502 32.2557 139.535 32.3157 139.542 32.3813C139.55 32.4468 139.531 32.5127 139.49 32.5645C138.625 33.6545 137.925 34.8295 137.99 35.0645C138.18 35.3095 138.91 35.2795 139.225 35.2245C139.291 35.2143 139.358 35.2299 139.412 35.2682C139.466 35.3065 139.503 35.3643 139.515 35.4295C139.521 35.462 139.52 35.4954 139.513 35.5276C139.506 35.5598 139.492 35.5903 139.473 35.6172C139.454 35.6442 139.43 35.6671 139.402 35.6847C139.374 35.7022 139.343 35.7141 139.31 35.7195C139.13 35.7467 138.948 35.7617 138.765 35.7645Z" fill="#231F20"/>
<path d="M141.31 32.9674C141.537 32.9664 141.719 32.706 141.718 32.3856C141.717 32.0653 141.532 31.8064 141.306 31.8074C141.079 31.8083 140.897 32.0688 140.898 32.3891C140.899 32.7094 141.084 32.9683 141.31 32.9674Z" fill="#231F20"/>
<path d="M137.822 32.214C137.915 31.9075 137.815 31.6057 137.598 31.5399C137.382 31.4741 137.131 31.6693 137.038 31.9758C136.945 32.2823 137.045 32.5841 137.261 32.6499C137.478 32.7157 137.729 32.5205 137.822 32.214Z" fill="#231F20"/>
<path d="M138.945 37.6194C137.703 37.5647 136.505 37.1456 135.5 36.4144C135.472 36.3953 135.448 36.3706 135.429 36.3418C135.411 36.313 135.399 36.2807 135.393 36.247C135.388 36.2133 135.389 36.1789 135.398 36.1458C135.406 36.1127 135.421 36.0817 135.442 36.0547C135.463 36.0277 135.489 36.0053 135.519 35.9887C135.549 35.9722 135.582 35.962 135.616 35.9587C135.65 35.9554 135.684 35.9591 135.717 35.9695C135.749 35.98 135.779 35.997 135.805 36.0194C135.92 36.1094 138.65 38.1794 141.01 36.4294C141.036 36.4056 141.066 36.3875 141.1 36.3763C141.133 36.3651 141.168 36.361 141.203 36.3644C141.238 36.3677 141.272 36.3784 141.303 36.3957C141.333 36.413 141.36 36.4366 141.38 36.4649C141.401 36.4931 141.416 36.5255 141.424 36.5598C141.431 36.5941 141.431 36.6296 141.424 36.664C141.417 36.6984 141.403 36.731 141.382 36.7595C141.362 36.7879 141.335 36.8118 141.305 36.8294C140.626 37.3444 139.797 37.622 138.945 37.6194Z" fill="#231F20"/>
<path d="M144.12 34.4396C144.31 34.2536 144.535 34.1074 144.783 34.0095C145.03 33.9117 145.294 33.8641 145.56 33.8696C145.827 33.8816 146.084 33.97 146.302 34.1242C146.521 34.2785 146.69 34.492 146.79 34.7396C146.86 35.0318 146.855 35.3371 146.774 35.6266C146.694 35.9162 146.541 36.1804 146.33 36.3946C146.029 36.7391 145.658 37.0167 145.243 37.2096C144.828 37.4025 144.378 37.5064 143.92 37.5146" fill="white"/>
<path d="M143.92 37.7748C143.854 37.7748 143.79 37.7485 143.743 37.7016C143.696 37.6547 143.67 37.5911 143.67 37.5248C143.669 37.4922 143.675 37.4598 143.687 37.4295C143.699 37.3992 143.717 37.3716 143.74 37.3483C143.763 37.325 143.79 37.3066 143.82 37.2939C143.85 37.2813 143.882 37.2748 143.915 37.2748C144.338 37.2689 144.755 37.1736 145.138 36.9952C145.522 36.8168 145.863 36.5594 146.14 36.2398C146.321 36.0583 146.454 35.8339 146.526 35.5874C146.598 35.3409 146.606 35.0804 146.55 34.8298C146.467 34.63 146.329 34.4579 146.152 34.3339C145.975 34.2099 145.766 34.1391 145.55 34.1298C145.318 34.1241 145.087 34.1655 144.871 34.2514C144.656 34.3374 144.46 34.4661 144.295 34.6298C144.247 34.6759 144.184 34.7017 144.117 34.7017C144.051 34.7017 143.988 34.6759 143.94 34.6298C143.917 34.6066 143.898 34.5789 143.885 34.5485C143.873 34.518 143.866 34.4853 143.866 34.4523C143.866 34.4193 143.873 34.3866 143.885 34.3562C143.898 34.3257 143.917 34.2981 143.94 34.2748C144.156 34.0666 144.411 33.904 144.691 33.7966C144.971 33.6892 145.27 33.6393 145.57 33.6498C145.885 33.6664 146.188 33.7727 146.444 33.9561C146.7 34.1395 146.898 34.3924 147.015 34.6848C147.103 35.0185 147.103 35.3693 147.016 35.7031C146.928 36.0369 146.756 36.3424 146.515 36.5898C146.19 36.9613 145.791 37.2605 145.343 37.468C144.895 37.6756 144.409 37.7869 143.915 37.7948L143.92 37.7748Z" fill="#231F20"/>
<path d="M78.0602 83.5095C78.0602 83.5095 83.7352 106.809 79.9902 108.429C76.2452 110.049 54.9352 113.164 54.9352 113.164L53.9702 106.444C53.9702 106.444 70.3652 102.854 71.2602 102.039C72.1552 101.224 65.7602 81.4245 65.6102 81.2645C65.4602 81.1045 78.0602 83.5095 78.0602 83.5095Z" fill="#231F20"/>
<path d="M54.9348 113.415C54.8825 113.413 54.8319 113.396 54.7898 113.365C54.7631 113.345 54.7404 113.32 54.7233 113.292C54.7061 113.264 54.6947 113.232 54.6898 113.2L53.7198 106.48C53.7108 106.417 53.7259 106.353 53.7621 106.301C53.7983 106.249 53.8529 106.213 53.9148 106.2C60.2298 104.82 70.4748 102.415 71.0898 101.855C71.5898 100.77 65.9498 82.5495 65.3998 81.3945C65.3764 81.3561 65.364 81.312 65.364 81.267C65.364 81.2221 65.3764 81.1779 65.3998 81.1395C65.5148 80.9195 65.5448 80.8595 78.1148 83.2645C78.1618 83.273 78.2053 83.295 78.24 83.3279C78.2746 83.3608 78.2989 83.403 78.3098 83.4495C78.8998 85.8545 83.9298 107 80.0998 108.66C76.3648 110.28 55.8548 113.285 54.9848 113.41L54.9348 113.415ZM54.2498 106.64L55.1498 112.87C57.5398 112.515 76.4348 109.69 79.8898 108.19C80.6998 107.84 81.8098 105.715 80.1848 95.3945C79.3298 89.9895 78.0848 84.6845 77.8548 83.7145C73.6298 82.9095 67.5648 81.7745 65.9948 81.5395C67.0848 84.3795 71.6498 99.2545 71.5948 101.69C71.6041 101.784 71.5939 101.879 71.5646 101.97C71.5353 102.06 71.4878 102.143 71.4248 102.215C70.5398 103.035 56.7348 106.095 54.2498 106.64Z" fill="#231F20"/>
<path d="M51.8848 82.7098L69.6298 124.625L77.2748 123.15L65.6598 78.9048L51.8848 82.7098Z" fill="#231F20"/>
<path d="M69.6302 124.87C69.5815 124.869 69.534 124.855 69.4933 124.828C69.4525 124.802 69.4202 124.764 69.4002 124.72L51.6552 82.7999C51.6419 82.7669 51.6356 82.7314 51.6369 82.6958C51.6381 82.6603 51.6468 82.6253 51.6623 82.5933C51.6778 82.5613 51.6999 82.5329 51.7271 82.5099C51.7543 82.4869 51.786 82.4699 51.8202 82.4599L65.5902 78.6599C65.6209 78.6465 65.6541 78.6396 65.6877 78.6396C65.7212 78.6396 65.7544 78.6465 65.7852 78.6599C65.841 78.6937 65.882 78.7472 65.9002 78.8099L77.5002 123.09C77.5103 123.123 77.5129 123.157 77.5077 123.191C77.5025 123.225 77.4896 123.257 77.4702 123.285C77.4524 123.315 77.4284 123.34 77.4 123.36C77.3716 123.38 77.3392 123.393 77.3052 123.4L69.6802 124.87H69.6302ZM52.2302 82.8699L69.7802 124.335L76.9652 122.95L65.4652 79.2099L52.2302 82.8699Z" fill="#231F20"/>
<path d="M58.155 27.7545C56.8774 26.8542 55.3446 26.3878 53.7821 26.4238C52.2196 26.4598 50.7098 26.9964 49.475 27.9545C48.5367 28.6886 47.8241 29.6723 47.4191 30.7927C47.0141 31.9132 46.933 33.1251 47.1851 34.2895C47.5064 35.4328 48.1809 36.4454 49.112 37.1826C50.0432 37.9198 51.1835 38.344 52.37 38.3945C54.665 38.5095 57.08 36.5445 58.3 34.7445C59.775 32.5695 60.765 29.5545 58.155 27.7545Z" fill="white"/>
<path d="M52.5652 38.6497H52.3552C51.116 38.6004 49.9243 38.1596 48.9514 37.3906C47.9785 36.6216 47.2743 35.564 46.9402 34.3697C46.6815 33.1579 46.7673 31.8978 47.1879 30.7322C47.6085 29.5666 48.3472 28.5421 49.3202 27.7747C50.5981 26.7757 52.1645 26.2161 53.7862 26.1792C55.4078 26.1423 56.9981 26.63 58.3202 27.5697C61.5002 29.7447 59.5002 33.4097 58.5002 34.8697C57.2652 36.7247 54.8952 38.6497 52.5652 38.6497ZM53.9002 26.6497C52.3481 26.6523 50.8428 27.1811 49.6302 28.1497C48.7324 28.8569 48.0502 29.8009 47.6606 30.8753C47.271 31.9496 47.1894 33.1115 47.4252 34.2297C47.7296 35.3232 48.3736 36.2917 49.2642 36.9953C50.1548 37.699 51.2459 38.1015 52.3802 38.1447C54.4802 38.2397 56.8502 36.4447 58.0952 34.6047C59.0102 33.2497 60.8352 29.8997 58.0152 27.9647C56.8063 27.1264 55.3713 26.6748 53.9002 26.6697V26.6497Z" fill="#231F20"/>
<path d="M53.54 31.5646C52.7125 32.2913 52.085 33.2179 51.7174 34.256C51.3497 35.2941 51.2542 36.4091 51.44 37.4946C51.5091 38.0964 51.789 38.6544 52.23 39.0696C53.115 39.7896 54.455 39.3696 55.405 38.7396C56.9393 37.6649 58.204 36.2497 59.1 34.6046C59.765 33.4446 60.77 30.8296 58.97 30.1846C57.17 29.5396 54.86 30.4246 53.54 31.5646Z" fill="#231F20"/>
<path d="M53.3603 39.6946C52.8932 39.7063 52.4368 39.5542 52.0703 39.2646C51.5771 38.8141 51.2659 38.1987 51.1953 37.5346C50.9997 36.4063 51.0976 35.2467 51.4793 34.1671C51.8611 33.0875 52.5139 32.1242 53.3753 31.3696C54.7502 30.1846 57.2102 29.2846 59.0552 29.9446C59.2942 30.0216 59.5127 30.1516 59.6944 30.3247C59.8762 30.4978 60.0166 30.7097 60.1052 30.9446C60.6052 32.3646 59.4552 34.4746 59.3152 34.7096C58.4033 36.3899 57.1126 37.8348 55.5452 38.9296C54.9037 39.3857 54.1462 39.6509 53.3603 39.6946ZM57.6902 30.2296C56.2244 30.2786 54.8167 30.8153 53.6902 31.7546C52.8982 32.454 52.2985 33.3446 51.9484 34.3415C51.5983 35.3385 51.5094 36.4085 51.6902 37.4496C51.747 37.9926 51.9952 38.4977 52.3903 38.8746C53.1752 39.5096 54.3903 39.1096 55.2753 38.5296C56.7784 37.4786 58.0161 36.092 58.8902 34.4796C59.3352 33.6996 60.0002 32.1196 59.6402 31.1396C59.5799 30.97 59.4806 30.817 59.3503 30.6928C59.2201 30.5686 59.0625 30.4768 58.8902 30.4246C58.5047 30.2901 58.0986 30.2241 57.6902 30.2296Z" fill="#231F20"/>
<path d="M62.7898 45.7546C62.3957 46.1364 61.98 46.4953 61.5448 46.8296C60.6829 47.3343 59.707 47.6123 58.7085 47.6377C57.71 47.663 56.7213 47.4349 55.8348 46.9746C51.6098 44.7996 51.7098 39.8596 52.5848 35.8396C52.9398 34.2046 54.1348 30.7946 56.3398 32.4996C55.6948 31.9996 58.3398 30.3446 58.7448 30.1896C61.5548 29.0446 64.5398 30.6896 66.1848 32.9746C67.1578 34.2809 67.9828 35.6912 68.6448 37.1796C69.2948 38.8196 68.5848 41.0696 67.6448 42.4646C66.9186 43.5456 65.9129 44.4095 64.7348 44.9646C64.1898 45.2196 63.4898 45.2846 62.9848 45.5996L62.7898 45.7546Z" fill="white"/>
<path d="M58.605 47.8696C57.6034 47.8707 56.6159 47.6324 55.725 47.1746C52.225 45.3746 51.085 41.5396 52.34 35.7696C52.51 34.9896 53.175 32.3996 54.65 31.8596C54.8812 31.7795 55.127 31.7505 55.3704 31.7747C55.6139 31.7988 55.8492 31.8756 56.06 31.9996C56.465 31.1396 58.505 29.9996 58.65 29.9396C61.685 28.7046 64.79 30.5596 66.39 32.8096C67.3819 34.1286 68.2206 35.5561 68.89 37.0646C69.575 38.7846 68.85 41.1296 67.89 42.5646C67.1438 43.6843 66.1067 44.5796 64.89 45.1546C64.6284 45.2692 64.3574 45.3612 64.08 45.4296C63.7634 45.5059 63.4577 45.6218 63.17 45.7746C63.105 45.8196 63.04 45.8646 62.98 45.9146C62.8047 46.0457 62.6377 46.1877 62.48 46.3396C62.241 46.5886 61.9762 46.8115 61.69 47.0046C60.7621 47.5741 59.6938 47.8737 58.605 47.8696ZM55.19 32.2646C55.0638 32.2638 54.9385 32.2858 54.82 32.3296C53.82 32.6896 53.135 34.4646 52.82 35.8746C51.62 41.3746 52.67 45.0496 55.94 46.7296C56.788 47.1707 57.7337 47.3901 58.6893 47.3674C59.6448 47.3446 60.579 47.0805 61.405 46.5996C61.6601 46.4243 61.8978 46.225 62.115 46.0046C62.2734 45.8409 62.4403 45.6857 62.615 45.5396C62.6902 45.4801 62.7686 45.425 62.85 45.3746C63.1746 45.1885 63.5251 45.0519 63.89 44.9696C64.1415 44.9067 64.3874 44.8231 64.625 44.7196C65.7633 44.1841 66.7345 43.3494 67.435 42.3046C68.325 40.9596 69.005 38.8046 68.39 37.2496C67.75 35.788 66.9484 34.4027 66 33.1196C64.5 31.0246 61.635 29.2896 58.855 30.4246C58.355 30.6246 56.48 31.9246 56.505 32.2996C56.5307 32.3193 56.5521 32.3438 56.5683 32.3718C56.5844 32.3998 56.5948 32.4307 56.599 32.4628C56.6032 32.4948 56.601 32.5273 56.5926 32.5585C56.5842 32.5897 56.5697 32.619 56.55 32.6446C56.5303 32.6702 56.5058 32.6917 56.4778 32.7078C56.4498 32.7239 56.4189 32.7343 56.3869 32.7385C56.3548 32.7427 56.3223 32.7405 56.2911 32.7321C56.2599 32.7237 56.2307 32.7093 56.205 32.6896C55.9213 32.4452 55.5641 32.3027 55.19 32.2846V32.2646Z" fill="#231F20"/>
<path d="M65.9349 36.2793C65.9349 36.2793 67.5899 39.8843 67.1899 42.7793C67.0978 43.5817 66.774 44.34 66.2581 44.9615C65.7423 45.583 65.0566 46.0409 64.2849 46.2793L64.7199 51.2793C64.7199 51.2793 64.9699 53.8393 61.7949 53.7193C60.8736 53.6835 59.9767 53.413 59.1892 52.9335C58.4017 52.454 57.7497 51.7814 57.2949 50.9793L56.1499 41.8093C56.1499 41.8093 59.5299 39.4543 58.9299 36.1743C58.9299 36.1743 63.3349 37.8693 65.9349 36.2793Z" fill="white"/>
<path d="M62 53.9744H61.775C60.8108 53.9386 59.872 53.6553 59.0489 53.1518C58.2258 52.6483 57.546 51.9415 57.075 51.0994C57.0728 51.0728 57.0728 51.0461 57.075 51.0194L55.92 41.8394C55.9127 41.7943 55.9188 41.748 55.9374 41.7063C55.9561 41.6645 55.9865 41.6291 56.025 41.6044C56.055 41.6044 59.26 39.2994 58.7 36.2194C58.6933 36.1755 58.6976 36.1306 58.7124 36.0888C58.7272 36.0469 58.7522 36.0094 58.785 35.9794C58.82 35.9524 58.8612 35.9346 58.9049 35.9276C58.9486 35.9207 58.9933 35.9247 59.035 35.9394C59.08 35.9394 63.36 37.5544 65.82 36.0644C65.8516 36.051 65.8856 36.044 65.92 36.044C65.9543 36.044 65.9883 36.051 66.02 36.0644C66.054 36.0744 66.0855 36.0916 66.1123 36.1149C66.1391 36.1382 66.1605 36.167 66.175 36.1994C66.245 36.3494 67.86 39.9044 67.455 42.8294C67.355 43.6446 67.0325 44.4165 66.5227 45.0604C66.0129 45.7043 65.3355 46.1952 64.565 46.4794L64.985 51.2894C65.0061 51.6317 64.9596 51.9748 64.848 52.2991C64.7365 52.6234 64.5622 52.9226 64.335 53.1794C64.0229 53.4678 63.6539 53.6875 63.2517 53.8244C62.8495 53.9613 62.4231 54.0124 62 53.9744ZM57.54 50.9094C57.9735 51.6627 58.5915 52.2933 59.3359 52.742C60.0802 53.1907 60.9264 53.4428 61.795 53.4744C62.1789 53.5257 62.5695 53.4932 62.9397 53.3793C63.31 53.2654 63.6512 53.0727 63.94 52.8144C64.2966 52.3992 64.4762 51.8606 64.44 51.3144L64.005 46.3144C64.0007 46.255 64.0174 46.196 64.0521 46.1476C64.0868 46.0992 64.1373 46.0645 64.195 46.0494C64.9212 45.8261 65.5658 45.3942 66.0485 44.8075C66.5312 44.2208 66.8308 43.5051 66.91 42.7494C67.24 40.3944 66.14 37.4994 65.785 36.6444C63.545 37.7944 60.32 36.9194 59.205 36.5594C59.465 39.4194 56.985 41.4844 56.385 41.9394L57.54 50.9094Z" fill="#231F20"/>
<path d="M57.8301 41.0096C57.8301 41.0096 55.9751 37.6696 54.4251 40.0096C52.8751 42.3496 55.6251 44.5096 57.1551 44.1896" fill="white"/>
<path d="M56.8153 44.4794C56.2977 44.4436 55.7953 44.2898 55.3463 44.0298C54.8974 43.7698 54.5139 43.4105 54.2253 42.9794C53.9 42.5252 53.7251 41.9806 53.7251 41.4219C53.7251 40.8633 53.9 40.3186 54.2253 39.8644C54.3681 39.5873 54.5825 39.3534 54.8463 39.1873C55.1101 39.0211 55.4136 38.9286 55.7253 38.9194C56.9903 38.9694 58.0203 40.7994 58.0653 40.8794C58.081 40.9083 58.091 40.94 58.0945 40.9728C58.098 41.0055 58.095 41.0386 58.0857 41.0701C58.0764 41.1017 58.061 41.1312 58.0403 41.1568C58.0197 41.1824 57.9942 41.2037 57.9653 41.2194C57.9364 41.2352 57.9047 41.2451 57.872 41.2486C57.8392 41.2521 57.8061 41.2491 57.7746 41.2399C57.743 41.2306 57.7136 41.2152 57.6879 41.1945C57.6623 41.1738 57.641 41.1483 57.6253 41.1194C57.3703 40.6594 56.5203 39.4494 55.7053 39.4194C55.4819 39.4371 55.2671 39.5128 55.082 39.6391C54.8969 39.7654 54.7481 39.9379 54.6503 40.1394C54.38 40.5106 54.2344 40.9578 54.2344 41.4169C54.2344 41.876 54.38 42.3233 54.6503 42.6944C55.2453 43.5544 56.3453 44.1144 57.1153 43.9444C57.1816 43.9299 57.251 43.9422 57.3082 43.9788C57.3654 44.0153 57.4057 44.0731 57.4203 44.1394C57.4349 44.2057 57.4225 44.2751 57.3859 44.3323C57.3494 44.3895 57.2916 44.4299 57.2253 44.4444C57.0905 44.4723 56.9529 44.4841 56.8153 44.4794Z" fill="#231F20"/>
<path d="M64.3099 43.2143C64.077 43.2136 63.8445 43.1935 63.6149 43.1543C63.5821 43.1488 63.5506 43.1368 63.5224 43.119C63.4942 43.1013 63.4698 43.0782 63.4506 43.0511C63.4313 43.0239 63.4176 42.9932 63.4101 42.9607C63.4027 42.9283 63.4018 42.8947 63.4074 42.8618C63.413 42.829 63.425 42.7976 63.4427 42.7694C63.4604 42.7412 63.4835 42.7168 63.5107 42.6975C63.5378 42.6782 63.5685 42.6645 63.601 42.6571C63.6334 42.6497 63.6671 42.6488 63.6999 42.6543C64.1651 42.7469 64.6465 42.7141 65.0949 42.5593C65.0949 42.2693 64.3499 41.1943 63.4549 40.1993C63.4316 40.1765 63.4131 40.1493 63.4005 40.1193C63.3879 40.0892 63.3813 40.0569 63.3813 40.0243C63.3813 39.9917 63.3879 39.9595 63.4005 39.9294C63.4131 39.8994 63.4316 39.8721 63.4549 39.8493C63.4781 39.8259 63.5058 39.8073 63.5362 39.7946C63.5667 39.7819 63.5994 39.7754 63.6324 39.7754C63.6654 39.7754 63.6981 39.7819 63.7285 39.7946C63.759 39.8073 63.7866 39.8259 63.8099 39.8493C64.2449 40.3493 65.6599 41.9643 65.5649 42.6343C65.5586 42.6983 65.5378 42.7599 65.504 42.8145C65.4702 42.8691 65.4243 42.9152 65.3699 42.9493C65.0463 43.1301 64.6805 43.2216 64.3099 43.2143Z" fill="#231F20"/>
<path d="M63.2498 44.8698C63.0825 44.871 62.9154 44.8593 62.7498 44.8348C61.8516 44.7035 61.034 44.2439 60.4548 43.5448C60.4225 43.4871 60.4143 43.4189 60.4321 43.3552C60.4499 43.2915 60.4922 43.2374 60.5498 43.2048C60.6078 43.1738 60.6756 43.1663 60.7389 43.184C60.8023 43.2017 60.8564 43.2432 60.8898 43.2998C61.4112 43.8756 62.1199 44.2477 62.8898 44.3498C63.8898 44.4648 64.8298 44.0648 65.7448 43.1748C65.7674 43.1488 65.7952 43.1278 65.8263 43.113C65.8574 43.0983 65.8912 43.0901 65.9257 43.089C65.9601 43.0879 65.9944 43.094 66.0264 43.1068C66.0584 43.1195 66.0874 43.1388 66.1115 43.1633C66.1357 43.1879 66.1546 43.2171 66.1669 43.2493C66.1793 43.2815 66.1848 43.3158 66.1833 43.3502C66.1817 43.3847 66.173 43.4184 66.1578 43.4493C66.1426 43.4802 66.1212 43.5076 66.0948 43.5298C65.3603 44.3342 64.3378 44.8158 63.2498 44.8698Z" fill="#231F20"/>
<path d="M64.2848 46.2793C64.2848 46.2793 61.6398 46.8493 60.0698 46.5893C60.0698 46.5893 62.0698 50.3893 64.6298 50.1443L64.2848 46.2793Z" fill="#231F20"/>
<path d="M64.3951 50.4047C61.8451 50.4047 59.9301 46.8647 59.8501 46.7097C59.8258 46.6697 59.813 46.6239 59.813 46.5772C59.813 46.5304 59.8258 46.4846 59.8501 46.4447C59.8783 46.4076 59.9158 46.3788 59.9589 46.3612C60.002 46.3436 60.0491 46.3379 60.0951 46.3447C61.5951 46.5897 64.1901 46.0397 64.2151 46.0347C64.2505 46.0269 64.2872 46.0269 64.3226 46.0346C64.358 46.0424 64.3913 46.0578 64.4201 46.0797C64.4482 46.1001 64.4717 46.1262 64.489 46.1564C64.5062 46.1866 64.5168 46.2201 64.5201 46.2547L64.8651 50.1197C64.8686 50.1525 64.8655 50.1858 64.856 50.2174C64.8465 50.2491 64.8309 50.2785 64.81 50.3041C64.7891 50.3297 64.7633 50.3509 64.7341 50.3664C64.705 50.3819 64.673 50.3916 64.6401 50.3947L64.3951 50.4047ZM60.5401 46.9047C61.1151 47.8147 62.6101 49.9047 64.3601 49.9047L64.0601 46.5797C62.9019 46.8137 61.7215 46.9193 60.5401 46.8947V46.9047Z" fill="#231F20"/>
<path d="M61.9432 40.35C62.1591 40.3193 62.2906 39.9885 62.2369 39.6112C62.1831 39.2339 61.9644 38.9531 61.7485 38.9838C61.5325 39.0146 61.401 39.3454 61.4548 39.7226C61.5085 40.0999 61.7272 40.3808 61.9432 40.35Z" fill="#231F20"/>
<path d="M65.5491 39.8315C65.7651 39.8007 65.8966 39.4699 65.8428 39.0926C65.789 38.7154 65.5704 38.4345 65.3544 38.4653C65.1385 38.496 65.007 38.8268 65.0607 39.2041C65.1145 39.5814 65.3331 39.8622 65.5491 39.8315Z" fill="#231F20"/>
<path d="M149.705 54.9997L108.785 33.5897C108.396 33.3857 107.957 33.2952 107.519 33.3286C107.08 33.3619 106.66 33.5178 106.306 33.7785C105.952 34.0392 105.679 34.3941 105.517 34.8027C105.355 35.2114 105.311 35.6573 105.39 36.0897L106.985 45.0897L38.4353 57.2397C38.2473 57.2729 38.0678 57.3428 37.9069 57.4455C37.7461 57.5482 37.6071 57.6817 37.4979 57.8382C37.3888 57.9948 37.3116 58.1713 37.2708 58.3578C37.23 58.5442 37.2264 58.7369 37.2603 58.9247L43.4253 93.6597C43.4923 94.0382 43.707 94.3747 44.022 94.595C44.337 94.8153 44.7267 94.9016 45.1053 94.8347L113.66 82.6697L115.255 91.6697C115.333 92.1001 115.529 92.5003 115.822 92.825C116.115 93.1497 116.493 93.386 116.913 93.5071C117.334 93.6283 117.779 93.6296 118.2 93.5107C118.621 93.3919 119 93.1577 119.295 92.8347L150.355 58.6497C150.594 58.3839 150.77 58.0671 150.868 57.7233C150.966 57.3795 150.985 57.0179 150.922 56.6659C150.859 56.3139 150.717 55.9809 150.506 55.6922C150.295 55.4034 150.021 55.1666 149.705 54.9997Z" fill="white"/>
<path d="M44.85 95.1098C44.5027 95.1077 44.1642 94.9995 43.88 94.7998C43.6965 94.6729 43.54 94.5107 43.4198 94.3227C43.2997 94.1347 43.2181 93.9247 43.18 93.7048L37 58.9648C36.9612 58.7448 36.9661 58.5194 37.0144 58.3013C37.0628 58.0832 37.1536 57.8768 37.2818 57.6938C37.4099 57.5109 37.5729 57.355 37.7613 57.235C37.9498 57.1151 38.16 57.0335 38.38 56.9948L106.695 44.8698L105.145 36.1148C105.062 35.6382 105.115 35.148 105.296 34.6996C105.477 34.2511 105.78 33.8622 106.17 33.5767C106.561 33.2913 107.023 33.1207 107.506 33.0841C107.988 33.0475 108.471 33.1465 108.9 33.3698L149.825 54.7848C150.176 54.9683 150.481 55.2301 150.715 55.5498C150.949 55.8695 151.107 56.2387 151.176 56.629C151.245 57.0193 151.224 57.4202 151.113 57.8009C151.003 58.1815 150.807 58.5319 150.54 58.8248L119.5 93.0098C119.173 93.3672 118.753 93.626 118.287 93.7571C117.821 93.8881 117.328 93.8862 116.863 93.7515C116.398 93.6167 115.979 93.3546 115.656 92.9947C115.332 92.6348 115.115 92.1914 115.03 91.7148L113.475 82.9598L45.15 95.0798C45.0513 95.0997 44.9508 95.1097 44.85 95.1098ZM107.69 33.5648C107.247 33.5683 106.817 33.7118 106.46 33.9748C106.141 34.2032 105.894 34.518 105.748 34.882C105.602 35.2461 105.563 35.6443 105.635 36.0298L107.235 45.0298C107.245 45.0953 107.23 45.1622 107.191 45.2164C107.153 45.2705 107.095 45.3076 107.03 45.3198L38.5 57.4848C38.1864 57.5441 37.9084 57.7235 37.725 57.9848C37.5363 58.2386 37.4555 58.5567 37.5 58.8698L43.665 93.6048C43.7211 93.9189 43.8994 94.1979 44.161 94.3807C44.4225 94.5635 44.7458 94.6351 45.06 94.5798L113.61 82.4148C113.675 82.4044 113.741 82.4194 113.795 82.4567C113.849 82.4939 113.887 82.5506 113.9 82.6148L115.495 91.6148C115.563 92.0006 115.737 92.3596 115.999 92.6509C116.261 92.9422 116.599 93.1542 116.975 93.2626C117.351 93.371 117.751 93.3715 118.127 93.2641C118.504 93.1566 118.843 92.9455 119.105 92.6548L150.165 58.4698C150.379 58.2328 150.537 57.9499 150.625 57.6427C150.713 57.3356 150.73 57.0123 150.674 56.6977C150.618 56.3831 150.491 56.0854 150.302 55.8276C150.113 55.5697 149.868 55.3584 149.585 55.2098L108.665 33.8098C108.365 33.6495 108.03 33.5653 107.69 33.5648Z" fill="#231F20"/>
<path d="M106.86 42.1299C106.31 41.9449 105.75 41.7799 105.19 41.6299C104.842 41.5072 104.466 41.4932 104.11 41.5899C103.61 41.7849 103.355 42.3799 103.175 42.9049C102.91 43.7099 102.635 44.5699 102.865 45.4049C103.2 46.5949 104.47 47.2499 105.66 47.5749C106.243 47.7595 106.859 47.8142 107.465 47.7349C111 47.0949 109.21 42.9199 106.86 42.1299Z" fill="white"/>
<path d="M106.97 48.0194C106.504 48.0083 106.042 47.936 105.595 47.8044C104.66 47.5544 103.03 46.9144 102.625 45.4644C102.365 44.5444 102.685 43.5994 102.94 42.8344C103.135 42.2494 103.4 41.5994 104.02 41.3644C104.423 41.2466 104.854 41.2588 105.25 41.3994C105.82 41.5394 106.39 41.7094 106.94 41.8994C108.495 42.3994 109.805 44.3144 109.69 45.8694C109.645 46.5194 109.295 47.6544 107.51 47.9794C107.331 48.0074 107.151 48.0208 106.97 48.0194ZM104.5 41.7844C104.394 41.7827 104.289 41.7996 104.19 41.8344C103.77 41.9894 103.565 42.5144 103.405 42.9944C103.115 43.8494 102.905 44.6144 103.095 45.3294C103.435 46.5394 104.885 47.0994 105.715 47.3294C106.262 47.5038 106.84 47.5584 107.41 47.4894C108.505 47.2944 109.115 46.7194 109.18 45.8344C109.28 44.5094 108.105 42.8344 106.77 42.3744C106.23 42.1944 105.675 42.0344 105.12 41.8744C104.918 41.8182 104.709 41.7879 104.5 41.7844Z" fill="#231F20"/>
<path d="M44.795 60.4343C44.928 60.4342 45.0593 60.4052 45.18 60.3493C46.455 59.7943 46.275 57.4393 46.385 56.2893C46.445 55.6443 46.43 54.8643 45.885 54.5293C44.655 53.7843 42.945 54.1093 41.83 54.9293C40.715 55.7493 40.47 57.2993 40.595 58.6293C40.64 59.1593 40.68 60.3343 41.16 60.6643C41.8 61.1143 42.555 59.8743 42.54 59.3243V59.7693C42.5328 59.9744 42.5615 60.1792 42.625 60.3743C42.6563 60.4731 42.7114 60.5627 42.7855 60.6351C42.8597 60.7075 42.9505 60.7604 43.05 60.7893C43.37 60.8543 43.66 60.5743 43.79 60.2893C43.8821 59.9781 43.9922 59.6726 44.12 59.3743C44.0232 59.5106 43.9812 59.6785 44.0025 59.8443C44.0238 60.0102 44.1068 60.1619 44.235 60.2693C44.3947 60.392 44.5943 60.4509 44.795 60.4343Z" fill="white"/>
<path d="M43.15 61.0494C43.1001 61.0543 43.0499 61.0543 43 61.0494C42.8587 61.0131 42.7287 60.9419 42.6221 60.8423C42.5155 60.7427 42.4357 60.6179 42.39 60.4794C42.39 60.4794 42.39 60.4444 42.39 60.4244C42.2604 60.6244 42.09 60.7948 41.89 60.9244C41.754 61.0079 41.5956 61.0475 41.4363 61.0377C41.277 61.0278 41.1246 60.969 41 60.8693C40.475 60.5044 40.395 59.4994 40.345 58.8344V58.6543C40.23 57.3994 40.345 55.6994 41.685 54.7294C42.77 53.9244 44.59 53.4544 46.015 54.3143C46.71 54.7343 46.705 55.6544 46.645 56.3143C46.645 56.5243 46.615 56.7694 46.6 57.0344C46.55 58.3144 46.475 60.0644 45.29 60.5844C45.1326 60.6544 44.9622 60.6902 44.79 60.6893C44.5265 60.6998 44.2679 60.6165 44.06 60.4543L44 60.3693C43.9354 60.5505 43.8217 60.71 43.6716 60.8301C43.5215 60.9502 43.3408 61.0261 43.15 61.0494ZM42.78 59.3194V59.7593C42.7742 59.9387 42.7978 60.1177 42.85 60.2893C42.8671 60.3485 42.8983 60.4027 42.941 60.4471C42.9837 60.4915 43.0365 60.5249 43.095 60.5443C43.265 60.5793 43.46 60.3844 43.55 60.1744C43.5982 60.0572 43.6383 59.937 43.67 59.8143L43.745 59.5643C43.7721 59.43 43.8322 59.3046 43.92 59.1994C43.9612 59.1553 44.0169 59.1276 44.0769 59.1214C44.1369 59.1151 44.1972 59.1309 44.2465 59.1656C44.2959 59.2003 44.331 59.2517 44.3454 59.3103C44.3598 59.3689 44.3526 59.4307 44.325 59.4844C44.289 59.5499 44.2589 59.6185 44.235 59.6893C44.23 59.7141 44.23 59.7396 44.235 59.7644C44.2439 59.8801 44.2978 59.9877 44.385 60.0643C44.4961 60.1541 44.6377 60.1972 44.78 60.1843C44.8795 60.1823 44.9778 60.162 45.07 60.1244C45.97 59.7294 46.035 58.1593 46.07 57.0093C46.07 56.7343 46.07 56.4794 46.11 56.2644C46.19 55.4344 46.065 54.9544 45.725 54.7644C44.55 54.0544 42.935 54.4193 41.945 55.1493C40.82 55.9843 40.705 57.4993 40.805 58.6493V58.8344C40.845 59.2994 40.92 60.2694 41.25 60.4994C41.2962 60.5316 41.3511 60.5489 41.4075 60.5489C41.4638 60.5489 41.5188 60.5316 41.565 60.4994C41.7496 60.3668 41.9048 60.1976 42.021 60.0023C42.1371 59.807 42.2117 59.5898 42.24 59.3643C42.2386 59.2989 42.263 59.2355 42.3079 59.1878C42.3527 59.1401 42.4145 59.112 42.48 59.1094C42.5464 59.1092 42.6104 59.1346 42.6587 59.1801C42.7071 59.2257 42.7361 59.288 42.74 59.3544L42.78 59.3194Z" fill="#231F20"/>
<path d="M157.5 53.3247C157.5 53.3247 160.57 68.0797 156.935 69.0397C152 70.3697 131.5 65.3397 131.5 65.3397C131.5 65.3397 126.15 66.6547 125.215 65.2447C124.28 63.8347 125.215 61.8647 125.685 61.7447C126.155 61.6247 130.185 61.3447 130.185 61.3447C130.185 61.3447 126.905 58.9297 127.935 58.7447C128.965 58.5597 132.63 59.7747 132.63 59.7747C132.63 59.7747 152.71 61.2747 152.525 60.2347C152.34 59.1947 151.41 55.2847 151.41 55.2847" fill="white"/>
<path d="M154.65 69.5098C147.725 69.5098 132.795 65.9048 131.52 65.5948C130.73 65.7848 126.02 66.8498 125.02 65.3848C124.763 64.947 124.614 64.4542 124.585 63.9472C124.556 63.4403 124.649 62.9338 124.855 62.4698C124.935 62.2698 125.24 61.6098 125.65 61.5248C126.06 61.4398 128.355 61.2648 129.525 61.1698C128.55 60.4148 127.39 59.3848 127.525 58.8548C127.548 58.7653 127.598 58.6852 127.669 58.626C127.74 58.5668 127.828 58.5314 127.92 58.5248C128.96 58.3348 132.205 59.3898 132.705 59.5548C139.745 60.0548 151.06 60.6948 152.285 60.1948C152.065 59.0348 151.21 55.4048 151.2 55.3648C151.185 55.2985 151.197 55.2288 151.233 55.1712C151.269 55.1135 151.326 55.0725 151.393 55.0573C151.459 55.042 151.529 55.0538 151.586 55.0899C151.644 55.126 151.685 55.1835 151.7 55.2498C151.74 55.4098 152.63 59.1898 152.815 60.2148C152.825 60.2656 152.823 60.3181 152.808 60.3678C152.793 60.4174 152.766 60.4627 152.73 60.4998C151.92 61.4048 137.16 60.3848 132.655 60.0498H132.595C131.595 59.7148 128.865 58.8898 128.045 59.0198C128.17 59.3598 129.195 60.3048 130.38 61.1798C130.421 61.2101 130.452 61.2521 130.469 61.3002C130.486 61.3483 130.488 61.4004 130.475 61.4498C130.46 61.4986 130.43 61.5418 130.39 61.5738C130.35 61.6058 130.301 61.6253 130.25 61.6298C129.135 61.7148 126.15 61.9548 125.775 62.0248C125.528 62.2481 125.353 62.5408 125.275 62.8648C125.137 63.2302 125.082 63.622 125.115 64.0113C125.148 64.4007 125.267 64.7778 125.465 65.1148C126.08 66.0348 129.465 65.6148 131.465 65.1148C131.505 65.1048 131.546 65.1048 131.585 65.1148C131.79 65.1648 152.05 70.1148 156.895 68.8198C159.69 68.0798 158.12 57.4348 157.28 53.3948C157.267 53.3285 157.28 53.2596 157.318 53.2034C157.355 53.1471 157.414 53.1081 157.48 53.0948C157.546 53.0815 157.615 53.0952 157.672 53.1327C157.728 53.1702 157.767 53.2285 157.78 53.2948C158.1 54.8298 160.78 68.2948 157.035 69.2948C156.252 69.4656 155.451 69.5378 154.65 69.5098Z" fill="#231F20"/>
<path d="M151.43 55.5597C151.374 55.5589 151.32 55.5392 151.276 55.5038C151.233 55.4684 151.202 55.4195 151.19 55.3647L148.925 45.7797C148.917 45.7479 148.915 45.7147 148.92 45.6822C148.925 45.6497 148.937 45.6185 148.954 45.5905C148.971 45.5625 148.994 45.5383 149.021 45.5192C149.048 45.5002 149.078 45.4868 149.11 45.4797C149.174 45.466 149.241 45.4776 149.297 45.5121C149.353 45.5465 149.394 45.6012 149.41 45.6647L151.675 55.2497C151.69 55.314 151.679 55.3817 151.644 55.4379C151.61 55.4941 151.554 55.5343 151.49 55.5497L151.43 55.5597Z" fill="#231F20"/>
<path d="M99.2552 29.9345C99.2179 29.9342 99.1812 29.9249 99.1481 29.9075C99.1151 29.8901 99.0867 29.8651 99.0652 29.8345C99.0481 29.8096 99.0361 29.7815 99.0299 29.7519C99.0236 29.7223 99.0233 29.6918 99.0288 29.6621C99.0344 29.6324 99.0458 29.604 99.0623 29.5787C99.0789 29.5534 99.1002 29.5316 99.1252 29.5145C99.3037 29.3956 99.4451 29.229 99.5335 29.0337C99.6219 28.8383 99.6537 28.6221 99.6252 28.4095C99.4713 28.0923 99.3603 27.756 99.2952 27.4095C99.2874 27.3576 99.2976 27.3046 99.324 27.2593C99.3505 27.214 99.3917 27.1791 99.4408 27.1604C99.4898 27.1417 99.5438 27.1404 99.5937 27.1566C99.6436 27.1728 99.6865 27.2056 99.7152 27.2495C99.899 27.5559 100.02 27.8959 100.07 28.2495C100.129 28.3779 100.225 28.4858 100.345 28.5595C100.384 28.5772 100.428 28.5833 100.47 28.5771C100.513 28.5709 100.553 28.5527 100.585 28.5245C101.04 28.2545 100.585 26.6495 100.155 25.6545C100.143 25.6273 100.136 25.5979 100.135 25.568C100.134 25.5381 100.139 25.5083 100.15 25.4804C100.16 25.4525 100.177 25.4269 100.197 25.4053C100.218 25.3837 100.243 25.3665 100.27 25.3545C100.326 25.3305 100.389 25.3291 100.446 25.3506C100.503 25.372 100.549 25.4146 100.575 25.4695C100.785 25.9445 101.785 28.3395 100.82 28.9145C100.725 28.9818 100.614 29.0228 100.498 29.0334C100.382 29.0439 100.266 29.0236 100.16 28.9745C100.119 28.958 100.08 28.9362 100.045 28.9095C99.9552 29.3058 99.715 29.6517 99.3752 29.8745C99.3414 29.9051 99.2999 29.9258 99.2552 29.9345Z" fill="#231F20"/>
<path d="M73.5001 109.005C73.4496 109.005 73.4006 108.988 73.3607 108.958C73.3208 108.927 73.2924 108.883 73.2801 108.835L68.8201 92.1696C68.8095 92.138 68.8059 92.1046 68.8095 92.0715C68.8131 92.0385 68.8238 92.0066 68.8409 91.9781C68.858 91.9496 68.8811 91.9251 68.9086 91.9064C68.936 91.8876 68.9673 91.8751 69.0001 91.8696C69.0591 91.8544 69.1217 91.8632 69.1742 91.8941C69.2267 91.9251 69.2648 91.9756 69.2801 92.0346L73.7401 108.7C73.7554 108.758 73.7473 108.82 73.7173 108.872C73.6874 108.925 73.6381 108.963 73.5801 108.98L73.5001 109.005Z" fill="white"/>
</svg>
