<svg width="180" height="188" viewBox="0 0 180 188" fill="none" xmlns="http://www.w3.org/2000/svg">
<g clip-path="url(#clip0)">
<path d="M40.8736 65.3981L34.0508 69.8818L105.102 178.441L111.925 173.957L40.8736 65.3981Z" fill="#E6E6E6"/>
<path d="M24.6263 24.5283L40.401 48.635C41.0439 49.6013 40.7719 50.9144 39.8076 51.5585C38.8433 52.2027 37.5329 51.9302 36.89 50.9639L18.7417 23.24C16.2692 23.0418 13.7966 23.4382 11.5466 24.4292L31.3269 54.6307C31.9697 55.597 31.6977 56.9101 30.7087 57.5542C29.7444 58.1984 28.434 57.9259 27.7911 56.9596L8.01092 26.7581C6.20598 28.4429 4.84609 30.5736 4.05488 32.9025L22.2032 60.6264C22.8461 61.5927 22.5741 62.9058 21.5851 63.5499C20.6208 64.1941 19.3104 63.9216 18.6675 62.9553L2.89279 38.8486C2.49719 45.5628 4.67301 53.5406 9.46972 60.8742C18.3708 74.5008 32.9093 80.7194 41.934 74.7981C50.9587 68.8767 51.0329 53.0203 42.1318 39.4185C37.3598 32.0353 30.9313 26.8572 24.6263 24.5283Z" fill="#E6E6E6"/>
<path d="M71.4562 50.542H63.2969V180.366H71.4562V50.542Z" fill="#E6E6E6"/>
<path d="M67.2527 58.966C78.0405 58.966 86.7857 45.766 86.7857 29.483C86.7857 13.2 78.0405 0 67.2527 0C56.4649 0 47.7197 13.2 47.7197 29.483C47.7197 45.766 56.4649 58.966 67.2527 58.966Z" fill="#E6E6E6"/>
<path d="M67.2526 53.7382C76.1286 53.7382 83.324 42.8787 83.324 29.4829C83.324 16.087 76.1286 5.22754 67.2526 5.22754C58.3766 5.22754 51.1812 16.087 51.1812 29.4829C51.1812 42.8787 58.3766 53.7382 67.2526 53.7382Z" fill="#CCCCCC"/>
<path d="M90 187.031C139.706 187.031 180 184.713 180 181.853C180 178.993 139.706 176.675 90 176.675C40.2944 176.675 0 178.993 0 181.853C0 184.713 40.2944 187.031 90 187.031Z" fill="#E6E6E6"/>
<path d="M143.233 181.779C109.508 175.684 74.9669 175.684 41.2416 181.779C39.2141 182.151 37.2856 180.813 36.9147 178.781C36.8652 178.558 36.8652 178.335 36.8652 178.112V131.807H147.634V178.112C147.634 180.169 145.953 181.829 143.901 181.829C143.654 181.829 143.431 181.829 143.233 181.779Z" fill="#F97794"/>
<path d="M137.473 97.6161C134.926 97.6161 132.379 98.0373 129.956 98.8796C119.72 76.6311 93.4123 66.9191 71.209 77.1762C61.7887 81.5367 54.1733 89.0685 49.7227 98.4832C37.4837 95.0394 24.7997 102.2 21.3629 114.439C17.926 126.703 25.0716 139.413 37.2859 142.856C42.4041 144.293 47.8436 143.922 52.7145 141.791C66.1156 162.28 93.5607 167.979 114.008 154.55C119.25 151.107 123.701 146.573 127.063 141.271C138.412 146.994 152.234 142.435 157.945 131.088C163.657 119.716 159.107 105.866 147.783 100.143C144.618 98.4585 141.083 97.6161 137.473 97.6161Z" fill="#F97794"/>
<path d="M45.7419 117.437H45.2474C45.2227 110.846 46.6814 104.33 49.5001 98.3594L49.9452 98.5824C47.176 104.479 45.7172 110.921 45.7419 117.437Z" fill="#3F3D56"/>
<path d="M134.258 117.436H133.764C133.788 111.069 132.404 104.751 129.733 98.9785L130.178 98.7803C132.874 104.627 134.283 110.995 134.258 117.436Z" fill="#3F3D56"/>
<path d="M36.8902 153.361L36.7666 152.89C36.915 152.866 50.9589 149.397 71.5551 147.687C90.5688 146.102 119.201 145.73 147.659 152.89L147.536 153.361C119.151 146.201 90.5688 146.573 71.6045 148.158C51.0578 149.868 37.0386 153.312 36.8902 153.361Z" fill="#3F3D56"/>
<path d="M36.8902 160.051L36.7666 159.58C36.915 159.555 50.9589 156.086 71.5551 154.377C90.5688 152.791 119.201 152.42 147.659 159.58L147.536 160.051C119.151 152.89 90.5688 153.262 71.6045 154.848C51.0578 156.557 37.0386 160.001 36.8902 160.051Z" fill="#3F3D56"/>
<path d="M36.8902 166.74L36.7666 166.269C36.915 166.245 50.9589 162.776 71.5551 161.066C90.5688 159.481 119.201 159.109 147.659 166.269L147.536 166.74C119.151 159.58 90.5688 159.951 71.6045 161.537C51.0578 163.247 37.0386 166.69 36.8902 166.74Z" fill="#3F3D56"/>
<path d="M23.7115 180.391C18.3214 183.785 12.9065 183.76 7.51642 180.391C7.17027 180.168 6.97247 179.796 6.99719 179.375L8.67851 157.424H22.3021L24.2307 179.375C24.2554 179.771 24.0576 180.168 23.7115 180.391Z" fill="#3F3D56"/>
<path d="M15.4283 160.149C19.2245 160.149 22.3019 159.04 22.3019 157.672C22.3019 156.304 19.2245 155.194 15.4283 155.194C11.6321 155.194 8.55469 156.304 8.55469 157.672C8.55469 159.04 11.6321 160.149 15.4283 160.149Z" fill="#3F3D56"/>
<path d="M20.8185 156.855C17.2334 159.382 13.7718 159.382 10.4092 156.855V152.891H20.8185V156.855Z" fill="#F97794"/>
<path d="M15.6264 154.848C18.494 154.848 20.8187 153.96 20.8187 152.866C20.8187 151.771 18.494 150.884 15.6264 150.884C12.7588 150.884 10.4341 151.771 10.4341 152.866C10.4341 153.96 12.7588 154.848 15.6264 154.848Z" fill="#F97794"/>
<path d="M15.8734 152.866C16.1465 152.866 16.3679 152.755 16.3679 152.618C16.3679 152.481 16.1465 152.37 15.8734 152.37C15.6003 152.37 15.3789 152.481 15.3789 152.618C15.3789 152.755 15.6003 152.866 15.8734 152.866Z" fill="#E6E6E6"/>
<path d="M18.1976 152.866C18.4707 152.866 18.6921 152.755 18.6921 152.618C18.6921 152.481 18.4707 152.37 18.1976 152.37C17.9245 152.37 17.7031 152.481 17.7031 152.618C17.7031 152.755 17.9245 152.866 18.1976 152.866Z" fill="#E6E6E6"/>
<path d="M17.0355 153.46C17.3086 153.46 17.53 153.349 17.53 153.213C17.53 153.076 17.3086 152.965 17.0355 152.965C16.7624 152.965 16.541 153.076 16.541 153.213C16.541 153.349 16.7624 153.46 17.0355 153.46Z" fill="#E6E6E6"/>
<path d="M12.3627 153.46C12.6358 153.46 12.8572 153.349 12.8572 153.213C12.8572 153.076 12.6358 152.965 12.3627 152.965C12.0896 152.965 11.8682 153.076 11.8682 153.213C11.8682 153.349 12.0896 153.46 12.3627 153.46Z" fill="#E6E6E6"/>
<path d="M13.5248 152.866C13.7979 152.866 14.0193 152.755 14.0193 152.618C14.0193 152.481 13.7979 152.37 13.5248 152.37C13.2517 152.37 13.0303 152.481 13.0303 152.618C13.0303 152.755 13.2517 152.866 13.5248 152.866Z" fill="#E6E6E6"/>
<path d="M14.6869 153.758C14.96 153.758 15.1814 153.647 15.1814 153.51C15.1814 153.374 14.96 153.263 14.6869 153.263C14.4138 153.263 14.1924 153.374 14.1924 153.51C14.1924 153.647 14.4138 153.758 14.6869 153.758Z" fill="#E6E6E6"/>
<path d="M173.299 180.391C167.909 183.785 162.494 183.76 157.104 180.391C156.758 180.168 156.56 179.796 156.585 179.375L158.266 157.424H171.89L173.819 179.375C173.843 179.771 173.646 180.168 173.299 180.391Z" fill="#3F3D56"/>
<path d="M165.017 160.149C168.813 160.149 171.89 159.04 171.89 157.672C171.89 156.304 168.813 155.194 165.017 155.194C161.221 155.194 158.143 156.304 158.143 157.672C158.143 159.04 161.221 160.149 165.017 160.149Z" fill="#3F3D56"/>
<path d="M170.406 156.855C166.821 159.382 163.36 159.382 159.997 156.855V152.891H170.406V156.855Z" fill="#F97794"/>
<path d="M165.214 154.848C168.082 154.848 170.407 153.96 170.407 152.866C170.407 151.771 168.082 150.884 165.214 150.884C162.347 150.884 160.022 151.771 160.022 152.866C160.022 153.96 162.347 154.848 165.214 154.848Z" fill="#F97794"/>
<path d="M165.461 152.866C165.734 152.866 165.956 152.755 165.956 152.618C165.956 152.481 165.734 152.37 165.461 152.37C165.188 152.37 164.967 152.481 164.967 152.618C164.967 152.755 165.188 152.866 165.461 152.866Z" fill="#E6E6E6"/>
<path d="M167.786 152.866C168.059 152.866 168.28 152.755 168.28 152.618C168.28 152.481 168.059 152.37 167.786 152.37C167.512 152.37 167.291 152.481 167.291 152.618C167.291 152.755 167.512 152.866 167.786 152.866Z" fill="#E6E6E6"/>
<path d="M166.624 153.46C166.897 153.46 167.118 153.349 167.118 153.213C167.118 153.076 166.897 152.965 166.624 152.965C166.351 152.965 166.129 153.076 166.129 153.213C166.129 153.349 166.351 153.46 166.624 153.46Z" fill="#E6E6E6"/>
<path d="M161.951 153.46C162.224 153.46 162.445 153.349 162.445 153.213C162.445 153.076 162.224 152.965 161.951 152.965C161.677 152.965 161.456 153.076 161.456 153.213C161.456 153.349 161.677 153.46 161.951 153.46Z" fill="#E6E6E6"/>
<path d="M163.113 152.866C163.386 152.866 163.607 152.755 163.607 152.618C163.607 152.481 163.386 152.37 163.113 152.37C162.84 152.37 162.618 152.481 162.618 152.618C162.618 152.755 162.84 152.866 163.113 152.866Z" fill="#E6E6E6"/>
<path d="M164.275 153.758C164.548 153.758 164.769 153.647 164.769 153.51C164.769 153.374 164.548 153.263 164.275 153.263C164.002 153.263 163.78 153.374 163.78 153.51C163.78 153.647 164.002 153.758 164.275 153.758Z" fill="#E6E6E6"/>
</g>
<defs>
<clipPath id="clip0">
<rect width="180" height="187.031" fill="white"/>
</clipPath>
</defs>
</svg>
